<svg xmlns="http://www.w3.org/2000/svg" viewBox="0 0 372.58 635.75"><defs><style>.cls-1{fill:#d5bdaf;}.cls-2{fill:#bcb8b1;}.cls-3{fill:#8a817c;}.cls-4{fill:#e3d5ca;}.cls-5{fill:#463f3a;}.cls-10,.cls-6,.cls-7,.cls-9{fill:none;}.cls-6,.cls-7{stroke:#463f3a;}.cls-6,.cls-7,.cls-9{stroke-miterlimit:10;}.cls-7{stroke-linecap:round;}.cls-8{fill:#f5ebe0;}.cls-9{stroke:#363636;}.cls-11{fill:#fffcf2;}</style></defs><g id="Layer_2" data-name="Layer 2"><g id="Layer_7" data-name="Layer 7"><g id="airbnb"><g id="door"><g id="outer-door"><polygon class="cls-1" points="258.18 466.61 122.18 466.61 123.18 157.61 253.18 155.61 258.18 466.61"/><polygon class="cls-2" points="237.18 450.61 129.18 451.61 131.18 223.61 234.18 222.61 237.18 450.61"/><polygon class="cls-2" points="230.18 450.61 136.18 451.61 137.18 250.61 227.18 249.61 230.18 450.61"/><polygon class="cls-3" points="224.18 440.61 142.18 442.61 142.18 424.61 224.18 423.61 224.18 440.61"/><path class="cls-2" d="M135.18,228.61v22l95-1v-22Zm5,19v-15l85-1,1,14Z"/><polygon class="cls-2" points="247.18 221.61 123.18 223.61 123.18 201.61 246.18 200.61 247.18 221.61"/></g><g id="door_glass" data-name="door glass"><polygon class="cls-3" points="224.18 417.61 143.18 418.61 143.18 255.61 222.18 254.61 224.18 417.61"/><polygon class="cls-3" points="225.68 246.11 139.68 247.11 139.68 233.11 225.68 232.11 225.68 246.11"/></g><g id="inner-door"><polygon class="cls-4" points="212.68 411.14 154.68 412.11 154.68 255.61 210.68 254.61 212.68 411.14"/><polygon class="cls-5" points="212.68 418.11 154.68 419.11 154.68 412.11 212.68 411.11 212.68 418.11"/><polyline class="cls-3" points="203.69 254.74 204.68 362.11 162.68 362.11 161.69 255.49"/><rect class="cls-2" x="155.68" y="364.11" width="4" height="12"/><circle class="cls-3" cx="157.68" cy="368.11" r="2"/><polygon class="cls-1" points="205.68 409.11 161.68 410.11 161.68 381.11 205.68 380.11 205.68 409.11"/></g><g id="back-wall"><path class="cls-3" d="M253.18,155.61l-130,2-11-39s31-13,75-13c60,0,77,13,77,13Z"/><path class="cls-1" d="M261.18,466.61h-3l-5-310.88,11-37.12s4.67,2.9,6.08,4.06c1.07.88,3.92,3.94,3.92,3.94s-7,5-11.21,27.7c-1.75,9.44-3.79,38.2-3.79,38.2Z"/><path class="cls-4" d="M308.18,466.61h-47l-2.42-274.39s2.46-26.76,3.84-35.6c3.58-23,11.58-30,11.58-30l34,1Z"/><polygon class="cls-4" points="286.18 195.61 254.18 196.61 254.18 190.61 286.18 189.61 286.18 195.61"/><polygon class="cls-4" points="286.18 202.61 256.18 203.61 255.18 196.61 286.18 195.61 286.18 202.61"/><polygon class="cls-4" points="283.18 208.61 257.18 209.61 257.18 203.61 283.18 202.61 283.18 208.61"/><polygon class="cls-4" points="287.18 247.61 254.18 248.61 254.18 242.61 287.18 241.61 287.18 247.61"/><polygon class="cls-4" points="287.18 253.61 256.18 254.61 256.18 248.61 287.18 247.61 287.18 253.61"/><polygon class="cls-4" points="289.18 259.61 257.18 260.61 257.18 254.61 289.18 253.61 289.18 259.61"/><path class="cls-1" d="M122.18,466.61h-8L117,199.76s-1.46-28.44-3.53-37.67c-2.13-9.47-13.26-36.48-13.26-36.48l5.72-3.34,6.28-3.66,11,39Z"/><path class="cls-4" d="M114.18,475.61h-32l3-352,15,2s11.13,26.77,13.27,36.16S117.18,200,117.18,200Z"/></g><g id="door-step"><polygon class="cls-3" points="245.18 467.61 127.18 468.61 127.18 454.61 245.18 453.61 245.18 467.61"/><polygon class="cls-2" points="245.18 453.61 128.18 454.61 128.18 451.61 231 450.61 237.48 451.61 243.18 451.61 245.18 453.61"/></g><g id="platform"><polygon class="cls-2" points="340.18 520.61 30.18 521.61 71.18 477.61 112.81 476.82 123.84 469.03 302.18 467.61 340.18 520.61"/><polygon class="cls-5" points="247.18 478.61 134.18 479.61 140.18 468.61 242.18 468.61 247.18 478.61"/><g id="plant-left"><path class="cls-3" d="M127.18,484.61s-2,2-8.93,3c-16.91,2.52-18.07-1-18.07-1l-.62-2.73a66,66,0,0,1-6.33-14.57c-2-7.51-.59-11.31-.59-11.31l-1.07-1,.23-2a1,1,0,0,1,.35-.67l2-1.75s2-2,28.9-2c7.1,0,10.1,1,11.11,1.62a1.32,1.32,0,0,1,.74,1.41l-.54,2.14s-.28,8.77-.9,11.62C132.51,471.88,127.18,484.61,127.18,484.61Z"/><path class="cls-5" d="M133.18,452.61c0,.55-9,4-20,4s-19-1.45-19-2,8-3,19-3S133.18,451.61,133.18,452.61Z"/><g id="palm-left"><path class="cls-5" d="M118.43,456.36a35.93,35.93,0,0,0,.18-4.36c.21-4.41.37-8.82.31-13.24,0-3.34-.62-13-.64-14.93Q118,389,115,354.35a10.39,10.39,0,0,0-1.35-5.1c.06,5.17.94,10.3,1.36,15.45.32,4,.37,8.05.41,12.09l.49,43.75c0,3.57.08,7.14-.09,10.71a81.6,81.6,0,0,1-1.1,10c-.72,4-1.77,8-2.27,12.09-.08.62-.35,2-.47,3.27"/><path class="cls-6" d="M127.65,408.3A134.61,134.61,0,0,0,109,401.52"/><path class="cls-6" d="M128.84,406c-2.35-.44-4.42-1.77-6.66-2.59-3.19-1.17-6.74-1.31-9.75-2.86"/><path class="cls-6" d="M130.54,403.34c-5,.08-9.87-2.82-14.77-1.82a8.5,8.5,0,0,1-2,.31c-1-.05-2-.61-3-.27"/><path class="cls-6" d="M131.15,401.9c-3.35-2.06-6.93-4.18-10.85-4.12a21,21,0,0,0-4.5.75L111,399.69"/><path class="cls-6" d="M132.36,399.14a48,48,0,0,0-12.53-3.59,9.3,9.3,0,0,0-2.63-.09,8.51,8.51,0,0,0-1.85.53,41.94,41.94,0,0,0-5.37,2.45"/><path class="cls-6" d="M133.73,397.43a19.56,19.56,0,0,0-4.61-2.38,39.7,39.7,0,0,0-6.09-1.46,9.19,9.19,0,0,0-2-.22,9.29,9.29,0,0,0-3.3,1"/><path class="cls-6" d="M134.57,394.79a31.1,31.1,0,0,0-6.7-3,6.73,6.73,0,0,0-1.38-.38,6.42,6.42,0,0,0-1.9.14l-5.13.9"/><path class="cls-6" d="M135.52,392.4l-5.29-1.35a11,11,0,0,0-2.89-.46c-2.72.07-4.94,2.12-6.79,4.12"/><path class="cls-6" d="M135.74,390.9a6.8,6.8,0,0,1-3-1c-2.63-1.14-5.64-.75-8.48-.34"/><path class="cls-6" d="M136.59,388c-.76-.15-1.3-.8-2-1.21a6.45,6.45,0,0,0-3.95-.48l-4,.35a5.91,5.91,0,0,0-2.25.5"/><path class="cls-6" d="M137.35,385.14c-1.44-.39-2.71-1.2-4.1-1.73a4.91,4.91,0,0,0-4.3,0"/><path class="cls-6" d="M138.52,383.58c-.42-1.22-1.68-2-2.2-3.15a1.23,1.23,0,0,0-.21-.37c-.33-.32-1-.05-1.3-.36"/><path class="cls-6" d="M139.41,377.82a12,12,0,0,0,.9,4c0-1.51,1-4,1.13-5.57"/><path class="cls-6" d="M142.22,380l1.91-3.21"/><path class="cls-6" d="M138.86,384.46a26.67,26.67,0,0,0,5-1.49"/><path class="cls-6" d="M139.6,382.78c1.32-.49,2.64-.95,4-1.38"/><path class="cls-6" d="M136.72,387.7c1.88-1.17,4.35-1.28,6-2.77"/><path class="cls-6" d="M136.2,389.61c1.32-.36,2.58-.94,3.87-1.38a20.19,20.19,0,0,1,3.06-.78"/><path class="cls-6" d="M135.83,391.64a47.76,47.76,0,0,0,7.37-.46"/><path class="cls-6" d="M134.7,395.58a23.6,23.6,0,0,1,8,.6"/><path class="cls-6" d="M135.41,393.53a10.85,10.85,0,0,0,2.4,3.89,27.91,27.91,0,0,1,3.63,6,6.86,6.86,0,0,1,.6,1.86,3.39,3.39,0,0,0,.42,1.77"/><path class="cls-6" d="M133.84,397.69c1.59,1.73,1.91,4.25,3,6.32.92,1.72,2.37,3.11,3.23,4.85"/><path class="cls-6" d="M126.17,411a17.44,17.44,0,0,1-4.78-2,112.82,112.82,0,0,0-12.65-5.8"/><path class="cls-6" d="M117.49,397.16l2.59,9.76a48.48,48.48,0,0,1,1.63,7.78"/><path class="cls-6" d="M114.92,419.61a11,11,0,0,0-3.07,1.44c-4.32,2.42-9.47,2.95-13.88,5.2"/><path class="cls-6" d="M115.38,422.61a20.67,20.67,0,0,0-4.65-2.68,21,21,0,0,1-4.29-2,13,13,0,0,0-2.13-1.5c-1.26-.55-2.76-.28-4-.8"/><path class="cls-6" d="M125,412.92a45.33,45.33,0,0,1-8.85-4L104,402.39"/><path class="cls-6" d="M118.84,442.21c.65-4.23,1.44-8.6,3.88-12.13,3.57-5.16,10.34-7.59,16.58-6.83a4.62,4.62,0,0,1,3.3,1.51"/><path class="cls-6" d="M115.4,438.83a28.63,28.63,0,0,0-2-8.09,208.72,208.72,0,0,0-10.68-24.27c-2-3.85-4.15-7.7-7.32-10.65a41.76,41.76,0,0,0-5.84-4.29l-5.23-3.39"/><path class="cls-6" d="M118.05,435.64c.22-6.91,2.57-13.59,5.58-19.81s6.68-12.11,9.79-18.28a29.05,29.05,0,0,0,2.35-5.79c.36-1.41.53-2.87,1-4.26,1.06-3.19,3.53-5.69,5.91-8.06"/><path class="cls-6" d="M116.63,441.86q-.39-7.83-.8-15.67A59.15,59.15,0,0,0,115,418a72.81,72.81,0,0,0-2-7.22c-2.09-6.89-3.69-13.92-5.29-20.94l-3.1-13.6L98.8,350.64"/><path class="cls-6" d="M101.48,360.77a36.93,36.93,0,0,0,.66-16.1"/><path class="cls-6" d="M102.53,364.81c-.36-3.13.86-6.19,1.63-9.25a66.23,66.23,0,0,0,1.5-13.92"/><path class="cls-6" d="M102.77,368.43l1.47-5.21c.71-2.49,1.41-5,1.87-7.51s.69-5.23.91-7.86"/><path class="cls-6" d="M103.5,370.55q2.55-8.48,4.32-17.15"/><path class="cls-6" d="M104.35,374a24,24,0,0,1,.85-5.11l3-12.76"/><path class="cls-6" d="M104.91,375.58q1.84-7.63,3.41-15.33"/><path class="cls-6" d="M105.45,378.61c.09-4.22,2.41-8.08,3-12.26.28-1.89.26-4,1.38-5.51"/><path class="cls-6" d="M106.27,381a4.65,4.65,0,0,1,.66-2.4,62.44,62.44,0,0,0,4.77-14.34"/><path class="cls-6" d="M106.52,383.27a93.11,93.11,0,0,1,2.92-9"/><path class="cls-6" d="M109.25,399.52c-1.32-.12-2.48.8-3.71,1.31a25.1,25.1,0,0,1-4.05.95c-2.94.68-5.55,2.37-8.43,3.26s-6,1-8.59,2.53"/><path class="cls-6" d="M108.73,396.83a132.9,132.9,0,0,0-26,2.39"/><path class="cls-6" d="M108.57,394c-5.37,2.24-10.78,4.43-16.18,6.61L84.09,404"/><path class="cls-6" d="M86.4,399.54a79.62,79.62,0,0,1,21.13-8.17,34.34,34.34,0,0,0-13.39.6,55,55,0,0,1-10.26,1.1"/><path class="cls-6" d="M106.38,384.44c-3.06,0-5.82,2.05-8.88,2.24-1.18.07-2.38-.14-3.56,0a19,19,0,0,0-4.07,1.21A40.75,40.75,0,0,1,83,389.34"/><path class="cls-6" d="M105.87,382.17c-5.41-.86-10.85.78-16.19,2q-3,.68-6,1.19"/><path class="cls-6" d="M104.68,377l-8.58,1.13c-4.39.58-8.79,1.16-13.22,1.32"/><path class="cls-6" d="M104.2,374.44q-10.67-.1-21.32-.75"/><path class="cls-6" d="M103,371.45a32.5,32.5,0,0,1-7.24-1.79c-1.58-.53-3.15-1.09-4.72-1.65l-5.37-1.9"/><path class="cls-6" d="M102.66,368.07a20.28,20.28,0,0,1-3.48-1.68,29.67,29.67,0,0,0-3.35-2c-2.45-1.06-5.24-.9-7.9-.72"/><path class="cls-6" d="M101.79,365.08q-3.66-2.2-7.14-4.66"/><path class="cls-6" d="M100.65,361.35A9.68,9.68,0,0,1,96,357.92"/><path class="cls-6" d="M99,357a10.8,10.8,0,0,0-3.13-2.58"/><path class="cls-6" d="M98.82,353.07a7.39,7.39,0,0,1-3.47-2.9"/><path class="cls-6" d="M105.38,379.64a35.44,35.44,0,0,1-7.88,1.47,30.91,30.91,0,0,0-3.2.11,23.61,23.61,0,0,0-4.1,1.16,28.27,28.27,0,0,1-5.53,1.2"/><path class="cls-6" d="M102.71,369.4c-1.78-.51-3.54-1-5.3-1.61a20.81,20.81,0,0,1-2.75-1.06,10.55,10.55,0,0,0-3.55-1.51"/><path class="cls-6" d="M106.76,386.86c-8,1.61-16.11,2.14-23.92,4.27"/><path class="cls-6" d="M110.08,401q-5.3-2.57-10.77-4.75a34.37,34.37,0,0,0-5.72-1.85,38.81,38.81,0,0,0-8.21-.47"/><path class="cls-6" d="M115.53,409a38.63,38.63,0,0,1-2-7.75c-.61-3.94-.73-8.27-3.32-11.3"/><path class="cls-6" d="M116,403.3l-6-17.32a34.05,34.05,0,0,1-1.26-4.18"/><path class="cls-6" d="M115.5,398.3q-2.7-10.12-6.29-20"/><path class="cls-6" d="M115.72,394a32.73,32.73,0,0,0-2.79-8.09,113.54,113.54,0,0,1-5-14.2"/><path class="cls-6" d="M116.05,390.12A142,142,0,0,1,108,366.85"/><path class="cls-6" d="M115.89,386.46c-1-2.27-2-4.51-2.94-6.79A126.24,126.24,0,0,1,107.62,361"/><path class="cls-6" d="M115.68,383.29A94.71,94.71,0,0,1,108,358.57"/><path class="cls-6" d="M115.51,380.91c-3-5.67-4.57-12-6.1-18.21a26.19,26.19,0,0,1-1.09-7.59"/><path class="cls-6" d="M115.43,378.87l-5.23-15.94a14.16,14.16,0,0,1-1-5"/><path class="cls-6" d="M115.24,375.42q-4.11-13.89-7-28.08"/><path class="cls-6" d="M115.25,369.77c-1.73-4.32-1.5-9.13-2.24-13.72a32.78,32.78,0,0,0-4.15-11.53"/><path class="cls-6" d="M114.08,355.88l-2.21-12c-.47-2.56-1-5.21-2.47-7.34"/><path class="cls-6" d="M114.48,353.19a52.19,52.19,0,0,0,.16-9.27,7.83,7.83,0,0,0-.24-1.6,8.8,8.8,0,0,0-1-2"/><path class="cls-6" d="M113.87,351a18.23,18.23,0,0,0,1.8-6.45,45.78,45.78,0,0,1,.42-5.75"/><path class="cls-6" d="M114.63,356.38a128.26,128.26,0,0,0,4.51-14.13"/><path class="cls-6" d="M114.4,358.14a17.57,17.57,0,0,0,3.49-5.55c.16-.52.28-1.06.46-1.59.28-.79.7-1.53,1.05-2.3a12.07,12.07,0,0,0,.95-3.48"/><path class="cls-6" d="M114.73,359.92l3.5-4.58a12.38,12.38,0,0,0,1.06-1.54,15,15,0,0,0,.76-1.74,39,39,0,0,1,2.51-5.21"/><path class="cls-6" d="M115.28,362.67a53,53,0,0,1,2.87-4.57l8.62-12.8"/><path class="cls-6" d="M116.1,367.77c5.5-6.29,9.47-13.79,15-20"/><path class="cls-6" d="M116.12,370.43l2.62-3q7.19-8.34,14.4-16.65"/><path class="cls-6" d="M116.86,373.84c1-1.2,2.47-1.85,3.44-3,.51-.6.85-1.33,1.32-2a14.84,14.84,0,0,1,1.37-1.49,29.16,29.16,0,0,0,4.05-5.2"/><path class="cls-6" d="M117.05,378.37c1.63-3.05,4.11-5.54,6-8.39,1.77-2.59,3.16-5.54,5.61-7.48"/><path class="cls-6" d="M117.5,382.13l5-7.9q1.42-2.26,2.88-4.52,4.65-7.12,9.94-13.79"/><path class="cls-6" d="M118.68,389.24a21.54,21.54,0,0,1,3.63-6.38l1.93-2.62q4.86-6.56,10.1-12.8"/><path class="cls-6" d="M117.78,394.1a116.65,116.65,0,0,1,15.92-23.27"/><path class="cls-6" d="M117.85,399.75q6.54-12.08,14.24-23.46"/><path class="cls-6" d="M118.35,404.35c1.17-4.46,4.09-8.21,6.37-12.22,1-1.74,1.86-3.54,2.87-5.27a40.83,40.83,0,0,1,8.83-10.59"/></g></g><g id="plant-right"><path class="cls-3" d="M283.47,483.21a1.66,1.66,0,0,1-.29,1.4,5.22,5.22,0,0,1-1.69,1.18c-1.51.58-4.81,1.32-11.83,1.32a46,46,0,0,1-12.14-1.39,2.93,2.93,0,0,1-2.11-2.36l-.19-1.21s-6.74-12.08-7.58-15.54c-.57-2.36.19-8,.1-11.55a4.93,4.93,0,0,0-.45-1.92,1.3,1.3,0,0,1,.72-1.75c2.11-.76,7.45-1.91,20.86-2.28,18.31-.5,19.81,3,19.81,3s-1.39,20.93-2.19,23c-.57,1.5-3.75,7.21-3.75,7.21S283.43,482.72,283.47,483.21Z"/><path class="cls-5" d="M288.18,452.61c0,.55-15.76,2.86-26.5,2-12.5-1-12.5-2.45-12.5-3s11.73-2,22.5-2S288.18,452.06,288.18,452.61Z"/><g id="right-palm"><path class="cls-5" d="M272,454.56c.14-7.46-.06-14.94-.58-22.39-.26-3.73-.6-7.45-.54-11.18.12-7.3,1.77-14.47,3.41-21.58,2.57-11.11,5.18-22.33,10.28-32.53,1.7-3.39,3.69-6.72,4.32-10.46-1.81.43-2.88,2.25-3.73,3.9-1.4,2.69-9.62,25.4-10.42,29.79-2,11.19-7.22,39.72-7,43a75,75,0,0,1-1.56,20.38c-.09.44-.19.87-.27,1.31"/><path class="cls-7" d="M269.73,424c-.92-4.73-.36-9.61.2-14.39l1.28-10.87c.25-2.17.51-4.35.83-6.52a108.81,108.81,0,0,1,8.5-28.85"/><path class="cls-7" d="M270.31,405.81c-.51-1.08-1.16-2.08-1.77-3.1A93.49,93.49,0,0,1,263,391.1L260,384"/><path class="cls-7" d="M270.73,403.09l-7.51-16.43a26.56,26.56,0,0,1-1.48-3.73"/><path class="cls-7" d="M270.72,399.83l-5-13.8-1.61-4.49-1.49-4.14c-.88-2.45-1.76-4.9-2.62-7.36"/><path class="cls-7" d="M271.55,396.12l-3.37-8.77a131.43,131.43,0,0,1-5.53-16.57"/><path class="cls-7" d="M272.28,392.29c-.51-1.81-1.14-3.58-1.78-5.35l-4.76-13.29L262,363.33"/><path class="cls-7" d="M272.91,387.93,267.25,369a58.6,58.6,0,0,1-2.52-10.9"/><path class="cls-7" d="M274.1,381.51a67.48,67.48,0,0,1-6.43-13.71,15.61,15.61,0,0,0-2-4.48c-.68-.9-1.62-1.7-1.88-2.81"/><path class="cls-7" d="M274.81,378.67l-5.25-13.14a50.34,50.34,0,0,1-3.3-10.38"/><path class="cls-7" d="M275.94,375.64a65.12,65.12,0,0,1-3-10.35c-.66-3.35-1.12-6.88-3-9.69"/><path class="cls-7" d="M277,372a67.79,67.79,0,0,0-3.47-18.05"/><path class="cls-7" d="M279.73,365.47l-1.2-14.16a3.38,3.38,0,0,0-.39-1.54"/><path class="cls-7" d="M269.56,439.8c.2-3.33-1.59-6.43-2.23-9.7-.37-1.89-.36-3.83-.59-5.75-.56-4.82-2.56-9.33-4.59-13.74a21.47,21.47,0,0,0-2.11-3.85,21.84,21.84,0,0,0-3.46-3.47c-3.24-2.8-6.69-5.7-10.88-6.54"/><path class="cls-7" d="M266.63,424.71q-6.74-.76-13.54-1"/><path class="cls-7" d="M266.27,421.15c-4,.45-8-.68-12,.09a24.62,24.62,0,0,0-3.34,1,9.31,9.31,0,0,0-2.48,1.14"/><path class="cls-7" d="M265.64,419.39c-2.84.62-5.61-1.08-8.42-1.83A25.46,25.46,0,0,0,254,417l-5-.7"/><path class="cls-7" d="M265.28,417.29c-5.73-1-11.18-3.2-16.92-4.11"/><path class="cls-7" d="M263.53,414.06c-2.34.38-4.47-1.25-6.6-2.3-3.41-1.68-7.32-2-11.13-2.22"/><path class="cls-7" d="M263,412.5l-2.32-1a29.36,29.36,0,0,0-3.72-1.42c-2.8-.77-6-.74-8.28-2.49"/><path class="cls-7" d="M262.16,410.27A9.32,9.32,0,0,1,259,409a46.5,46.5,0,0,0-9.14-3.72"/><path class="cls-7" d="M260.19,407.35c-2.93-1.68-5.36-4.39-8.64-5.19a21.91,21.91,0,0,1-2.43-.54"/><path class="cls-7" d="M255.7,402.55a10.39,10.39,0,0,1-2.89-1.15,12,12,0,0,0-6.91-.92"/><path class="cls-7" d="M266.89,425.22A103.45,103.45,0,0,0,281.3,425"/><path class="cls-7" d="M278.83,423.15a7,7,0,0,1-2.41.26H267c2.93.25,5.64-1.12,8.5-1.78a42.21,42.21,0,0,1,4.69-1"/><path class="cls-7" d="M266.5,420.62q6.72-2,13.55-3.48"/><path class="cls-7" d="M266.27,418.68c2.39-.95,5.06-1,7.52-1.75,3-.92,5.77-2.93,8.87-2.6"/><path class="cls-7" d="M265.07,415.9c2.48-1.19,5.38-1,8.06-1.64a31.39,31.39,0,0,1,4.45-1.09"/><path class="cls-7" d="M263.83,413.34a46.58,46.58,0,0,1,18.59-2.47"/><path class="cls-7" d="M282.92,408.67a71,71,0,0,0-19.61,2.64C269.67,408.65,276.17,407.28,282.92,408.67Z"/><path class="cls-7" d="M274,404.19a6,6,0,0,1,4,.61l4.65,1.86"/><path class="cls-7" d="M274.71,402c3.11-.24,6.2.57,9.21,1.38"/><path class="cls-7" d="M275.22,400h6.9a8.28,8.28,0,0,1,2.81.33"/><path class="cls-7" d="M275.59,397.7a30.34,30.34,0,0,0,6.25-1.59l4.16-1.39"/><path class="cls-7" d="M276.46,392.1c3,.11,6.8.74,9.68,0l-10.06,2.16"/><path class="cls-7" d="M277.31,389.67a16.08,16.08,0,0,1,6.06-1.07,6.62,6.62,0,0,0,2.43-.21"/><path class="cls-7" d="M278.32,385.5c2.49,0,6.1,1,8.59,1-3.06.72-6.4,0-9.32,1.16"/><path class="cls-7" d="M279.05,382.84a18,18,0,0,1,3.57-.84l5.65-.93"/><path class="cls-7" d="M279.21,380.58c2.78-1.39,6.18-.8,9-2"/><path class="cls-7" d="M280.31,378.43a19.76,19.76,0,0,0,8.19-1.78"/><path class="cls-7" d="M280.86,375.63a22.26,22.26,0,0,1,8.89-3.72"/><path class="cls-7" d="M272.36,404l-6.85-1.3a25,25,0,0,1-3.19-.74c-1.55-.51-3-1.31-4.48-2"/><path class="cls-7" d="M272.6,401.78c-2.82-.3-5.47-1.46-8.12-2.45a55.22,55.22,0,0,0-7.75-2.32,45.57,45.57,0,0,0-8-1"/><path class="cls-7" d="M273,399.66a24.67,24.67,0,0,0-8.31-2.71c-2.25-.31-4.54-.32-6.8-.61a28.19,28.19,0,0,1-9-2.78"/><path class="cls-7" d="M273.81,397.13A77.57,77.57,0,0,0,246.5,390"/><path class="cls-7" d="M274.45,394.85a37.38,37.38,0,0,0-22.46-5"/><path class="cls-7" d="M275.36,392.9a157.18,157.18,0,0,0-17.51-7c-3.09-1-6.26-2-8.91-3.84"/><path class="cls-7" d="M275.6,390.89c-3.21-2.17-6.43-4.34-9.76-6.33-4.91-2.93-10-5.46-15.19-8"/><path class="cls-7" d="M275.92,388.91l-11.74-8.77a9.93,9.93,0,0,0-2.61-1.56"/><path class="cls-7" d="M276.65,385.57a96.42,96.42,0,0,1-9.73-9.12,21.75,21.75,0,0,0-3.64-3.41,20.67,20.67,0,0,0-2.67-1.42l-7-3.25"/><path class="cls-7" d="M277.37,383.59l-12.45-12.87c-2.55-2.64-5.18-5.33-8.5-6.9"/><path class="cls-7" d="M278,381.37l-10.81-15.61a10.85,10.85,0,0,0-3.56-3.69c-1.26-.65-2.86-.86-3.72-2"/><path class="cls-7" d="M279.47,379c-2.4-5.43-6.05-10.2-9.66-14.91L265.89,359a8.83,8.83,0,0,0-3.35-3.08"/><path class="cls-7" d="M280,376.27a143.79,143.79,0,0,0-13.47-21.11"/><path class="cls-7" d="M280.74,373.67c-3.54-8.8-9.94-16.32-12.79-25.37"/><path class="cls-7" d="M281.91,371.15q-5.52-11.44-10.46-23.17"/><path class="cls-7" d="M283.17,367.72q-4.57-11-8.54-22.33"/><path class="cls-7" d="M284.11,364.47a206.53,206.53,0,0,1-7.67-21.72"/><path class="cls-7" d="M286.26,361.53c-1.05-6.74-5.71-12.36-7.65-18.9"/><path class="cls-7" d="M271.44,446.48a8,8,0,0,1,1.07-4.48,35.44,35.44,0,0,1,6.58-9.24,14.75,14.75,0,0,1,3.33-2.67,19,19,0,0,1,6.14-1.77"/><path class="cls-7" d="M270.47,440c.13-2.39,1.33-4.57,2.5-6.66,2-3.58,4-7.17,6.29-10.61a32.53,32.53,0,0,1,2.51-3.44,39.08,39.08,0,0,1,4.72-4.46"/><path class="cls-7" d="M267.91,444.26a19.47,19.47,0,0,0-1.64-5c-2.46-5.8-4.44-12-8.8-16.6"/></g></g></g><polygon class="cls-4" points="293.68 518.11 286.68 508.11 283.33 375.88 282.71 285.01 281.68 133.11 287.68 133.11 289.6 320.18 293.68 518.11"/><polygon class="cls-8" points="335.68 518.11 293.68 518.11 287.68 117.11 325.68 117.11 327.35 224.11 327.01 247.29 335.68 518.11"/><polygon class="cls-4" points="84.68 508.11 76.68 519.11 84.68 141.11 93.68 153.11 91.19 226.5 84.68 508.11"/><polygon class="cls-8" points="76.68 519.11 34.68 519.11 46.68 137.11 84.68 137.11 76.68 519.11"/><path class="cls-1" d="M276.68,129.11s-10-24-90.5-24c-64.5,0-89.5,22-89.5,22l-12-9s8-31.5,101.5-31.5c95.5,0,101.5,30.5,101.5,30.5Z"/><path class="cls-8" d="M325.68,117.11l-38,.14s-6-30.64-100.5-30.64C90.68,86.61,84.68,118,84.68,118l-35,.13v-53l276-2Z"/><path class="cls-4" d="M285.68,142.11l-6.75,17.37a.13.13,0,0,1-.25,0v-6.33l7-16.91s0,0,0,0Z"/><polygon class="cls-1" points="327.68 145.11 288.08 145.23 282.49 159.66 278.68 160.11 285.68 142.11 330.68 142.11 327.68 148.88 327.68 145.11"/><rect class="cls-8" x="285.68" y="136.11" width="45" height="6"/><polygon class="cls-1" points="331.68 141.11 331.64 134.74 284.9 135.44 278.47 153.97 275.68 154.11 282.68 133.11 334.68 133.11 331.68 141.11"/><path class="cls-4" d="M282.68,133.11l-7,20.95h0v-6.95l7-19.86s0,0,0,0Z"/><polygon class="cls-8" points="334.68 133.11 282.68 133.11 282.68 127.11 334.68 126.11 334.68 133.11"/><path class="cls-1" d="M334.68,131.11l-.13-5.3-51.4.3-7.94,22h-2.9a.43.43,0,0,1-.4-.59l8.77-23.41h58Z"/><path class="cls-4" d="M280.68,124.11,272,147.17a.19.19,0,0,1-.36-.07v-6l7.73-23.18a.21.21,0,0,1,.4,0Z"/><polygon class="cls-8" points="338.68 124.11 280.68 124.11 279.68 117.11 338.68 117.11 338.68 124.11"/><polygon class="cls-1" points="334.68 199.11 334.48 196 281.83 196.44 274.05 212.62 271.68 212.11 279.68 194.11 338.68 194.11 334.68 199.11"/><path class="cls-4" d="M279.68,194.11l-7.89,17.75a.07.07,0,0,1-.14,0l-1-6.73,8.91-17.82s.09,0,.09,0Z"/><polygon class="cls-8" points="338.68 194.11 279.68 194.11 279.68 187.11 338.68 186.11 338.68 194.11"/><polygon class="cls-1" points="330.68 208.11 330.92 204.65 285.02 205.26 278.17 218.28 274.68 218.11 282.68 203.11 334.68 203.11 330.68 208.11"/><path class="cls-4" d="M282.68,203.11l-7.84,14.71a.08.08,0,0,1-.16,0v-6.68l6.89-14.75a.08.08,0,0,1,.15,0Z"/><polygon class="cls-8" points="334.68 203.11 282.68 203.11 281.68 196.11 334.68 196.11 334.68 203.11"/><polygon class="cls-1" points="326.68 216.11 326.88 214.5 286.99 213.74 281.42 225.31 277.68 225.11 285.68 212.11 330.68 211.11 326.68 216.11"/><path class="cls-4" d="M285.68,212.11l-7.79,12.66a.11.11,0,0,1-.21-.05v-6.61l6.84-12.7a.11.11,0,0,1,.21,0Z"/><polygon class="cls-8" points="330.68 211.11 285.68 212.11 284.68 205.11 330.68 205.11 330.68 211.11"/><polygon class="cls-1" points="104.18 150.61 101.08 150.63 89.81 127.54 39.49 129.27 39.18 132.61 35.18 126.61 92.18 125.61 104.18 150.61"/><polygon class="cls-4" points="104.18 150.61 92.18 125.61 93.18 118.61 105.18 143.61 104.18 150.61"/><polygon class="cls-8" points="92.18 125.61 35.18 126.61 35.18 119.61 93.18 118.61 92.18 125.61"/><polygon class="cls-1" points="101.18 156.61 97.53 156.61 87.83 136.61 42.72 137.39 42.18 140.61 39.18 135.61 89.18 134.61 101.18 156.61"/><polygon class="cls-4" points="101.18 156.61 89.18 134.61 90.18 127.61 101.18 149.61 101.18 156.61"/><polygon class="cls-8" points="89.18 134.61 39.18 135.61 39.18 128.61 90.18 127.61 89.18 134.61"/><polygon class="cls-1" points="97.18 161.61 93.71 161.61 84.83 146.61 46.41 147.44 46.18 149.61 42.18 144.61 87.18 143.61 97.18 161.61"/><polygon class="cls-4" points="97.18 161.61 87.18 143.61 87.18 137.61 97.18 155.61 97.18 161.61"/><polygon class="cls-8" points="87.18 143.61 42.18 144.61 42.18 137.61 87.18 137.61 87.18 143.61"/><polygon class="cls-1" points="100.18 212.61 98.68 213.04 86.75 196.66 35.18 196.61 35.18 199.61 31.18 195.61 89.18 194.61 100.18 212.61"/><polygon class="cls-4" points="100.18 212.61 89.18 194.61 89.18 187.61 100.18 205.61 100.18 212.61"/><polygon class="cls-8" points="89.18 194.61 31.18 195.61 31.18 188.61 89.18 187.61 89.18 194.61"/><polygon class="cls-1" points="98.18 219.61 94.68 219.61 85.5 205.61 39.33 205.18 39.18 208.61 35.18 203.61 86.18 203.61 98.18 219.61"/><polygon class="cls-8" points="86.18 203.61 35.18 203.61 35.18 196.61 87.18 196.61 86.18 203.61"/><polygon class="cls-4" points="98.18 219.61 86.18 203.61 87.18 196.61 98.18 212.61 98.18 219.61"/><polygon class="cls-1" points="94.18 225.61 90.82 225.61 81.36 214.61 42.74 214.61 43.18 216.61 39.18 212.61 84.18 212.61 94.18 225.61"/><polygon class="cls-4" points="94.18 225.61 84.18 212.61 85.18 205.61 94.18 219.61 94.18 225.61"/><polygon class="cls-8" points="84.18 212.61 39.18 212.61 39.18 205.61 85.18 205.61 84.18 212.61"/><g id="steps"><polygon class="cls-3" points="341.18 544.61 29.18 545.61 30.18 521.61 341.18 521.61 341.18 544.61"/><polygon class="cls-1" points="336.18 577.61 36.18 580.61 36.18 545.61 336.18 545.61 336.18 577.61"/><polygon class="cls-2" points="310.18 574.61 53.18 575.61 73.18 545.61 295.18 544.61 310.18 574.61"/><polygon class="cls-3" points="312.18 598.61 53.18 599.61 53.18 575.61 311.18 574.61 312.18 598.61"/><polygon class="cls-2" points="322.18 619.61 40.18 620.61 53.18 599.61 313.18 598.61 322.18 619.61"/><polygon class="cls-3" points="323.18 634.61 39.18 634.61 40.18 620.61 322.18 619.61 323.18 634.61"/></g><g id="roof-top"><polygon class="cls-1" points="350.18 51.61 22.18 44.61 0.18 7.61 370.18 5.61 350.18 51.61"/><polygon class="cls-8" points="357.18 31.61 14.18 34.61 15.18 23.61 357.18 21.61 357.18 31.61"/><polygon class="cls-8" points="370.18 5.61 0.18 7.61 0.18 3.61 372.18 1.61 370.18 5.61"/></g><g id="roof-bottom"><polygon class="cls-1" points="342.18 63.61 33.18 67.61 14.18 34.61 356.18 31.61 342.18 63.61"/><polygon class="cls-4" points="328.18 62.61 48.18 63.61 48.18 49.61 327.18 46.61 328.18 62.61"/><rect class="cls-8" x="47.18" y="48.61" width="5" height="8"/><rect class="cls-8" x="56.18" y="48.61" width="4" height="8"/><rect class="cls-8" x="65.18" y="48.61" width="4" height="8"/><rect class="cls-8" x="73.18" y="48.61" width="4" height="8"/><rect class="cls-8" x="81.18" y="48.61" width="4" height="8"/><rect class="cls-8" x="90.18" y="48.61" width="4" height="8"/><rect class="cls-8" x="98.18" y="48.61" width="4" height="8"/><rect class="cls-8" x="106.18" y="47.61" width="5" height="9"/><rect class="cls-8" x="115.18" y="48.61" width="4" height="8"/><rect class="cls-8" x="123.18" y="47.61" width="5" height="9"/><rect class="cls-8" x="132.18" y="47.61" width="4" height="9"/><rect class="cls-8" x="140.18" y="47.61" width="4" height="9"/><rect class="cls-8" x="149.18" y="47.61" width="4" height="8"/><rect class="cls-8" x="157.18" y="47.61" width="4" height="8"/><rect class="cls-8" x="166.18" y="47.61" width="4" height="8"/><rect class="cls-8" x="174.18" y="47.61" width="4" height="8"/><rect class="cls-8" x="183.18" y="46.61" width="4" height="9"/><rect class="cls-8" x="191.18" y="47.61" width="4" height="8"/><rect class="cls-8" x="200.18" y="46.61" width="4" height="9"/><rect class="cls-8" x="208.18" y="46.61" width="4" height="9"/><rect class="cls-8" x="217.18" y="46.61" width="4" height="9"/><rect class="cls-8" x="225.18" y="46.61" width="5" height="9"/><rect class="cls-8" x="234.18" y="46.61" width="4" height="9"/><rect class="cls-8" x="242.18" y="46.61" width="5" height="9"/><rect class="cls-8" x="251.18" y="46.61" width="5" height="9"/><rect class="cls-8" x="260.18" y="46.61" width="4" height="8"/><rect class="cls-8" x="268.18" y="46.61" width="5" height="8"/><rect class="cls-8" x="277.18" y="46.61" width="4" height="8"/><rect class="cls-8" x="285.18" y="45.61" width="5" height="9"/><rect class="cls-8" x="294.18" y="45.61" width="5" height="9"/><rect class="cls-8" x="302.18" y="45.61" width="5" height="9"/></g><g id="pipe"><path class="cls-5" d="M323.18,37.11c0,1.38-2.68,2.5-6,2.5s-6-.12-6-1.5,2.69-3.5,6-3.5S323.18,35.73,323.18,37.11Z"/><path class="cls-1" d="M313.22,35.67c-.3.71-.55,2.34-.73,2.7a16.63,16.63,0,0,0-1,4.54,36.56,36.56,0,0,0-.53,6,17.94,17.94,0,0,0,2.93,10.31A26.38,26.38,0,0,0,317,62.65l6.67,6.6c1.51,1.5,3.11,3.19,3.27,5.31s-1.05,3.85-1.56,5.8a17.12,17.12,0,0,0-.07,6.1l1.33,12.48c1.12-1.39,1.48-3.22,2-4.92,1.28-4,3.72-7.55,5.62-11.32s3.29-8.09,2.23-12.18c-1-3.75-3.83-6.7-6.7-9.31s-5.95-5.2-7.61-8.7a9,9,0,0,1-.85-2.82,15.13,15.13,0,0,1,.15-3.15,52.5,52.5,0,0,0,.28-7.42c0-.26.09-2.31,0-3.59a10.24,10.24,0,0,0-4.65-.92A9.6,9.6,0,0,0,313.22,35.67Z"/></g><path class="cls-9" d="M337.85,514.78a71.23,71.23,0,0,1,4.72,29.61,207.89,207.89,0,0,0-45.77,1c6.49,11.44,13.12,23.3,14.47,36.38.63,6.14.07,12.42,1.51,18.41,2.93,12.19,13.87,22.59,12.23,35-20.47-4.68-41.78-3.27-62.76-2.26q-32.91,1.59-65.88,1.79C144.19,635,92,632.69,39.83,633a33.75,33.75,0,0,1,3.35-19.07c3.51-6.65,9.27-12.43,10.2-19.89.75-6-1.79-12.09-.4-17.93.76-3.21,2.65-6,4.5-8.76l13.54-20A213.54,213.54,0,0,0,28.28,546l1.14-17.44c.28-4.33,1.19-9.56,5.25-11.11"/><path class="cls-9" d="M52.56,598.39c26.34-2.44,53,2.28,79.28-.28,7.92-.77,15.78-2.2,23.73-2.79,11-.81,22,0,32.91.66q61.77,3.75,123.71,1.71"/><path class="cls-9" d="M53.79,577.86l47.14-3c8.11-.52,16.23-1,24.34-.84,9,.23,18,1.36,27,1.94,33.2,2.13,66.52-3.21,99.74-1.46,19,1,38.21,4.3,56.83.51"/><path class="cls-9" d="M41.83,621.25c35-4.94,70.53-1.41,105.84-.11,10,.37,20,.56,30,.07,10.16-.49,20.28-1.69,30.44-2.18,37.44-1.82,75.27,5.85,112.27-.16"/><path class="cls-9" d="M72.85,545.72c12-3.13,24.6-2,37-1.39,37.56,1.71,75.21-2.49,112.76-.53,12.58.66,25.16,2,37.75,1.36,11.42-.59,23-2.82,34.15-.17"/><path class="cls-9" d="M31.06,523.23c15.58-1.32,31.21-2.63,46.84-2.15,12.36.39,24.66,1.9,37,2.72,51.56,3.42,103.24-5.18,154.88-3.56,23.38.74,46.82,3.57,70.1,1.31"/><path class="cls-9" d="M334.85,518.51A180.4,180.4,0,0,1,293.5,518l-7-9.58"/><path class="cls-9" d="M333.75,544.64a283.62,283.62,0,0,1,1.57,32.71q-12.4-.14-24.78.88"/><path class="cls-9" d="M36.35,545.52a362.62,362.62,0,0,0,.46,39.15,71.1,71.1,0,0,1,15-.57"/><path class="cls-9" d="M34.76,519.55l38.64.32a5,5,0,0,0,2.25-.32A5.25,5.25,0,0,0,77.29,518l7.34-9.12"/><path class="cls-9" d="M75.59,519.91l3.46-142.83,3.89-160.55"/><path class="cls-9" d="M86.15,507.84c-3.2-40.58-.73-81.37.74-122.06.8-22,.59-44,1.39-66,.38-10.37.75-20.75,1.62-31.09,1.71-20.52-1.22-40.59,1.28-61.5"/><path class="cls-9" d="M33.42,520.08c.4-101.8,14.18-203.47,9.26-305.16"/><path class="cls-9" d="M91.49,225.77l2.78-.05,0-5.89,3.76,0a19.61,19.61,0,0,1-.39-6.83l3.9.08c-.82-2-.28-4.43-1-6.52a11.86,11.86,0,0,0-1.27-2.35l-8.85-13.7a3.84,3.84,0,0,0-1.12-1.28,3.78,3.78,0,0,0-1.79-.46c-6-.57-12.07-1.14-18.12-1.19-2.69,0-5.37.07-8.06.16l-30.9,1,.92,5.45a4.79,4.79,0,0,0,.47,1.63c.5.9,1.52,1.42,2.08,2.28,1.2,1.87-.14,4.45.61,6.54.54,1.53,2.06,2.45,3.07,3.71a6.57,6.57,0,0,1,1.06,6.16,8.12,8.12,0,0,1,3.46,1.84"/><path class="cls-9" d="M33.91,197.19a370.58,370.58,0,0,1,45.93-1.08,35.22,35.22,0,0,1,5.9.59,4.86,4.86,0,0,1,1.75.65,5.51,5.51,0,0,1,1.29,1.43q4.78,6.76,8.91,14"/><path class="cls-9" d="M39.35,205.54q22.17-.28,44.33.48a2.29,2.29,0,0,1,2.25,1.22q4.59,6.24,8.94,12.65"/><path class="cls-9" d="M43.08,215.08a50.57,50.57,0,0,1,14.21-.91c3.06.24,6.1.76,9.16.85,4.83.15,9.69-.78,14.47-.12a4,4,0,0,1,1.44.39,4.79,4.79,0,0,1,1.31,1.23l7.89,9.71"/><path class="cls-9" d="M93.14,192.48a144.74,144.74,0,0,1,.78-30.15l3.67.09c-1.49-2.44.89-6.13,3.73-5.79l-.16-5.93,4.58.25c1.22-4.45-.94-9.07-3-13.18l-9.89-19.35a175.3,175.3,0,0,0-42.33.51c-5,.67-10.09,1.56-15.13,1a8.79,8.79,0,0,0,.56,9.06c.89,1.24,2.14,2.32,2.42,3.82s-.4,2.88.13,4.18a7.54,7.54,0,0,0,1.62,2,7.75,7.75,0,0,1,1.56,7.63,4.79,4.79,0,0,1,4,3.18,14,14,0,0,1,.7,5.35l0,33"/><path class="cls-9" d="M46.8,146.6a189.89,189.89,0,0,1,37.31.73,4.88,4.88,0,0,1,2,.55,5,5,0,0,1,1.43,1.65q3.73,5.94,7.06,12.11"/><path class="cls-9" d="M40.84,138.89a207.75,207.75,0,0,1,41.27-.69,12.88,12.88,0,0,1,5.83,1.47,12.26,12.26,0,0,1,3.29,3.51,98.61,98.61,0,0,1,8.34,14.12"/><path class="cls-9" d="M37.71,129.27Q62,127.37,86.46,127.1a9.45,9.45,0,0,1,4,.53c1.69.74,2.79,2.36,3.8,3.9l5.11,7.77c2.21,3.37,4.51,7.06,4.24,11.08"/><path class="cls-9" d="M47.68,118.92q1.14-25.61,3.38-51.17"/><path class="cls-9" d="M83,117.32a50.65,50.65,0,0,1,12.17-11.51c16-11.12,35.95-14.84,55.23-18,8.22-1.34,16.6-2.62,24.84-1.41,4.74.69,9.47,2.21,14.23,1.66,2.86-.32,5.58-1.39,8.41-1.94,4.76-.94,9.69-.42,14.52.1l16.75,1.82c9.21,1,18.51,2,27.3,4.93a65.78,65.78,0,0,1,32.17,23.48"/><path class="cls-9" d="M60,106.2a39.55,39.55,0,0,1,7.44-7.8A148.25,148.25,0,0,1,133,66.3"/><path class="cls-9" d="M244.33,64.76c8.26,3.16,17.26,3.74,25.81,6a68,68,0,0,1,43.76,36.92l-12.47,8.94"/><path class="cls-9" d="M60.35,105.57a14.06,14.06,0,0,1,3.18,1.74L80,118.2"/><path class="cls-9" d="M180.84,86.56A65.87,65.87,0,0,0,176,65"/><path class="cls-9" d="M192.89,87.2a28.82,28.82,0,0,1,1.86-9.07L199,64.93"/><path class="cls-9" d="M98.37,127.34c4.68-5.87,12.37-8.25,19.58-10.32l18.82-5.42c3.12-.89,6.25-1.79,9.44-2.39a101,101,0,0,1,10.42-1.2c17.9-1.45,35.89-2.9,53.81-1.59,7.2.53,14.37,1.51,21.52,2.48,3.26.44,6.51.88,9.73,1.56a69,69,0,0,1,33.66,17.89"/><path class="cls-9" d="M51.5,66.13l198.66-3.2c22-.35,44-.7,66-.3"/><path class="cls-9" d="M324.46,70.54q.63,23.26,1.94,46.51"/><path class="cls-9" d="M313,37.53c.29,4.57-1.63,9-1.68,13.58A17,17,0,0,0,318,64.66c2.85,2.12,6.48,3.44,8.35,6.46A7.89,7.89,0,0,1,324.76,81"/><path class="cls-9" d="M322.75,36l-1,9.31c-.23,2.21-.46,4.52.33,6.59a14.26,14.26,0,0,0,4.05,5.1c4.69,4.29,9.77,9.16,10.28,15.49C336.76,76.84,334.84,81,333,85l-7,14.81"/><path class="cls-9" d="M333.44,64.23l9.33,1,3.86-13.54a10.84,10.84,0,0,1,3.58.49,114.74,114.74,0,0,1,13.37-30C367.76,15.6,372.84,8.6,372,.83,366.31,2,360.49,2,354.7,2L315.5,2c-8,0-16.07,0-24.07-.66-4.77-.4-9.55-1-14.33-.75-6.85.42-13.51,2.74-20.38,2.89A64.09,64.09,0,0,1,244,2.06c-19.51.06-39.79.72-59.3.78l-22.45.06L136.47,3,96,3.11c-6.55,0-13.1,0-19.65.18-6.84.14-13.68.42-20.53.56A540.62,540.62,0,0,1,.59,2.21C2,11.79,5.06,21.5,11.18,29a16.77,16.77,0,0,1,2.28,3.22,7.31,7.31,0,0,1,.62,4.25c3.29,2.46,4,7,5.59,10.8C23,55.16,31,60.48,33.78,68.59a90.93,90.93,0,0,1,12.35-.66c1.57,0,3.44.26,4.17,1.66"/><path class="cls-9" d="M50,67.12a4.12,4.12,0,0,1-2.64-3.76,12.07,12.07,0,0,1,1-4.75"/><path class="cls-9" d="M55.79,48.83c.42,1.63-.13,3.35,0,5s1.7,3.5,3.26,2.86"/><path class="cls-9" d="M47.36,49.92a5.49,5.49,0,0,0,3.83,7.46"/><path class="cls-9" d="M64.42,49.79l-.07,5.32a3.52,3.52,0,0,0,.26,1.71c.72,1.36,2.68,1.22,4.18.88"/><path class="cls-9" d="M72.89,49.17l0,5.46a3,3,0,0,0,.23,1.44c.59,1.16,2.25,1.1,3.53.86"/><path class="cls-9" d="M81.37,49.48a46.82,46.82,0,0,0,.37,7.85"/><path class="cls-9" d="M89.54,49.48v5.34"/><path class="cls-9" d="M98,48.85v6.6"/><path class="cls-9" d="M106.2,49.17v6.91"/><path class="cls-9" d="M115,49.48v7.23"/><path class="cls-9" d="M123.16,49.17l0,7.49a5.74,5.74,0,0,1,2.45.75"/><path class="cls-9" d="M131.45,48.87c.54,1.4.17,3,.09,4.46s.3,3.26,1.66,3.88"/><path class="cls-9" d="M140.44,48.22l.05,8.15,1.22,0"/><path class="cls-9" d="M148.63,48.85v6.92"/><path class="cls-9" d="M157.43,48.22v7.55"/><path class="cls-9" d="M165.92,48.54v6.6"/><path class="cls-9" d="M174.4,48.22v6.92"/><path class="cls-9" d="M182.57,48.54v7.54"/><path class="cls-9" d="M190.76,48.22l0,5.61a3.23,3.23,0,0,0,.17,1.35,1.78,1.78,0,0,0,2.56.74"/><path class="cls-9" d="M199.9,47.91a44.54,44.54,0,0,0,.21,7.83l3.52,0"/><path class="cls-9" d="M208.32,47.92c-.43,1.94-.84,4-.19,5.89s2.82,3.39,4.65,2.59"/><path class="cls-9" d="M216.83,47.91v6.91"/><path class="cls-9" d="M225.38,48.55a11.52,11.52,0,0,0,.79,6.63"/><path class="cls-9" d="M233.8,47.91v6.28"/><path class="cls-9" d="M242,47.91a34.76,34.76,0,0,0,.15,6.61"/><path class="cls-9" d="M250.7,48.23l.36,6.28"/><path class="cls-9" d="M259,47.59v6.29"/><path class="cls-9" d="M267.47,47.91a29.25,29.25,0,0,0,.21,6.61"/><path class="cls-9" d="M276.14,47l.76,5.64"/><path class="cls-9" d="M285.38,47.6a41.71,41.71,0,0,0,.16,7.24"/><path class="cls-9" d="M293.87,47.28a33.29,33.29,0,0,0,.12,6"/><path class="cls-9" d="M302.32,46.65a27.74,27.74,0,0,0,.56,6.62"/><path class="cls-9" d="M325.58,55.14l3.44,0-.67-7.89a12.76,12.76,0,0,0,6.92-7c5.69.11,9.94-5.88,15.62-6.36a10.31,10.31,0,0,0,3.61-.47,4.72,4.72,0,0,0,2.31-4.09,40.58,40.58,0,0,0-.38-4.91,1.83,1.83,0,0,1,.4-1.5c.35-.32.88-.33,1.32-.54,1.21-.56,1.24-2.22,1.47-3.54.4-2.29,1.91-4.21,3.37-6L372.15,1.4"/><path class="cls-9" d="M330.9,61A25.9,25.9,0,0,1,340,59.58,227,227,0,0,1,351.3,34.85"/><path class="cls-9" d="M47.68,65.5l-7.61-1.09a11.52,11.52,0,0,0-5.75.15C32.69,58.15,27.88,53,25.42,46.9,24,43.24,23.19,39,20.19,36.47"/><path class="cls-9" d="M47.61,60.32A45.91,45.91,0,0,1,39,45c48.45-1.41,96.91-1.75,145.37-2.09L248,42.44,312.06,42"/><path class="cls-9" d="M323.38,41.31A75.48,75.48,0,0,0,335,40.73"/><path class="cls-9" d="M47.43,48.84Q179,46.77,310.49,46"/><path class="cls-9" d="M322.78,45.9a23.7,23.7,0,0,0,5.63.62"/><path class="cls-9" d="M15,34.87l150.86-1.79,189.86-2.26"/><path class="cls-9" d="M13.48,21.83q172.71.45,345.42-1.62"/><path class="cls-9" d="M2.74,8.56,86.53,7.23c20.52-.32,41-.65,61.55,0,13.09.4,26.17,1.19,39.27.89,12-.27,23.87-1.45,35.82-2.14,48.52-2.82,97.33,2.35,145.74-2"/><path class="cls-9" d="M40,45.37l-4.48-2c-6.65-3-13.33-6-20.4-7.73"/><path class="cls-9" d="M14.29,22.05V36"/><path class="cls-9" d="M13.23,23.26C11.83,18.7,8.59,15,5.43,11.41L2.48,8.07"/><path class="cls-9" d="M282,160.47l-2.75-.27a.73.73,0,0,1-.47-.15.81.81,0,0,1-.18-.51l-.48-4.92-3.46-.34.54-4.79-4.46-.32c.2-2.21-.12-5.62.51-7.74a232.9,232.9,0,0,1,8.6-24l58.37-1.4c1,5-.93,10-2.81,14.7l-3.24,8.08a88.78,88.78,0,0,1-5.12,11.28"/><path class="cls-9" d="M281.86,159.12a43.36,43.36,0,0,0,5.3-11,3.43,3.43,0,0,1,.69-1.42,3.35,3.35,0,0,1,2.22-.7q18.44-1.22,36.88-2.11c.12,2.86.18,5.71.24,8.56l.74,33.87"/><path class="cls-9" d="M287.89,186.34l.24-14.72.42-24.9"/><path class="cls-9" d="M282.9,186.81a77,77,0,0,1-.72-21.28,19.51,19.51,0,0,0,0-6.6"/><path class="cls-9" d="M279.39,159.85a24.09,24.09,0,0,1,1.15-4.57l1.32-4.05a33.09,33.09,0,0,1,3.2-7.66,3,3,0,0,1,.75-.88,3,3,0,0,1,1.16-.41c3.69-.69,7.48-.19,11.22-.19,1.85,0,3.69-.13,5.53-.23,4.16-.24,8.34-.37,12.51-.39a15.75,15.75,0,0,1,3.29.23,10.64,10.64,0,0,0,1.47.3,7.49,7.49,0,0,0,1.25-.07,45.69,45.69,0,0,1,8.59.26"/><path class="cls-9" d="M275.4,153.93A56.4,56.4,0,0,1,282.58,134a1.36,1.36,0,0,1,1.7-.82c1.31.16,2.62.37,3.94.46a40.71,40.71,0,0,0,5.52-.14l13.67-.95c2.07-.14,4.14-.28,6.21-.22,2.23.07,4.45.38,6.68.54a99.13,99.13,0,0,0,14.1-.35"/><path class="cls-9" d="M271.41,148.42q4.57-12.51,10-24.7c6.05.37,12.07-1.16,18.14-1.16,3.05,0,6.09.39,9.13.69a164.51,164.51,0,0,0,29.19.29"/><path class="cls-9" d="M277.81,154.29q3.74-9.53,7.76-18.93c2.86.27,5.74.48,8.61.63a24.18,24.18,0,0,0,3.9,0c1.68-.19,3.29-.71,4.94-1a37.43,37.43,0,0,1,7-.36q10.6.16,21.18.73c0,2-.09,3.93-.19,5.9"/><path class="cls-9" d="M274.82,149.06l4-12.92a32.58,32.58,0,0,1,3.72-8.82,2.26,2.26,0,0,1,.84-.84,2.41,2.41,0,0,1,1.13-.15l28.88.7c1,0,2,0,3,0,1.88-.07,3.74-.37,5.61-.58a64,64,0,0,1,13.34-.1,17.3,17.3,0,0,0-.49,5.6"/><path class="cls-9" d="M285.65,143.26a24.3,24.3,0,0,1,.16-5,8.34,8.34,0,0,0,.14-2.68"/><path class="cls-9" d="M283.17,133v-6.21"/><path class="cls-9" d="M280.83,123.91a20.21,20.21,0,0,0-.64-6"/><path class="cls-9" d="M335.42,126.36c-.06-.29.17-.55.38-.76l1.79-1.77"/><path class="cls-9" d="M331.13,135.38a8.09,8.09,0,0,0,2.94-2.54"/><path class="cls-9" d="M327.07,143.84a6.34,6.34,0,0,0,3.16-1.19"/><path class="cls-9" d="M287.92,146.28,286,143.09"/><path class="cls-9" d="M285.81,135.43l-2.45-2"/><path class="cls-9" d="M283.4,126.64a15.88,15.88,0,0,1-2.2-3"/><path class="cls-9" d="M271.05,212.11c.43-2.14-.5-4.36-.19-6.53a11.47,11.47,0,0,1,1-3q3.19-7.22,6.55-14.34a3,3,0,0,1,.79-1.15c.82-.64,2-.26,3-.21a10.43,10.43,0,0,0,2.59-.36c4.57-.92,9.28-.62,13.94-.39q20.07,1,40.16.05l.13,5.9a3.6,3.6,0,0,1-1.13,3.13c-1.56,1.84-3.44,3.83-3.27,6.24a5.51,5.51,0,0,1,.07,1.34,3.47,3.47,0,0,1-.75,1.48l-2.42,3.28a3.41,3.41,0,0,0-.63,1.13,5.17,5.17,0,0,0-.06,1.42,6.2,6.2,0,0,1-4.09,5.82"/><path class="cls-9" d="M281.44,224.43H278c-.17-2.14-.25-4.29-.26-6.43l-2.77.44a26.84,26.84,0,0,1-.46-6.63l-3.26.09"/><path class="cls-9" d="M281.23,224.19c1-3.71,3.39-6.87,5.81-9.87a2.28,2.28,0,0,1,.61-.59,2.37,2.37,0,0,1,.91-.21c7.91-.67,15.86.12,23.79.49a10.12,10.12,0,0,0,3-.17c.75-.2,1.45-.57,2.2-.75a9.18,9.18,0,0,1,2.16-.17h7.74a24.4,24.4,0,0,1-.21,3"/><path class="cls-9" d="M278,217.91a5.13,5.13,0,0,1,1.08-3.11l5.34-8.69a2.18,2.18,0,0,1,.66-.78,2.24,2.24,0,0,1,1.2-.24l40.91-.54a6.11,6.11,0,0,1,3,.49,2.08,2.08,0,0,1,1,2.62"/><path class="cls-9" d="M274.81,211.24,282,196.15a96.74,96.74,0,0,0,9.93,0c11.47-.41,23-1.34,34.4-.19a36.22,36.22,0,0,0,8.88.3l.28,2.66"/><path class="cls-9" d="M278.06,224.2q3.3-6,6.9-11.93a1.25,1.25,0,0,1,.41-.47,1.2,1.2,0,0,1,.59-.11c4.43,0,8.88.42,13.27-.13,2.83-.35,5.69-1.12,8.51-.66a29.5,29.5,0,0,0,3.82.71,19.84,19.84,0,0,0,3.74-.54c5-.83,10.09,1,15.13.5"/><path class="cls-9" d="M274.78,218l6.71-13.44a3.15,3.15,0,0,1,.7-1,3.19,3.19,0,0,1,1.16-.51,19.57,19.57,0,0,1,4.59-.92,32.71,32.71,0,0,1,6.12.75,51.64,51.64,0,0,0,5.56.44,96.09,96.09,0,0,0,13.68,0c1.91-.18,3.81-.48,5.73-.66,2.32-.21,4.66-.24,7-.27l4.37-.06a7.62,7.62,0,0,1,3.8.62"/><path class="cls-9" d="M271.56,211.19a10,10,0,0,1,1.24-3.35q3.58-7,7.59-13.76a269.29,269.29,0,0,1,31.38-.42,34.66,34.66,0,0,0,4.78,0c1.72-.17,3.41-.62,5.13-.71,2.77-.14,5.5.63,8.24,1a28.7,28.7,0,0,0,8.53-.1"/><path class="cls-9" d="M282,203.25l0-4.22a4.14,4.14,0,0,1,.08-1,6.36,6.36,0,0,0,.45-1.61"/><path class="cls-9" d="M285.51,211.91c0-2.08,0-4.15,0-6.22"/><path class="cls-9" d="M279.94,193.78l-.13-6.83"/><path class="cls-9" d="M285.3,205.17a5.76,5.76,0,0,1-3.12-1.74"/><path class="cls-9" d="M282.05,196.33a4,4,0,0,1-1.64-1.84"/><path class="cls-9" d="M335.36,196.26a8.9,8.9,0,0,1,3.21-2.1"/><path class="cls-9" d="M330.43,204.67a11,11,0,0,0,3.86-1.25"/><path class="cls-9" d="M327.7,212.78a2.77,2.77,0,0,0,2.53-.57"/><path class="cls-9" d="M327.31,214.7c-1.42,64.52.57,129.06,2.56,193.55q.54,17.69,1.09,35.35c.29,9.55.59,19.1,1.61,28.59,1.7,15.74,5.38,31.78,1.78,47.2"/><path class="cls-9" d="M287.87,215.28c-1.11,16.68-2.22,33.44-.79,50.1.69,8,2,15.94,1.88,23.95,0,5.46-.73,10.89-1,16.35-.35,6.66-.13,13.34.09,20q3.18,96.6,6.38,193.21"/><path class="cls-9" d="M280.89,223.54q1.77,52,.49,104c-.23,9.31-.53,18.68.87,27.89,1,6.46,2.8,12.79,3.32,19.3.62,7.65-.55,15.31-1.18,23-.69,8.41-.73,16.86-.77,25.29-.14,29.12-.28,58.34,3.19,87.25"/><path class="cls-9" d="M85.66,475.9a69.32,69.32,0,0,0,8.76.61"/><path class="cls-9" d="M134.9,455.7q55.51-3.17,111.16-1.59"/><path class="cls-9" d="M242,468.13a29.92,29.92,0,0,0,5.3,10.08l-75.85,3c-12.91.51-25.92,1-38.7-.88,4.72-8.72,5.62-11.85,15.5-12.32,10.42-.5,20.83-1,31.26-1.25s20.84-.19,31.26,0C213.8,466.88,241.45,466.3,242,468.13Z"/><path class="cls-9" d="M244.59,467.7h3.9"/><path class="cls-9" d="M140.25,468.19h-6.82"/><path class="cls-9" d="M245.56,467.72a12.61,12.61,0,0,0-3.47.13"/><path class="cls-9" d="M283.85,484.41a43.83,43.83,0,0,1-27.86.28,2.37,2.37,0,0,1-1.37-.85c-.41-.65-.12-1.49-.2-2.25a5.21,5.21,0,0,0-1.18-2.37c-5.37-7.63-5.69-17.59-5.81-26.92a2.15,2.15,0,0,1,.41-1.6,2,2,0,0,1,.85-.44,48.75,48.75,0,0,1,16.48-2.49"/><path class="cls-9" d="M272.39,449.05a14.83,14.83,0,0,1,4,.27c.84.17,1.67.41,2.5.6a19,19,0,0,0,5.42.43"/><path class="cls-9" d="M283,453.8a66.72,66.72,0,0,1-15.2.9c-1.3-.07-2.6-.19-3.89-.3a42.7,42.7,0,0,1-4.51-.55c-1.47-.29-2.91-.75-4.4-.94-2.29-.28-4.83,0-6.68-1.35"/><path class="cls-9" d="M248.05,454.83a82.84,82.84,0,0,0,9.36,1.61c2.53.24,5.08.24,7.62.23q6.93,0,13.86-.15a11,11,0,0,0,4.78-.83"/><path class="cls-9" d="M254.69,481.16c.87.27,1.73.54,2.61.77a53.36,53.36,0,0,0,7.12,1.16,57.47,57.47,0,0,0,9.26.6A29.26,29.26,0,0,0,282,482.1a1.91,1.91,0,0,1,.78-.16,1.27,1.27,0,0,1,1,1.16,3.62,3.62,0,0,1-.32,1.61"/><path class="cls-9" d="M283,481.92a1.45,1.45,0,0,1,.46-1.06,3.61,3.61,0,0,0,.73-.94"/><path class="cls-9" d="M127.34,481.73a3.37,3.37,0,0,1-2.21,4.42c-.52.12-1.06.11-1.59.2-1.4.25-2.59,1.17-4,1.61a11.8,11.8,0,0,1-3.13.41,69.6,69.6,0,0,1-14.07-.36,5.19,5.19,0,0,1-1.93-.61,2.89,2.89,0,0,1-.74-4,15.6,15.6,0,0,1-1.44-2.16A55.32,55.32,0,0,1,93.4,469c-.83-2.83-1.57-5.89-.59-8.66a3.14,3.14,0,0,0,.33-1.83,4,4,0,0,0-.67-1.07A3.78,3.78,0,0,1,92,454a70.29,70.29,0,0,1,20.35-3.91"/><path class="cls-9" d="M119,449.88a28.7,28.7,0,0,1,13.52,1.65,5.84,5.84,0,0,1,2,1.14,2.27,2.27,0,0,1,.72,2.11,16,16,0,0,1-.93,1.72,5.29,5.29,0,0,0,0,2.71c.43,3.28-.47,6.58-1.51,9.72a97.88,97.88,0,0,1-5.5,13.17"/><path class="cls-9" d="M134.65,455.78c-3.36,1.45-7.05,1.89-10.68,2.32l-3.56.42a48,48,0,0,1-6.55.47c-1.67,0-3.34-.24-5-.27s-3.55.13-5.32.09c-3.58-.08-7.1-1-10.67-1.09"/><path class="cls-9" d="M100,483.29c.88-.09,1.64.56,2.44.93a8.2,8.2,0,0,0,3.27.52c2.48.06,5,.11,7.43.11a27.38,27.38,0,0,0,5.65-.43,25.75,25.75,0,0,0,2.69-.78,47.76,47.76,0,0,1,5.85-1.83"/><path class="cls-9" d="M132.74,451.62a1.05,1.05,0,0,1-.13,1.34,3.14,3.14,0,0,1-1.26.74,21.42,21.42,0,0,1-5.66,1.63c-1.5.15-3,0-4.52.2-.7.11-1.39.29-2.09.4a18.52,18.52,0,0,1-3.57.12l-8.3-.24c-3.68-.1-7.36-.21-11-.59a2.83,2.83,0,0,1-1.38-.39,1,1,0,0,1-.35-1.27"/><path class="cls-9" d="M115.87,341.64a498.7,498.7,0,0,1,1.28-78.35c2.35-24.72-.93-50.09-1.34-74.92a139.81,139.81,0,0,0-.8-15.18c-1.27-10-4.67-19.55-8.06-29a113.13,113.13,0,0,0-7-16.77"/><path class="cls-9" d="M260.89,379.75q-1.35-58.24,0-116.51"/><path class="cls-9" d="M124,347.14q-.24-17.43-.37-34.87l-.29-32.71c-.35-38.49-.69-77,0-115.48a41.64,41.64,0,0,0-.42-8.5,43.72,43.72,0,0,0-1.86-6.2,284.37,284.37,0,0,1-8.6-29.77"/><path class="cls-9" d="M257.25,377.18l-.83-107"/><path class="cls-9" d="M256.16,241.62A108.75,108.75,0,0,0,255,220.75"/><path class="cls-9" d="M254.79,188.86l-.56-25.75a79.76,79.76,0,0,1,.31-11.57c.75-6,2.85-11.76,4.94-17.44l4.85-13.19"/><path class="cls-9" d="M259.85,189.61A249.34,249.34,0,0,1,267.68,137c1-3.8,2.28-7.88,5.49-10.15"/><path class="cls-9" d="M254.3,154.69c-15.58-2.62-31.37,3.35-47.15,2.77-4.87-.17-9.7-1-14.55-1.51-12.82-1.42-25.76-.95-38.65-.49l-30.39,1.09"/><path class="cls-9" d="M259.84,241.25a209.48,209.48,0,0,0-1.58-30.76"/><path class="cls-9" d="M277.14,190.34l-23,.34c-.18,1.13-.91,1.82-1.43,2.84a11.7,11.7,0,0,0-.86,2.54l-2.45,9.59"/><path class="cls-9" d="M250.08,209.62q2.08-5.87,4.67-11.53a2.65,2.65,0,0,1,.74-1.11,2.83,2.83,0,0,1,1.63-.36l17.41-.16"/><path class="cls-9" d="M251.84,215.41,256,204a1.25,1.25,0,0,1,1.56-1.05,69.7,69.7,0,0,0,14.29-.58"/><path class="cls-9" d="M253.47,220.75c.16-3.55,3.34-6.27,4.19-9.72a3.28,3.28,0,0,1,.48-1.31A2.74,2.74,0,0,1,260,209c3.51-.45,7.1-.9,10.58-.23"/><path class="cls-9" d="M256.09,203.13a14.65,14.65,0,0,0-.51-5.43"/><path class="cls-9" d="M255,247.19a18.91,18.91,0,0,0-.21-4.63"/><path class="cls-9" d="M257.77,210.24a9.29,9.29,0,0,0-.29-3.81l-.56-2.49"/><path class="cls-9" d="M254.52,197.71a21,21,0,0,0-.46-6.32"/><path class="cls-9" d="M253.82,220.51a30.58,30.58,0,0,1-.83-4.93l-.93-.16"/><path class="cls-9" d="M252,214.54a9.52,9.52,0,0,0-1.64-5.2,6.51,6.51,0,0,0-.58-4"/><path class="cls-9" d="M253.52,220.53a3.3,3.3,0,0,1,1.36.22"/><path class="cls-9" d="M254.77,242.18a237.45,237.45,0,0,0,26.54-.8"/><path class="cls-9" d="M281.33,260.64l-22.09.75a2.15,2.15,0,0,0-1,.2,2.07,2.07,0,0,0-.74,1.11L255.09,269"/><path class="cls-9" d="M253.13,263.33c1.32-2.64,2.5-5.35,3.56-8.1a242.51,242.51,0,0,1,24.85-.93"/><path class="cls-9" d="M281.41,247.44c-8.62,2.31-18.12-1.77-26.56,1.12a37.85,37.85,0,0,0-3.72,9.39"/><path class="cls-9" d="M254.71,268.87a22.58,22.58,0,0,1-1-5.41"/><path class="cls-9" d="M258,261.09a10.82,10.82,0,0,0-.57-5.29"/><path class="cls-9" d="M252.62,263.2c-.51-.05-.77-.63-.91-1.13a16.13,16.13,0,0,1-.54-4.48"/><path class="cls-9" d="M256.42,255.43a33.31,33.31,0,0,1-.42-6.31"/><path class="cls-9" d="M250.75,257.52a.6.6,0,0,1-.87-.12,1.83,1.83,0,0,1-.26-.95,11.72,11.72,0,0,1,.07-3.45,11,11,0,0,1,.85-2.21l3.92-8.49"/><path class="cls-9" d="M136.75,451.69a75.23,75.23,0,0,0,13.51.17c13.05-.54,26.11-.51,39.17-.48,6.71,0,13.43,0,20.13.33,4.8.22,9.64.58,14.38-.2,2.57-.42,4.8-.29,6-2.46s0-8.2,0-10.69v-67.1c0-6.27,0-12.56-.46-18.82-.55-7.6-1.78-15.15-1.84-22.77-.05-6.45.73-12.87,1.08-19.31.4-7.26.25-14.53.1-21.79L228,250.13"/><path class="cls-9" d="M230.14,450.3a32.67,32.67,0,0,0,7.2,1.48,233.59,233.59,0,0,0-1.4-43.36c-.42-3.35-.9-6.83.14-10.05"/><path class="cls-9" d="M236.14,386.89q-1.94-82-1.9-164.12a222.34,222.34,0,0,0-33.94.64c-6,.57-12,1.39-18,1.17-5.19-.18-10.32-1.13-15.5-1.45a127.61,127.61,0,0,0-17.59.54l-18.59,1.42a189.62,189.62,0,0,1,.92,44.22c-.57,5.88-1.41,11.75-1.52,17.66s.53,11.7.78,17.55c.61,13.87-.9,27.74-2.4,41.54"/><path class="cls-9" d="M130,385.45a22.1,22.1,0,0,1-.44,4.66"/><path class="cls-9" d="M130,411.72v9.36"/><path class="cls-9" d="M129.39,433.32,129,448.79"/><path class="cls-9" d="M143.12,418.59c10.62.19,21.24.22,31.86.26l24.56.07c8.15,0,16.4,0,24.31-1.9"/><path class="cls-9" d="M136.38,452a174.93,174.93,0,0,1-.17-23.46"/><path class="cls-9" d="M136.37,420.47l.22-14"/><path class="cls-9" d="M136.78,378.59l.24-15.46.66-43.52.16-10,.63-41.74c.09-5.85-1.11-11.69-1.6-17.52,7.72.55,15.45-.53,23.18-.79,14-.46,28,1.76,42,1.1,9.66-.46,19.45-2.28,28.91-.28a141.16,141.16,0,0,0-1.46-22.59c-7.17,2.29-14.91-.3-22.42,0-2.54.1-5.05.53-7.57.84a163.22,163.22,0,0,1-19.66.8H168.61c-11.21,0-22.42,0-33.62-.54a162.73,162.73,0,0,0-.45,22.19"/><path class="cls-9" d="M197.07,231.62a80.32,80.32,0,0,1,10.75.09c5.65.55,11.35,2.28,16.91,1.11l.31,12.37-27,1.67c-5,.31-10.09.62-15.14.43-3.11-.11-6.21-.41-9.31-.59-4.28-.25-8.57-.28-12.85-.31l-20.24-.12c.38,0-.23-11.5,2.31-12.68,2.09-1,6.35-.28,8.67-.37l9.12-.32Z"/><path class="cls-9" d="M142.93,256,145,373"/><path class="cls-9" d="M143.13,407.53l1.7,11.6"/><path class="cls-9" d="M223.23,416.81l-1.57-160.17c-8.72-1.79-17.72-1.41-26.62-1l-51.62,2.26"/><path class="cls-9" d="M235.21,222.94a50.24,50.24,0,0,1,12.09-1.45q0-10.55-1-21c-20.13-.73-40.37-1.44-60.35,1.18-4.79.62-9.6,1.45-14.44,1.22-3.66-.17-7.27-.95-10.92-1.26-12.21-1-24.8,3.14-36.6-.17"/><path class="cls-9" d="M123.82,222.82l8.83,1.14"/><path class="cls-9" d="M138.93,358.28c.57-.73,1.84-.4,2.33.38a4.39,4.39,0,0,1,.37,2.69l-.62,8c-.08,1.05-.39,2.36-1.42,2.54-1.4.25-2-1.73-1.91-3.14L138,359"/><path class="cls-9" d="M153.57,285.79a121,121,0,0,1,11.23-13"/><path class="cls-9" d="M152.51,296.49c.86-2.8,3.58-4.51,5.53-6.7,3-3.3,4.28-8,7.72-10.75a28.14,28.14,0,0,1,5.37-3,39.9,39.9,0,0,0,8-5.32"/><path class="cls-9" d="M161.81,295.94a100.84,100.84,0,0,1,16.42-17.68"/><path class="cls-9" d="M158.77,314.71,188,281.86c3.81-4.28,7.7-8.63,12.6-11.6"/><path class="cls-9" d="M165.52,326.84a10.67,10.67,0,0,1,2.18-4.19,88.63,88.63,0,0,1,24.15-22.37"/><path class="cls-9" d="M157.47,353.13c9.34-10.56,20.09-19.79,30.8-29l18.28-15.68"/><path class="cls-9" d="M186.88,344.36A104.38,104.38,0,0,1,205,323.65"/><path class="cls-9" d="M183,362.24a338.72,338.72,0,0,1,30.42-32.51"/><path class="cls-9" d="M174,391.49a428.43,428.43,0,0,1,37.95-38"/><path class="cls-9" d="M157.12,399.5c1.69-5.72,6.76-9.65,11.23-13.61a101.51,101.51,0,0,0,13-14"/><path class="cls-9" d="M161.09,381.85a388.51,388.51,0,0,1,22.5-32.42"/><path class="cls-9" d="M181.71,407.58a350.15,350.15,0,0,1,24-26.79"/><path class="cls-9" d="M203,408.87q8.07-10.69,17.08-20.65"/><path class="cls-9" d="M150.9,241.6a13.41,13.41,0,0,1,4.12-4.26"/><path class="cls-9" d="M159.54,245.08l12.74-9.57"/><path class="cls-9" d="M174.07,244.21A36.49,36.49,0,0,0,184.48,237"/><path class="cls-9" d="M188.23,244.06a87.07,87.07,0,0,0,9.63-6.75"/><path class="cls-9" d="M311.74,39a4.28,4.28,0,0,1-2.32-.26,21.09,21.09,0,0,1,11.05-3.59c1.34,0,3.1.43,3.14,1.77"/><path class="cls-10" d="M245.28,467.23l-.81-12.52"/><path class="cls-9" d="M237.84,451.72l5.18-.29c.72.86,1.84,2,2.56,2.87"/><path class="cls-10" d="M245.4,454.7v13.4"/><path class="cls-9" d="M177.37,424.26c11.17-.33,22.36-.66,33.53-.17,4.16.19,8.32.49,12.48.79a52.61,52.61,0,0,1-.66,15.39l-26.51.09a181.18,181.18,0,0,0-22.71,1c-4.07.52-8.13,1.33-12.24,1.3-3,0-6.11-.51-9.14-.13s-6.1,1.58-8.84.36a2.18,2.18,0,0,1-1.13-1,2.67,2.67,0,0,1-.19-1c-.22-4-1.24-9.56-.19-13.44.94-3.5,5.79-2.36,8.73-2.45Z"/></g><g id="lines"><path class="cls-9" d="M46.9,434l12.58.48c3.6.14,7.3.27,10.74-.82"/><path class="cls-9" d="M51.71,400.21l.09-9.41a66.1,66.1,0,0,0,18.37.14"/><path class="cls-9" d="M64.84,434.66v7.28"/><path class="cls-9" d="M54.16,477.38,75,476.75"/><path class="cls-9" d="M63.87,486.58v8.24"/><path class="cls-9" d="M64.84,476.87v-8.73"/><path class="cls-9" d="M49.8,484.63V479.3"/><path class="cls-9" d="M48.87,502.58a37.68,37.68,0,0,1,.27-8.75"/><path class="cls-9" d="M58.06,495,77,493.23"/><path class="cls-9" d="M62.9,399.73h16"/><path class="cls-9" d="M65.32,339.61a65.22,65.22,0,0,1,13.1.48"/><path class="cls-9" d="M65.86,373.52a27.89,27.89,0,0,1,.22-7.3"/><path class="cls-9" d="M49.31,299.66l23.77.69"/><path class="cls-9" d="M42.53,283.12l15,1.25"/><path class="cls-9" d="M72.6,283.29h7.28"/><path class="cls-9" d="M54.16,299.78v-8.25"/><path class="cls-9" d="M54.16,283.77v-7.28"/><path class="cls-9" d="M45,252.1l33.47.71"/><path class="cls-9" d="M45.91,244h17"/><path class="cls-9" d="M56.59,228.81l23.78.4"/><path class="cls-9" d="M54.65,251.26V245"/><path class="cls-9" d="M50,573.24l0-8.82-14.35,2.19"/><path class="cls-9" d="M43.7,555.64a44.25,44.25,0,0,0,13.91-1"/><path class="cls-9" d="M323.11,577.29l.06-4.44a31.32,31.32,0,0,0,11.11-1.68"/><path class="cls-9" d="M307.82,560.64h20.7"/><path class="cls-9" d="M335.27,510.1l-28.25.64,1,7.12"/><path class="cls-9" d="M330.77,491.79A87.82,87.82,0,0,0,307,494l-.14,5"/><path class="cls-9" d="M321.35,458.94c-.2-2.86-.51-5.72-.93-8.56a131.94,131.94,0,0,1-15.26-1.28l-.05-5.45"/><path class="cls-9" d="M321.77,491.34v-7.19"/><path class="cls-9" d="M318.62,424.75v-7.2"/><path class="cls-9" d="M318.75,407.2l-.5-6.84q-6.12.18-12.23.08"/><path class="cls-9" d="M328.07,358.59c-8.85.82-17.9-3.37-26.49-1.09a13.14,13.14,0,0,1,.82,6.05"/><path class="cls-9" d="M296.56,349.41c9.36-1.63,19,2.28,28.39.93"/><path class="cls-9" d="M289.82,332.51h20.25"/><path class="cls-9" d="M289.38,316.36a117.52,117.52,0,0,1,17.09.41"/><path class="cls-9" d="M300.63,308.5l27.44.56"/><path class="cls-9" d="M324.92,300.56H302.3a2,2,0,0,1-1.26-.3,1.89,1.89,0,0,1-.43-1.51l0-7.19"/><path class="cls-9" d="M302,309.11v7.2"/><path class="cls-9" d="M320.87,283.91H307.82"/><path class="cls-9" d="M322.67,260.14l-27-.63"/><path class="cls-9" d="M301.07,237.57v-4.95"/><path class="cls-9" d="M317.72,252.39a35.63,35.63,0,0,0,9-.46"/><path class="cls-9" d="M314.61,220.47a26.46,26.46,0,0,0,.27,7.22"/><path class="cls-9" d="M316.82,357.71V351"/><path class="cls-9" d="M307.82,375.26h17.1"/><path class="cls-9" d="M150.61,86.35q-1.17-10.09-1.89-20.23"/><path class="cls-9" d="M225.44,107.08a69,69,0,0,0-.18-10.37"/><path class="cls-9" d="M258.56,116.06l.93-11.24"/><path class="cls-9" d="M270.32,121.45A16.14,16.14,0,0,1,275,113"/><path class="cls-9" d="M166.08,106.18,165,95.85"/><path class="cls-9" d="M145.05,108.43l-.55-11.7"/><path class="cls-9" d="M107.27,121.45a16.73,16.73,0,0,0-3.35-7.11"/><path class="cls-9" d="M101.33,124.6a44.24,44.24,0,0,1-4.63-8.93"/><path class="cls-9" d="M203,106.63V97.18"/><path class="cls-9" d="M252.05,111.58a23.56,23.56,0,0,1,1-9.4"/><path class="cls-9" d="M175.2,91.73l-2.32-4.92"/><path class="cls-9" d="M152.71,94.45l-1.39-5.84"/><path class="cls-9" d="M116.53,102.59a18.88,18.88,0,0,0-1.65-5.45"/><path class="cls-9" d="M94,114.22a11.37,11.37,0,0,0-.8-3.37,11.61,11.61,0,0,0-3.65-3.93l-9.25-7.24"/><path class="cls-9" d="M157.23,91.26a19.2,19.2,0,0,1-1.87-11.61"/><path class="cls-9" d="M275,107.08a5,5,0,0,1,1.78-4.51"/><path class="cls-9" d="M211.12,93.13a17,17,0,0,1,.3-5.87"/><path class="cls-9" d="M251.26,90.4a57.8,57.8,0,0,1,5.37-19.71"/><path class="cls-9" d="M276.57,102a65.06,65.06,0,0,1,15.58-14.58"/><path class="cls-9" d="M261.05,98.08a6.5,6.5,0,0,1,.38-3.62"/><path class="cls-9" d="M270.72,90.39A20.88,20.88,0,0,1,278.22,78"/><path class="cls-9" d="M288.3,104.68A25.61,25.61,0,0,1,302,96.87"/><path class="cls-9" d="M90.82,82.42,97.9,93"/><path class="cls-9" d="M324.48,90l-9.14.07a4,4,0,0,1-1.73-.23c-1.73-.78-1.55-3.27-1.08-5.11"/><path class="cls-9" d="M315.47,113.38h9"/><path class="cls-9" d="M274.55,71.28a69.34,69.34,0,0,1,13.36-.42,14.26,14.26,0,0,1,0,6.9"/><path class="cls-9" d="M299.23,69.72a5.93,5.93,0,0,0-.79-4.53"/><path class="cls-9" d="M305.13,76.37l19.34.63"/><path class="cls-9" d="M65.28,86.12q-8.07-.8-16.18-1.23"/><path class="cls-9" d="M64.1,64.83a25.42,25.42,0,0,0-1.1,7.6c-3.65-1-7.88-.86-11.65-1"/><path class="cls-9" d="M48.2,93.55l11.63-.47.09,6.8c-3.6,0-7.67.9-11.27.9"/><path class="cls-9" d="M58.1,108h-9"/><path class="cls-9" d="M59.44,116.07l-10.79.58"/><path class="cls-9" d="M60.39,93.77a21.75,21.75,0,0,1,11.24.15"/><path class="cls-9" d="M88.24,72.88v-7.2"/><path class="cls-9" d="M82.38,160.84q-15.94-.89-31.94-.38"/><path class="cls-9" d="M81.92,175.78a64.22,64.22,0,0,1-18-.8c-2.72-.51-5.64-1.18-8.15,0"/><path class="cls-9" d="M84.63,183.92a97.59,97.59,0,0,1-20.71-.64"/><path class="cls-9" d="M72.94,167.37V162"/><path class="cls-9" d="M59.9,161.08v-6.3"/><path class="cls-9" d="M59.45,174.57v-4.95"/><path class="cls-9" d="M72,183.12v-5"/><path class="cls-9" d="M301.52,166v7.13a55.77,55.77,0,0,1,22.87,0"/><path class="cls-9" d="M315.45,164.68l.07-6.22a29,29,0,0,1,6.72.15"/><path class="cls-9" d="M315.47,174.12v6.75"/><path class="cls-9" d="M288.93,166.54l10.79-.58"/><path class="cls-9" d="M120.19,145.06,255.63,145"/><path class="cls-9" d="M116.15,133.48c20.55.73,41.12,1,61.69,1.35l20.14.3c20.56.3,41.16.61,61.68-.9"/><path class="cls-9" d="M112.55,122.15q25.55,1,51.11.29c7.57-.2,15.14-.52,22.71-.44,25.21.27,50.42,4.89,75.51,2.4"/><path class="cls-9" d="M143.15,110q51.25,2,102.58,2"/><path class="cls-5" d="M186.12,163.9a28.5,28.5,0,0,1,.36,4.62,20.31,20.31,0,0,1-.48,6.18,7,7,0,0,1-3.79,4.67,5.18,5.18,0,0,1-7.06-5.72,30.08,30.08,0,0,1,.92-2.88c.81-2.8.06-5.82.47-8.7C178,152.23,184.77,156.79,186.12,163.9Z"/><path class="cls-11" d="M182.85,161.11c-1.44,3.54,3.28,7.9,1,11a3.39,3.39,0,0,1-4.4.73,4.1,4.1,0,0,1-1.66-4.3c.2-.85.63-1.63.86-2.47.26-1,.23-2,.42-3.05a3.18,3.18,0,0,1,1.65-2.45c.94-.4,2.29.27,2.22,1.29"/><path class="cls-9" d="M97,337.35l0-5.21-3.47,0"/><path class="cls-9" d="M97.33,302.44a15.17,15.17,0,0,1,.33-5.29,93.84,93.84,0,0,0,14.32-.38"/><path class="cls-9" d="M107.4,290.92l0-4.47a1.68,1.68,0,0,0-.22-1,1.73,1.73,0,0,0-1.43-.45l-10.94,0"/><path class="cls-9" d="M112.3,325.14h3.84"/><path class="cls-9" d="M108.22,272.76l-.51-5.46A98.47,98.47,0,0,0,97,266.41L96.88,262c-1.73,0-3.47-.05-5.2-.13"/><path class="cls-9" d="M97.3,243.44l0-4.48-5.2-.47"/><path class="cls-9" d="M109.18,217.25l-.05-4.13a1.61,1.61,0,0,1,.31-1.2,1.55,1.55,0,0,1,.92-.35,27.25,27.25,0,0,1,5.78-.23"/><path class="cls-9" d="M102.53,204.7l6.63,0-.33-5.85a53.21,53.21,0,0,1,7.68.13"/><path class="cls-9" d="M114.39,175.85l-16.74-.69"/><path class="cls-9" d="M114.75,165.91a89.54,89.54,0,0,0-14.64.88"/><path class="cls-9" d="M98.32,199.11c-.27-4,.72-7.89.75-11.86,0-4.28-1-8.48-2.12-12.62L94.24,164.2"/><path class="cls-9" d="M123.82,279.4h3.84"/><path class="cls-9" d="M124.87,306.61a12,12,0,0,0,4.54-.32"/><path class="cls-9" d="M132.89,196.85c8.34-1.3,17.17,2.08,25.18-.57"/><path class="cls-9" d="M176.57,194.92a345.81,345.81,0,0,0,37,.57"/><path class="cls-9" d="M141.28,200.84V197.7"/><path class="cls-9" d="M134.65,191.09a103,103,0,0,1,13.26.38"/><path class="cls-9" d="M142.68,175l21.64-.46"/><path class="cls-9" d="M216.34,173.27a55.75,55.75,0,0,0,12.23-1"/><path class="cls-9" d="M238,194.56,238,189l13.57,0"/><path class="cls-9" d="M211.46,200.15v-3.84"/><path class="cls-9" d="M228.91,199.45v-2.79"/><path class="cls-9" d="M211.11,190v-3.49"/><path class="cls-9" d="M253,311.17H241.48"/><path class="cls-9" d="M249.51,289.87H236.59"/><path class="cls-9" d="M249.16,279.32l-8.72.46"/><path class="cls-9" d="M250.56,268.88l-14.66.48"/><path class="cls-9" d="M236.59,253.21h11.87"/><path class="cls-9" d="M240.08,246.93l0-4.14a73.65,73.65,0,0,1,11.5-.36"/><path class="cls-9" d="M246.38,236.46l0-9.07-6.25.4"/><path class="cls-9" d="M246.37,311.17v4.19"/><path class="cls-9" d="M255.8,332.47H240.43"/><path class="cls-9" d="M255.8,304.89H242.18"/><path class="cls-9" d="M253.7,300h-9.78"/><path class="cls-9" d="M253,353.76H240.43"/><path class="cls-9" d="M247.07,332.82v4.88"/><path class="cls-9" d="M250.91,375.79a17,17,0,0,1-6.95-1.17"/><path class="cls-9" d="M269.75,312.22l0-5.09a1.44,1.44,0,0,0-.18-.85,1.42,1.42,0,0,0-1.19-.37l-4.23,0"/><path class="cls-9" d="M271.51,329.67h9.42"/><path class="cls-9" d="M264.87,288.83h15"/><path class="cls-9" d="M264.17,271.72H276"/><path class="cls-9" d="M269.76,288.48v-4.19"/><path class="cls-9" d="M276.74,283.59h4.19"/><path class="cls-9" d="M275,232.25l-14-.44"/><path class="cls-9" d="M261.73,219.61l11.52.48"/><path class="cls-9" d="M268.72,231.57l0-6.22a31.75,31.75,0,0,0-5.93.1"/><path class="cls-9" d="M276.05,178.17a35.72,35.72,0,0,1-11.85-1.5"/><path class="cls-9" d="M278.49,167.33h-7"/><path class="cls-9" d="M277.77,159.12l-7.3-.93"/><path class="cls-9" d="M272.88,138.78l-2.8-.67"/><path class="cls-9" d="M278.1,178.24a38.37,38.37,0,0,0-12.87-3"/><path class="cls-9" d="M278.52,186.53c-.47-8-.76-14.87,1.34-22.57a109.93,109.93,0,0,0-15.68-1.6"/><path class="cls-9" d="M280.26,164.88a9.13,9.13,0,0,1,.29-3.85"/></g></g></g></g></svg>