<svg xmlns="http://www.w3.org/2000/svg" viewBox="0 0 347.13 456.8"><defs><style>.cls-1{fill:#8a817c;}.cls-2{fill:#fffcf2;}.cls-3{fill:#463f3a;}.cls-4{fill:#bcb8b1;}.cls-5{fill:none;stroke:#363636;stroke-linecap:round;stroke-miterlimit:10;stroke-width:3px;}</style></defs><g id="Layer_2" data-name="Layer 2"><g id="Layer_4" data-name="Layer 4"><g id="Lucy"><g id="Lucy_background" data-name="Lucy background"><g id="left-front-leg"><path class="cls-1" d="M157.49,242.05a50.41,50.41,0,0,1-30.77,4.7c-3.81-.64-7.68-1.79-10.61-4.33s-4.67-6.72-3.42-10.38c.86-2.54,2.94-4.43,4.85-6.31,7.14-7,12.89-15.25,18.06-23.79,3.57-5.91,6.94-12,11.66-17.07s11.12-9,18-9.05c10.51-.15,19.51,8.84,22.32,19,2.49,9,2.34,23.33-4.52,30.64C176.86,232.05,165.45,238,157.49,242.05Z"/><path class="cls-1" d="M147,273.7A190.1,190.1,0,0,0,148.86,300,34.21,34.21,0,0,0,150.4,307c.77,2.13,1.93,4.1,2.8,6.2,2.07,5,2.53,10.41,3,15.76.22,2.73.42,5.58-.66,8.1-1.58,3.68-5.47,5.73-9.17,7.26a97.81,97.81,0,0,1-11.68,4c-5.45,1.46-12.66,1.71-15.25-3.31-1.36-2.64-.83-5.81-.4-8.74,4.21-28.72-4.25-57.57-7.43-86.42-.85-7.72-1-16.41,4.09-22.26,2.64-3,6.37-4.85,10-6.59s8.14-3.62,11.87-1.8a12.42,12.42,0,0,1,4.06,3.68c5.31,6.73,9.28,13.2,7.8,21.74A166.89,166.89,0,0,0,147,273.7Z"/><path class="cls-1" d="M155.14,332.54c2.7,7.14,1.27,15.07,1.56,22.7.32,8.39,2.75,16.54,4,24.84,1.5,10.1,1.24,20.36,1,30.57-.09,3.3-.21,6.77-1.84,9.65s-5.28,4.91-8.32,3.59c1.21,5.2,1.3,11.15-2,15.34s-10.92,4.93-13.59.31a9,9,0,0,1-15.73-5.88c-3.76,1-8.52,1.76-10.91-1.32a9.11,9.11,0,0,1-1.49-4.21c-3.34-20.75,6.63-41,10.84-61.63a119.87,119.87,0,0,0,2.25-26.26c-.08-4.81-1.22-11.1,1.6-15.39C130.67,312.37,150.86,321.22,155.14,332.54Z"/><path class="cls-2" d="M150.25,425.85c-.09,3.65.48,7.38-.47,10.9-1.09,4.07-5.07,7.7-9.38,5.86-3.66-1.57-5-6.79-5-10.4,0-6.45.22-14.23,2.07-21,1.72-6.27,2.17-10.22,8.7-9.51C157,402.89,150.41,418.83,150.25,425.85Z"/><path class="cls-2" d="M135.19,421.85c-.7,5.15-.27,10.37,0,15.55a3.73,3.73,0,0,1-3.94,4.78c-3,.48-6.84.63-8.43-2a7.44,7.44,0,0,1-.83-2.86,104.15,104.15,0,0,1-1.07-17.55c.09-3.91.47-8,2.64-11.24,2.31-3.44,8-6,11-2C137.69,410.85,135.84,417.11,135.19,421.85Z"/><path class="cls-1" d="M146.9,425.07a5.28,5.28,0,0,1-1.22,2.33,3.81,3.81,0,0,1-5.12-.27,5.78,5.78,0,0,1-1.3-5.3c.5-2.31,3.41-8.26,6.53-6.59C148.57,416.73,147.55,422.85,146.9,425.07Z"/><path class="cls-1" d="M131.14,424.43a6.3,6.3,0,0,1-3.61,3.73,2.9,2.9,0,0,1-2.72-.22,3.15,3.15,0,0,1-1-2.64C124,418.85,134.31,416.32,131.14,424.43Z"/><path class="cls-3" d="M115.31,433a3.27,3.27,0,0,1-4.18.39,4.38,4.38,0,0,1-1.07-3.53c.07-2.38,3.35-17.43,7.57-13.3C120.58,419.42,117.74,430.72,115.31,433Z"/><path class="cls-3" d="M131.13,451.78a5,5,0,0,1-1.49,2.3,2.4,2.4,0,0,1-2.61.27c-1.19-.72-1.2-2.41-1.06-3.8.22-2.17,0-14.06,3.46-12.25S132.1,449,131.13,451.78Z"/><path class="cls-3" d="M144.46,442.07l-1,6.74a7.71,7.71,0,0,1-.82,2.89,2.65,2.65,0,0,1-2.49,1.39,2.59,2.59,0,0,1-1.89-1.7,6.74,6.74,0,0,1-.29-2.61,46.25,46.25,0,0,1,.86-7.33c.33-1.76.56-6.23,1.77-7.53C144.26,430,144.71,440.34,144.46,442.07Z"/><path class="cls-3" d="M158.09,428a8.79,8.79,0,0,1-.42,4.39c-.64,1.34-2.28,2.33-3.64,1.72s-1.71-2.6-1.75-4.2c-.06-2.26-1.68-11.33,1.68-11.66C158.08,417.84,157.92,425.86,158.09,428Z"/><path class="cls-3" d="M121.06,415.33c-.65,1.06-1.88,2-3,1.61s-1.53-2-1.58-3.32c-.1-2.95-.48-14.78,4.86-13.18C125.27,401.64,122.7,412.67,121.06,415.33Z"/><path class="cls-3" d="M136.35,409.7a1.45,1.45,0,0,1-1.52-.64c-1.46-2.05-3.25-10.56,1.32-9.26C140,400.89,139.88,408.63,136.35,409.7Z"/><path class="cls-3" d="M119.68,393.6c-.09,1.22,0,2.65,1,3.35,1.31.9,3-.11,4.31-1.07,4.45-3.38,9.73-6.63,15.23-5.69,3,.51,5.69,2.23,8.7,2.7s6.79-1.11,6.91-4.15c.09-2.07-1.54-3.76-2.52-5.58-1.44-2.69-1.51-5.86-1.55-8.91q-.27-20.49-.52-41c-.06-4.75-.13-9.55-1.28-14.16-1.25-5-3.75-9.66-5.21-14.63-2-6.72-2-13.85-1.79-20.85A393.3,393.3,0,0,1,146,244.38a9.64,9.64,0,0,0-.11-4.41c-1.22-3.41-6.11-4.19-9.19-2.28s-4.63,5.5-5.66,9c-3.77,12.65-2.88,26.19-1.15,39.27s4.27,26.16,3.7,39.34a170.17,170.17,0,0,1-2.29,19.07c-1.53,9.6-3,19.22-4.59,28.82C125.51,380.49,120.27,385.94,119.68,393.6Z"/><path class="cls-3" d="M123.66,232.06a7.84,7.84,0,0,1,2.21-3.85,8.88,8.88,0,0,1,4.72-1.49,63.66,63.66,0,0,1,11-.6c3.95.24,8.17,1.39,10.6,4.51a9.15,9.15,0,0,1-.12,11.05c-2.06,2.53-5.37,3.76-7.55,6.19-4.33,4.8-6.52,25-16.46,13.6C121.52,253.93,120.75,241.2,123.66,232.06Z"/></g><g id="torso"><path class="cls-1" d="M82.86,104a67.41,67.41,0,0,1-5.52-11.61C75,85.32,75.1,77.69,75.21,70.22c.09-6,.23-12.29,2.88-17.72,1.7-3.49,4.35-6.42,6.26-9.8s2.94-6.83,5-9.88a43.16,43.16,0,0,1,13.31-12.43A168.15,168.15,0,0,1,138.34,5.77c30.17-8.88,62.66-1,92.19,9.87,32.78,12,66.47,29.85,81.74,61.27,3.51,7.23,5.91,15,8.29,22.63a81.66,81.66,0,0,1,3.68,15.21c2,18-8,35.22-8.94,53.3-.75,14.17,3.83,29.53-3.13,41.9-5.07,9-15,13.94-24.4,18.32L248.82,246.5c-6.06,2.84-12.37,5.73-19.06,5.76-12.56,0-22.66-9.71-31.87-18.25a296,296,0,0,0-44.46-34c-4.11-2.56-8.31-5-11.87-8.33s-6.55-7.52-9.4-11.61c-9.43-13.55-18.49-27.46-28.44-40.63a116.15,116.15,0,0,1-8.87-13.77l-6.22-11.21C87.32,112.07,82.86,106.66,82.86,104Z"/><path class="cls-3" d="M136.38,166.94c-3.13-6.58-7.33-12.61-10.62-19.12-6.32-12.46-9.32-26.59-17.14-38.17S88.38,89.29,84.42,75.93c-1.32-4.45-1.59-9.15-2.68-13.67a3.64,3.64,0,0,0-.86-1.85c-1-1-2.87-.43-3.7.73a7.35,7.35,0,0,0-1,4.1c-.14,4.31-.09,8.63.14,12.93a65.43,65.43,0,0,0,2.31,15.27c1.92,6.4,5.33,12.24,8.78,18q11.51,19,24.07,37.41,6.42,9.36,13.09,18.53c2.81,3.87,8.49,15.31,13.11,16.67C144.38,186,137.71,169.72,136.38,166.94Z"/><path class="cls-3" d="M242.53,210.85a10.11,10.11,0,0,1,3.71,1.77c1.72,1.48,2.3,3.91,2.32,6.18.08,9.2-7.17,16.61-13.89,22.88-.48.44-1.07.92-1.69.74a1.58,1.58,0,0,1-.84-.69c-1.66-2.43-.74-5.68,0-8.53s1-6.42-1.38-8.16c-1.72-1.27-4.07-1-6.2-.89-6.87.25-13.48-2.36-19.85-4.93-2.91-1.18-6.22-2.81-6.86-5.89C194.54,197.2,237.08,209.14,242.53,210.85Z"/><path class="cls-3" d="M219,227.78c2,.11,4.13.26,5.76,1.44a10.66,10.66,0,0,1,2.68,3.34l3,5a20,20,0,0,1,2.95,6.66c.42,2.41-.22,5.15-2.18,6.61-2.88,2.13-6.95.63-10.11-1.06a114.34,114.34,0,0,1-17.94-11.93c-2.87-2.33-7.93-8-2.54-10.52C204.76,225.31,214.3,227.54,219,227.78Z"/><path class="cls-3" d="M305.58,156.06c.56,5.13,5.76,8.89,6.18,14,.33,4-2.34,7.59-4.87,10.74l-10.36,12.9c-1.58,2-3.27,4-5.6,5-3.23,1.36-7.08.31-9.89-1.8s-4.76-5.12-6.6-8.11Q268.82,179.64,264,170c-1.28-2.57-2.54-5.24-2.68-8.11-.17-3.48,1.32-6.8,2.78-10,2.47-5.35,5-10.77,8.81-15.24a38.39,38.39,0,0,1,17.38-11.15,24.28,24.28,0,0,1,10.59-1.34c6.59.9,11.95,7,11.13,13.85C311.24,144.39,304.83,149.29,305.58,156.06Z"/><path class="cls-3" d="M268.34,196a28,28,0,0,1,3.31,6.49,9.33,9.33,0,0,1-.42,7.1,3.77,3.77,0,0,1-1.61,1.67,3.86,3.86,0,0,1-3.05-.09c-4.7-1.91-6-8.23-10.27-11a23.43,23.43,0,0,0-3.7-1.71,25.24,25.24,0,0,1-6.6-4.15c-6.43-5.62-3.72-16.82,5.15-18.62C258.66,174.24,265.1,190.85,268.34,196Z"/><path class="cls-2" d="M238.52,248.37a2.49,2.49,0,0,1-2.29-2.19c0-1.17,1.08-2,2.06-2.66a35.18,35.18,0,0,1,10.59-4.85,19.18,19.18,0,0,1,11.52.51c-.42-.17-4.32,2.94-4.95,3.3a47.66,47.66,0,0,1-6,3,22.69,22.69,0,0,1-4.82,1.16C242.6,247,240.67,248.62,238.52,248.37Z"/></g><path id="tail" class="cls-3" d="M83.94,142.7a55.19,55.19,0,0,1-9.11,5.66A111.68,111.68,0,0,1,63.24,153l-8.75,3.15L27.3,166a50.59,50.59,0,0,1-7.85,2.36C12.89,169.54,6,168.14,0,165.26c-.2-1.22,1.84-.88,3.05-1.13,2.05-.43,1.85-3.37,2.67-5.3.69-1.63,2.3-2.65,3.82-3.57,11.65-7,23.34-14,35.73-19.62,5.49-2.48,11.14-4.69,16.15-8,8.22-5.5,14.18-13.71,21.41-20.46,4.38-4.08,10.47-8.12,16.43-4.66,4.7,2.72,3.78,6.38,2.68,10.91C99.07,125.24,93.8,135.16,83.94,142.7Z"/><g id="back-leg"><path class="cls-1" d="M102.85,99.78A66.77,66.77,0,0,1,96,112.4c-3.54,4.83-8.2,8.71-12.25,13.11-4.9,5.33-8.9,11.42-12.88,17.47L66,150.41c-2.33,3.56-4.77,7.5-4.32,11.74-4.32.84-8.35-2.07-12.3-4s-9.74-2.44-11.83,1.44c-.78,1.45-2.06,3.71-3.31,2.64a1.84,1.84,0,0,1-.53-1.14c-.8-4.42,2.63-8.34,5.68-11.63a143,143,0,0,0,28.82-45.92c1.7-4.5,3.16-9.09,5.06-13.51,2.91-6.73,6.84-13,10.64-19.24q7.81-12.87,15-26.07c2.44-4.47,5-9.13,9.16-12s10.53-3.4,14,.33c6.76,7.25-2.08,21-4.59,28.66Q111.14,81.07,102.85,99.78Z"/><path class="cls-3" d="M113.34,72,106.09,88.8c-3.13,7.25-6.29,14.55-10.78,21-1.47,2.14-3.08,4.18-4.69,6.22-6.14,7.78-12.28,15.56-18.49,23.28-3.21,4-6.46,8-8.73,12.56-1.13,2.26-2.07,4.73-4,6.38s-5.22,2-6.75,0-.46-4.79.75-6.95c4.07-7.24,9.6-13.52,14.7-20.07,15.7-20.15,27.5-43,39.33-65.62.94-1.79,6.1-10.5,9.39-8.05C119.28,59.44,114.32,69.77,113.34,72Z"/><path class="cls-1" d="M69.17,119.58a8,8,0,0,1-4.37,2.17c-1.65.11-3.48-1-3.51-2.7,0-1.49,1.27-2.6,2.28-3.71,1.91-2.11,3-4.84,4-7.51l5.78-15.21c1.05-2.75,4.51-10.07,8.78-7.35,2.6,1.65,1,8.35.55,10.76A39.33,39.33,0,0,1,69.17,119.58Z"/><path class="cls-4" d="M119.48,50.5a11.79,11.79,0,0,1-1,3.93c-.94,1.78-2.66,3-4.17,4.32-6.5,5.73-9.7,14.21-13.4,22a249.76,249.76,0,0,1-12.34,22.38c-2.91,4.84-5.87,9.65-9,14.33-5.66,8.41-11.92,16.39-18.18,24.35L50,156.32c-1,1.28-2.89,2.63-4,1.45-.83-.88-.25-2.3.35-3.34,7.28-12.53,14.62-25.13,24.13-36.06,4.53-5.2,9.68-10.26,11.67-16.86,1.53-5.09,1-10.68,2.89-15.65,2.5-6.65,8.73-11,14.28-15.41s11.14-10.1,11.35-17.2c.09-3-.8-5.89-1.22-8.84-.54-3.86,1.56-13.58,7.54-10.1C121.61,37,120,46.37,119.48,50.5Z"/><path class="cls-3" d="M63,173.26c-.33,1.53-1.41,2.93-1.28,4.5.15,1.79,1.82,3.07,3.5,3.71s3.52.91,5,1.87c3.07,1.94,3.88,6.08,3.65,9.7a7.09,7.09,0,0,1-.86,3.34,2.9,2.9,0,0,1-2.93,1.43c-1.43-4.47-3-9.21-6.71-12.13-4.25-3.38-10.2-3.47-15.6-3a99.25,99.25,0,0,0-11,1.65c-1.21-3.16-.35-6.68.06-10a37,37,0,0,0-.13-10,8.31,8.31,0,0,1-.08-3.54,5.08,5.08,0,0,1,2-2.58c3.21-2.35,7.7-2,11.42-.58,3,1.15,8.22,2.95,10.43,5.4C62.3,165,63.56,170.73,63,173.26Z"/><path class="cls-1" d="M64.84,214.31c-.94,1.61-2.53,3.09-4.39,3a10.73,10.73,0,0,0-1.38-.13c-2.28.15-3.65,3.87-5.79,3.06-.89-.33-1.49-1.41-2.43-1.32S49.59,220,49,220.6c-1.52,1.73-4.32,1.07-6.43.16q-2.61-1.12-5.12-2.51a2.45,2.45,0,0,0-1.44-.43c-.95.12-1.41,1.29-2.31,1.63a2,2,0,0,1-2.2-.92,5.5,5.5,0,0,1-.68-2.47,66.47,66.47,0,0,1,2.3-25.17A11,11,0,0,1,35.6,186c2.45-2.42,6.34-3.25,9.75-3.7,1.95-.25,3.87.24,5.83.08,5.71-.48,15.33,3.05,16.12,9.68.39,3.29-.53,7-.5,10.41C66.84,206.5,66.92,210.74,64.84,214.31Z"/><path class="cls-2" d="M63.38,205.1c-.46.27-.68.83-1.14,1.1-.83.47-1.79-.28-2.73-.47-1.71-.36-3.36,1.19-5.09.92a2.64,2.64,0,0,1-1.09-4.5,1.6,1.6,0,0,0-2.31.49,5.47,5.47,0,0,0-.64,2.6,3.51,3.51,0,0,1-1,2.45,2.79,2.79,0,0,1-3.22-.11,15.22,15.22,0,0,1-2.44-2.44,3.14,3.14,0,0,0-1.23-.91c-1.18-.42-2.41.39-3.4,1.16-3.52,2.73-7.34,6-7.69,10.42a3.59,3.59,0,0,0,.4,2.19,1.73,1.73,0,0,0,1.94.8,5.38,5.38,0,0,0,1-.69c1.38-1,3.31-.59,4.78.24s2.7,2,4.21,2.78,3.52.92,4.73-.25c.59-.57,1-1.44,1.76-1.68,1-.3,1.87.48,2.57,1.2,1.63-1.63,3.42-3.34,5.69-3.66.89-.13,1.8,0,2.67-.24,2.54-.59,3.89-3.46,4.23-5.82C65.59,209.55,65.92,203.65,63.38,205.1Z"/><path class="cls-3" d="M60.65,193a17,17,0,0,1,.54-4.2,1.27,1.27,0,0,1,.47-.77,1.39,1.39,0,0,1,.76-.12,4.93,4.93,0,0,1,3,.85,4.72,4.72,0,0,1,1.34,2.77c.73,3.55,1.5,13.66-3.09,15.47C58.21,209.15,60.54,195.36,60.65,193Z"/><path class="cls-3" d="M49.81,205.58a4.68,4.68,0,0,1-1.3,1.17,2.84,2.84,0,0,1-3.1-.39,3.26,3.26,0,0,1-1-3c.38-2,2.5-3.39,3-5.42a6.89,6.89,0,0,0,.08-1.87L47.2,191a4.07,4.07,0,0,1,.55-2.76c2.78-3.5,5.85,2.68,5.86,5C53.63,197.61,52.65,202.12,49.81,205.58Z"/><path class="cls-3" d="M41.79,200.87a9.65,9.65,0,0,1-.6,2.78,8.64,8.64,0,0,1-2.68,3l-7.71,6.22a35.13,35.13,0,0,1,.85-9.53c.46-2,1.2-4.05,2.91-5.12.66-.42,1.43-.65,2.09-1.08,1.63-1.07,3.64-7.08,6-6S42,199.05,41.79,200.87Z"/><path class="cls-4" d="M46.73,167.82a32.8,32.8,0,0,1,.46,4.53,28.37,28.37,0,0,1-1.42,8,4.13,4.13,0,0,1-.66,1.48c-.83,1-2.37,1.11-3.7,1.08l-3.21-.07a1.45,1.45,0,0,1-.94-.24,1.42,1.42,0,0,1-.38-1c-.13-1.64-.11-3.29-.09-4.94L37,164.26a10.39,10.39,0,0,1,.32-3,6.59,6.59,0,0,1,4.5-4.16C47.1,155.51,46.22,164.3,46.73,167.82Z"/></g><g id="right-front-leg"><path class="cls-1" d="M257.47,220.47,300.85,191c2.88-2,6-4,9.5-3.9,4.35.12,8,3.61,9.85,7.52s2.51,8.3,3.72,12.47a44.51,44.51,0,0,0,8.16,15.58c3.38,4.17,2.7,11.73,7.45,14.25,12.84,6.8,3.84,26.8,2.85,29.54-1.79,5-5.66,9.73-7.69,14.39-2.21,5.09-2.62,10.05-5.33,15.05a146.3,146.3,0,0,0-16.47,51.36,150.47,150.47,0,0,0-.71,26.51,313.91,313.91,0,0,0,4.62,41.13c.6,3.32,1.25,6.73.58,10-.9,4.41-4,8-7,11.36-4.59,5.17-9.42,10.49-15.81,13.11a26.69,26.69,0,0,1-14.78,1.31,19,19,0,0,1-9.25-4.05,21.5,21.5,0,0,1-4.19-5.41A50.23,50.23,0,0,1,259.46,417c-.12-5.83.81-11.62,1.73-17.38,2-12.23,3.95-24.6,8.75-36,3.09-7.36,7.37-14.4,8.56-22.3.84-5.61.07-11.38,1.1-17,2.19-11.88,12-20.8,16.78-31.89,2.88-6.67,3.88-14,4.85-21.16,1.1-8.18,1.94-17.42-3.27-23.83-7.09-8.74-20.63-7.08-31.61-4.61-5.86,1.32-24.4,8.44-28-.7C235.22,234.16,252.21,224,257.47,220.47Z"/><path class="cls-3" d="M337.17,252c-.56,5.63-3.16,10.86-6.14,15.67s-6.39,9.38-8.86,14.47c-3.8,7.79-5.25,16.51-8.41,24.58-1.38,3.55-3.09,7-4.38,10.54-1.09,3-1.88,6.16-2.67,9.29l-2.1,8.34c-1.28,5.09-2.57,10.23-2.52,15.47.06,7.08,2.55,14,2.26,21.07-.15,3.52-1.21,7.34-4.13,9.31-3.55,2.4-8.66,1.05-11.69-2s-4.42-7.3-5.46-11.47c-1.26-5.09-2.14-10.39-1.4-15.58s3.1-10.08,4.13-15.25c1-4.77.76-9.71,1.43-14.53,1.68-12.07,8.58-22.66,13.08-34a88.6,88.6,0,0,0,5.92-25c.74-8.42.69-17.95,6.81-23.77,4.12-3.91,11.87-5.33,17.22-3.18C335.9,238.21,337.7,246.62,337.17,252Z"/><path class="cls-3" d="M302.87,384.82a3.52,3.52,0,0,1,3.71,1.33,9.35,9.35,0,0,1,1.6,3.84,68.88,68.88,0,0,1,1.64,10.19,6.63,6.63,0,0,1-.34,3.43c-.41.86-1.16,1.52-1.54,2.39a4.82,4.82,0,0,0,.48,4.18c.7,1.27,1.71,2.34,2.5,3.56A12.56,12.56,0,0,1,313,420.4c0,1-.41,2.39-1.45,2.37a2.12,2.12,0,0,1-1.41-.91L306.75,418a11.69,11.69,0,0,1-3.59-9.65c-.18-4.67.17-9.73-1-14.27C301.52,391.55,299,386.16,302.87,384.82Z"/><path class="cls-3" d="M278,391.89c-3.34,1.85-3.48,6.46-3.6,10.27a53.77,53.77,0,0,1-2.08,13.09,1.48,1.48,0,0,1-.66,1c-.59.24-1.18-.34-1.46-.91a11.07,11.07,0,0,1-.75-5.12l.2-14.19c0-2,.11-4.2,1.37-5.79.65-.82,1.58-1.41,2.2-2.26,1.73-2.35.74-6,2.54-8.26,1.41-1.8,4-2.11,6.3-2a34.38,34.38,0,0,1,7.81,1.17c5.38,1.44,13.93,8.32,7.37,14C291.5,397.89,283.91,388.61,278,391.89Z"/><path class="cls-4" d="M305.92,380.81l-1.36-22.34a42.24,42.24,0,0,1,1.87-18L312.76,317c1-3.61,2-7.23,3.06-10.81a162.17,162.17,0,0,1,15.53-35.08c3.74-6.31,8.06-12.82,8.13-20.16,0-2-.25-4.07.69-5.8s3.78-2.5,4.8-.81a3.9,3.9,0,0,1,.41,1.83c.46,10.08-4,19.65-8.39,28.75-7.63,15.89-15.32,31.86-20.24,48.79a160.07,160.07,0,0,0-6.16,37.45,109.21,109.21,0,0,0,.51,17.35C311.6,382.78,306.27,386.59,305.92,380.81Z"/><path class="cls-2" d="M284.69,441.94a16,16,0,0,1-.74,6.36c-.81,2-2.69,3.72-4.84,3.64a8,8,0,0,1-4.06-1.81c-2.52-1.74-5.18-3.69-6.14-6.59-1.22-3.7.71-7.64,2.78-10.94,1.58-2.5,3.27-4.94,5-7.32,1.12-1.53,2.63-3.19,4.51-3a3.82,3.82,0,0,1,3,3.06C285.44,430.34,284.58,436.82,284.69,441.94Z"/><path class="cls-2" d="M286.84,437.29c0-1.25.15-2.76,1.26-3.32a3.13,3.13,0,0,1,1.32-.24,14.42,14.42,0,0,1,9.47,3.34,3,3,0,0,1,1.36,2.25,3.45,3.45,0,0,1-1,2c-2.07,2.45-5.15,7.8-9,6.78C285.76,446.92,286.83,440.64,286.84,437.29Z"/><path class="cls-2" d="M308.51,433c-1.22,1.62-2.9,3.43-4.87,3a1.42,1.42,0,0,1-.84-.45,1.83,1.83,0,0,1-.32-.71,8.2,8.2,0,0,1-.44-3.13,6.32,6.32,0,0,1,2.33-4c1.49-1.28,6.18-4.67,7.67-2.2C313.4,427.73,309.61,431.49,308.51,433Z"/><path class="cls-3" d="M265.66,441.36a3.55,3.55,0,0,1-2.46,1.9c-1.45.13-2.64-1.3-2.84-2.73a10.7,10.7,0,0,1,.69-4.27,31.53,31.53,0,0,0,1.09-6.08c.2-2.43,2.11-16.06,5.36-8.14C269.73,427.5,268.71,436.46,265.66,441.36Z"/><path class="cls-3" d="M279.43,455.25c-.88,1.33-2.86,2.08-4.13,1.1-1.06-.83-1.14-2.39-1.08-3.73.12-2.54-.1-14.68,4.14-11.59C281.7,443.46,281.39,452.26,279.43,455.25Z"/><path class="cls-3" d="M290,452.28c-.35.84-.81,1.78-1.68,2a2,2,0,0,1-2.2-1,4.18,4.18,0,0,1-.49-2.49c.13-2.22,3.34-11,6.67-9.93S290.72,450.59,290,452.28Z"/><path class="cls-4" d="M310,420.55l-1.3,4.12a7.94,7.94,0,0,1-1.38,2.9,2.66,2.66,0,0,1-2.9.88c-1.19-.5-1.56-2-1.72-3.26-.12-1-.2-1.92-.25-2.89-.07-1.42,0-3,1.09-4a4,4,0,0,1,1.91-.83,4.31,4.31,0,0,1,2.86.25,2.13,2.13,0,0,1,1.11,2.44"/></g><g id="chest"><path class="cls-4" d="M288,194.24c4.69-.17,8.38-3.84,12.11-6.68s9.18-5,12.92-2.14c2,1.54,2.91,4.17,3.12,6.69.52,6.59-2.89,12.78-6.33,18.42-2.55,4.18-5.28,8.42-9.25,11.27-6.34,4.57-14.72,4.87-22,7.64-4.83,1.82-9.19,4.73-14,6.53a66.62,66.62,0,0,1-13.87,3c-4.47.64-10.87-.23-10.89-4.75,0-3,3-4.88,4.56-7.42,2.26-3.72,1-8.78-2-12s-7.11-4.95-11.24-6.32a13.87,13.87,0,0,1-5.19-2.52c-2.43-2.26-2.72-6.19-1.4-9.23s4-5.32,6.75-7.12c4.15-2.67,9.88-4.42,13.8-1.43,1.88,1.43,2.92,3.66,4,5.73A48.88,48.88,0,0,0,257,204.6c2.07,2.13,4.46,4.13,7.36,4.77s6.37-.51,7.54-3.23c2-4.67-3.34-8.88-7.39-11.95-5.78-4.38-24-31.36-6.5-27.41C271.93,169.9,272.78,194.8,288,194.24Z"/><path class="cls-4" d="M233.73,241.42c-3.84,6.14-8-7.19-8.89-9.16-4.42.54-11.48,3.58-11.92-2.25-.24-3.18,5.7-8.1,8.13-9.3C233,214.75,239.39,232.37,233.73,241.42Z"/><path class="cls-3" d="M231.43,194.18c1-3.51,1.1-7.2,1.72-10.79,1.56-9.11,6.32-17.28,10.38-25.57,1.57-3.19,2.8-7.61,0-9.81a5.43,5.43,0,0,0-5.47-.38,15.83,15.83,0,0,0-4.57,3.46c-2.49,2.4-5,4.86-6.65,7.91a33.29,33.29,0,0,0-2.74,8.65c-1.88,8.57-7.83,22.24-6.39,30.9C219.4,208.63,229.71,200.21,231.43,194.18Z"/><path class="cls-4" d="M230.45,165.49c1.52-3.35,4.14-6.1,5.67-9.45.89-1.94.94-4.94-1.13-5.49-1.42-.37-2.75.78-3.68,1.91-4.53,5.57-6.42,12.78-8.18,19.75s-6,16.36-5.46,23.44C227.45,194.33,227.79,172.13,230.45,165.49Z"/></g><g id="left-ear"><path class="cls-1" d="M131.53,134.8A44.21,44.21,0,0,1,124,154.73c-1.93,2.78-4.71,5.58-8.09,5.33.3-12.11,4.24-24.14,2.7-36.16-2-15.73-13.27-30.54-9.74-46,2.5-10.93,11.94-19.14,15-29.93,1-3.7,1.33-7.73,3.47-10.92s7.17-4.9,9.79-2.1c1.65,1.76,1.64,4.44,1.52,6.85-.46,9.29-1.11,18.58-2.06,27.84-.68,6.72-3.12,10.82-5.53,16.83C125.08,101.42,133.35,119.24,131.53,134.8Z"/><path class="cls-4" d="M134.75,53.24c-.62,3.79-4.42,7.32-8.08,6.14-3.08,7.68-4.81,16-3.9,24.26,1.32,12,8.13,23.52,5.9,35.35-2.66-.76-3.89-3.75-4.71-6.39a256,256,0,0,1-6.56-25.74c-1-5.14-1.9-10.42-1.1-15.6C117,67,118.71,63,120.44,59.08c1.56-3.53,4.56-15.36,8.22-16.91C133.73,40,135.28,50,134.75,53.24Z"/><path class="cls-4" d="M128.43,109.32a22.37,22.37,0,0,1,1.6,8q.76,11.28.7,22.6a17.56,17.56,0,0,1-1.08,7.14,18.18,18.18,0,0,1-3.67,4.81l-5.9,6.17a2.79,2.79,0,0,1-1.19.86,1.92,1.92,0,0,1-2.14-1.46,5.84,5.84,0,0,1,.15-2.84c2.42-11,2.59-21.91,2.17-33.12a63.14,63.14,0,0,1,.77-11.73c.43-2.93,0-5.33,3.45-5.07C125.51,104.88,127.57,107.51,128.43,109.32Z"/><path class="cls-3" d="M131.5,75.17A27.41,27.41,0,0,1,133,79.52c1,5.4-2.83,10.41-4.15,15.74a40,40,0,0,1-1.08,4.48c-4-4.76-4.31-11.52-4.42-17.73l-.14-8.31c0-2.51-.07-13.93,4.86-12.45C131,62.14,130.52,72.47,131.5,75.17Z"/></g><g id="face"><path class="cls-1" d="M182.82,234.06c-3.58.3-7.16-.43-10.68-1.15l-23.34-4.79a7.32,7.32,0,0,1-3.88-1.63c-1.19-1.19-1.4-3-1.55-4.69-1.52-17-3-34.44,1-51.08,1-4.16,2.33-8.52,1.11-12.61s-4.81-7.15-5.93-11.26c-1.51-5.57,1.83-11.21,2.44-16.94.85-7.92-3.51-15.32-6.37-22.75-5.26-13.7-5.57-28.73-5.81-43.4-.07-4.26-.13-8.58,1-12.69,1.27-4.61,4-8.69,6.79-12.55C145.5,27.64,155,17.51,167,11.43c9.52-4.83,20.17-6.9,30.65-8.91a48.93,48.93,0,0,1,11.79-1.29c4.81.25,9.45,1.91,13.85,3.88,8.35,3.71,16.14,8.54,23.9,13.36,11.54,7.17,23.68,15,29.5,27.25,3.9,8.21,4.52,17.59,4.24,26.67a63.63,63.63,0,0,1-2.65,18c-2.05,6.25-5.64,12-6.68,18.53-.76,4.65-.29,9.84-3.12,13.6-1.48,2-3.66,3.23-5.43,4.92-4.09,3.89-5.83,9.75-9.85,13.72-5.89,5.82-15.47,6.47-21.45,12.2-4.34,4.17-6,10.32-7.46,16.18-2.66,11-5,22.07-9.32,32.5C209.42,215.45,199.26,232.7,182.82,234.06Z"/><path class="cls-1" d="M262.83,110.05c-.16,6.85-.38,14-3.49,20-6.84,13.45-24.83,17.28-33.78,29.42-5.56,7.53-6.9,17.23-9.05,26.33A133,133,0,0,1,202.68,221c-1.38,2.43-3.05,5-5.71,5.84-4.37,1.4-8.84-2.9-9.56-7.43s1.08-9,2.55-13.37a101,101,0,0,0,4.6-20.3c1-8.35,1-17,4-24.81,2-5,5.08-9.45,8.18-13.85L217,132.56a33.66,33.66,0,0,1,5.72-6.75,67.59,67.59,0,0,1,6.38-4.14c6.7-4.35,11.57-10.94,16.29-17.38,2.16-2.94,13.9-24.66,14.77-24.56C266.23,80.47,262.92,106.48,262.83,110.05Z"/><path class="cls-3" d="M261.92,120.67c.47,2.89,1.14,6-.1,8.64-1.6,3.41-5.75,4.83-7.92,7.9-1.28,1.82-1.81,4.13-3.36,5.71a11.93,11.93,0,0,1-3.2,2.06l-13.91,7a2.23,2.23,0,0,1-1.53.34c-.84-.23-1.08-1.28-1.17-2.14-.36-3.19-.67-6.57.74-9.45,1.18-2.42,3.42-4.12,5.43-5.91A45,45,0,0,0,250,114c1.24-4.23,1.93-18.83,9-15.81C264.68,100.58,261.09,115.51,261.92,120.67Z"/><path class="cls-4" d="M269.68,59.11c.86,3.47.53,7.12.19,10.68l-2.73,28.77c-2-3-2.15-6.83-3.31-10.24s-4.18-6.83-7.72-6.2c-6.67,13.81-13.68,28.06-25.44,37.9-3.15,2.64-6.59,4.91-9.74,7.54-12.25,10.22-19.4,25.13-26.19,39.56a28.82,28.82,0,0,0-2.61,7.13c-.81,4.62.66,9.3,1,14s-1.19,10.17-5.53,11.93c-2.81,1.14-6,.37-8.94-.4-9.16-2.42-19.69-4.59-27.47.81-1.43,1-2.93,2.28-4.65,2-2.7-.38-3.39-3.91-3.43-6.63-.11-9,.46-19.45,7.73-24.76,2-1.43,4.33-2.4,5.83-4.32,2.39-3.06,1.73-7.57,0-11s-4.49-6.37-6.21-9.86a20.29,20.29,0,0,1,3.89-22.83c3.92-3.83,9.21-5.84,14.22-8.07a6.75,6.75,0,0,0,3.06-2.13,7,7,0,0,0,.82-3.53L173,96.56c.22-4.25.4-8.7-1.35-12.58s-6.13-6.94-10.22-5.74c-2.68.79-5.62,3.18-7.83,1.46a4.46,4.46,0,0,1-1.42-2.81,14,14,0,0,1,4.19-12.67c1.53-1.42,3.41-2.51,4.57-4.24,1.89-2.82,1.47-6.71,3.29-9.57,2.39-3.75,7.49-4.33,11.88-5a61.2,61.2,0,0,0,19.4-6.54c3.93-2.12,9.56-4.35,12.14-.7,2.11,3-.16,7.56,1.76,10.69,1.3,2.12,4,2.78,6.31,3.72,8.82,3.63,13.85,14.58,10.85,23.63-.49,1.47-1.17,3-1,4.5.33,2.72,3.24,4.4,5.95,4.73s5.48-.23,8.2.12c.68-2.15-.39-4.4-.81-6.62-1.43-7.52,4.2-14.34,5.37-21.54.69-4.27-1.24-11.39.81-15.2C250.58,32,268.13,52.87,269.68,59.11Z"/><path class="cls-1" d="M177.17,150.34a21.56,21.56,0,0,1-2,6.86,7.27,7.27,0,0,1-5.62,4c-4,.23-6.91-4-8-7.89-1.69-6.27-1-12.95.48-19.26,1.46-6,8.34-15.12,15.06-8.84C182.67,130.38,178.25,144.12,177.17,150.34Z"/><path class="cls-3" d="M217,180.69a79,79,0,0,1-8.57,20.93,2,2,0,0,1-.65.76,1.36,1.36,0,0,1-1.76-.7,3.92,3.92,0,0,1-.26-2.07,196.36,196.36,0,0,1,2.3-20.68c.65-3.9.94-14.36,4-17s6.7-.52,7.83,3C221.18,169.09,218,176.56,217,180.69Z"/><path class="cls-3" d="M228.93,144.26a15.46,15.46,0,0,1-.06,5.17,4.53,4.53,0,0,1-3.4,3.53c-2.69.38-4.64-2.51-5.47-5.1a27.81,27.81,0,0,1-1.27-10.29,10.07,10.07,0,0,1,1.14-4.5c1.7-2.87,9.11-11.21,11.37-6.27C232.71,130,228.55,139.84,228.93,144.26Z"/><path class="cls-3" d="M208,81.58a5.22,5.22,0,0,1-2.37.31c-2.38-.44-3-3.5-3.4-5.88a22,22,0,0,0-2.93-7.52c-1.32-2.13-3.1-4.43-2.48-6.87.48-1.92,2.32-3.14,4-4.18a9.39,9.39,0,0,1,3.77-1.6c5.62-.63,13.4,8.09,14.38,13.23C220.33,76,213.77,79.85,208,81.58Z"/><path class="cls-3" d="M207.91,104.81c-1.83,3.37-3.13,7-4.92,10.41a6.84,6.84,0,0,1-2.06,2.62,2.62,2.62,0,0,1-3.13,0,3.89,3.89,0,0,1-.9-2.68c-.22-2.81-.37-5.9,1.32-8.16.76-1,1.83-1.77,2.64-2.76,3.47-4.27.74-10.82,2.48-16,2.17-6.52,14.31-9.92,17-1.83C222.3,92.33,210.68,99.72,207.91,104.81Z"/><path class="cls-3" d="M169.67,81.39q1.7,6.44,3.1,12.94a39.91,39.91,0,0,1,1.26,11,7.23,7.23,0,0,1-1.23,4A3.21,3.21,0,0,1,169,110.5a4.94,4.94,0,0,1-1.71-1.69c-5.81-8.06-11.89-16.94-11.57-26.88a5.84,5.84,0,0,1,1.28-4c1.24-1.29,3.24-1.38,5-1.38h4.76a11.09,11.09,0,0,1,4.3.56c2.56,1.06,4,4,4.1,6.72s-.78,5.47-1.68,8.09"/><path class="cls-3" d="M148.81,116.62a4.65,4.65,0,0,1,.42,2.36,1.58,1.58,0,0,1-1.7,1.37,2.19,2.19,0,0,1-1.2-1c-1.65-2.21-8.8-12.42-6.12-14.81C144.59,100.66,148.07,114.61,148.81,116.62Z"/><path class="cls-4" d="M182.58,213.68c-1.87,2.85-5.1,4.46-8.18,5.93-2.92,1.41-6.07,2.85-9.28,2.37-2.14-.32-4.06-1.47-6.14-2-2.65-.74-5.74-.67-7.72-2.58a9,9,0,0,1-2.14-4.67,40.79,40.79,0,0,1-.9-9.35,5.13,5.13,0,0,1,1-3.46,5.3,5.3,0,0,1,2.65-1.27l5.12-1.39c6.32-1.7,17.49-5.09,23.48-.66C185.06,200,185.57,209.12,182.58,213.68Z"/><path class="cls-3" d="M174.55,209.43c1.75-.05,3.84-.27,4.91,1.12a3.24,3.24,0,0,1-.06,3.57,9.43,9.43,0,0,1-2.77,2.56,34.71,34.71,0,0,1-4.66,2.93c-6.34,3.11-24.76.76-23.28-9.78C150.11,199.74,169.19,209.59,174.55,209.43Z"/><path class="cls-2" d="M163.87,223.19a22.85,22.85,0,0,0,15.88-7.77,3.51,3.51,0,0,1,1.37-1.15c1.32-.47,2.55.81,3.37,1.95L193.62,229c-3.21,3.85-8.92,4.23-13.93,4-8.46-.36-24.16.65-28.14-8.6C146.26,212.1,158.46,223.48,163.87,223.19Z"/><path class="cls-2" d="M221.5,83.42a2.31,2.31,0,0,1-1.64.2,4.55,4.55,0,0,1-2.79-1.7,3.66,3.66,0,0,1-.46-.85,2.73,2.73,0,0,1,4.26-3.22C222.37,79.08,223.53,82.13,221.5,83.42Z"/></g><g id="ear-right"><path class="cls-1" d="M274.7,114.84a42.07,42.07,0,0,1,1.49,8c.31,4.92-.89,9.8-1.8,14.65a121.27,121.27,0,0,0-2,24.87c.08,3.7.37,7.53,2.12,10.78,2.15,4,6.14,6.53,10,8.9,4.59,2.84,11.51,5.26,14.57.81,1.22-1.8,1.25-4.13,1.22-6.3L300,155.42c-.05-4.23-.05-8.64,1.82-12.43,3.42-7,12-9.74,16.72-15.84s5-14.38,2.81-21.6-6.61-13.52-11-19.69l-14.11-20C293,61.08,289.2,56,283.63,54.38a13.3,13.3,0,0,0-13,3.38c-5.77,5.89-3.93,16.32-3.43,23.77C268,93,271.8,103.81,274.7,114.84Z"/><path class="cls-3" d="M280.58,95.35c.06,2.05-.08,4.42-1.71,5.67s-4.29.63-5.77-.91a11.83,11.83,0,0,1-2.53-5.78c-.82-3.78-5.07-22.74,3.49-22C280,72.89,280.44,91,280.58,95.35Z"/><path class="cls-4" d="M280.49,56.94a12,12,0,0,1,6.82,2.75,18,18,0,0,1,5.16,5.7c.64,1.17,1.11,2.43,1.73,3.61,2.78,5.26,8.28,8.63,11.26,13.78,3.1,5.34,3.11,11.86,3,18l-.15,11.6a21.88,21.88,0,0,1-.72,6.41c-2,6.19-9,9.52-11.58,15.5-1.38,3.26-1.28,6.93-1.16,10.47l.95,26.49a18.55,18.55,0,0,1-.65,7.05c-.82,2.24-2.75,4.23-5.12,4.39a3.11,3.11,0,0,1-2.29-.68c-.44-.4-.7-.95-1.13-1.36-1.14-1.12-3-.91-4.52-1.38-2.28-.71-3.72-2.92-4.75-5.06a37.52,37.52,0,0,1-3.21-22.2c2.09-12.78,10.73-24.11,11-37a59,59,0,0,0-.88-9.64l-1.8-12.27c-1.16-7.88-2.61-15.37-7.35-21.93C271.33,65.92,272.23,56.83,280.49,56.94Z"/><path class="cls-3" d="M305.91,134.49a11.17,11.17,0,0,0-3.35,2.74,10,10,0,0,0-1.28,3.3l-3,11.78c-1.88-.71-2.42-3.11-2.43-5.13A25.44,25.44,0,0,1,305,127.61c2.93-2.4,6.53-4.27,8.35-7.6.69-1.27,1.82-3,3.11-2.34a2.52,2.52,0,0,1,1,1.69C319.36,126.34,311,131.27,305.91,134.49Z"/><path class="cls-3" d="M283.84,71a3.19,3.19,0,0,1-2.32,2.23,3.44,3.44,0,0,1-2.95-1.57,10.39,10.39,0,0,1-1.94-5c-.25-1.81,0-3.92,1.43-5,1.79-1.34,7.29-1.67,8.27.83C287,64.24,284.48,69.25,283.84,71Z"/></g><g id="eye-right"><path class="cls-2" d="M225.85,114.09c-3.4.28-6.72-1.67-8.75-4.41a7.34,7.34,0,0,1-1.66-4.25,7,7,0,0,1,.35-2.11,11.7,11.7,0,0,1,8.49-7.84,7,7,0,0,1,2.46-.17,10.13,10.13,0,0,1,4.24,2c3.5,2.34,6.79,5.52,4.55,9.76C233.73,110.41,229.77,113.76,225.85,114.09Z"/><path class="cls-4" d="M230.21,108.78a9.74,9.74,0,0,1-5.46,1.4,12,12,0,0,1-2.23-.25c-2.59-.51-5.31-2-5.92-4.61-.68-2.87,1.53-5.62,3.9-7.38a12.16,12.16,0,0,1,2.57-1.52C231.06,93.14,238.43,103.55,230.21,108.78Z"/><path class="cls-2" d="M223.73,104.73a2.29,2.29,0,0,1-1.95-.18,2.94,2.94,0,0,1-1-1.86,3.92,3.92,0,0,1-.11-1.83,4,4,0,0,1,1.33-1.8,6.22,6.22,0,0,1,1.17-.93c1.61-.9,4.25-.13,4.22,2A5.48,5.48,0,0,1,223.73,104.73Z"/></g><g id="eye-left"><path class="cls-4" d="M157.07,95.64A7.24,7.24,0,0,1,157,97.5a5,5,0,0,1-4.13,3.66,8,8,0,0,1-5.56-1.39,19.91,19.91,0,0,1-4.22-4c-1.56-1.86-3.13-4.12-2.66-6.5a5.8,5.8,0,0,1,3.83-4C152.27,82.24,156.72,88,157.07,95.64Z"/><path class="cls-3" d="M149.19,94.51a3,3,0,0,1-.84-.06A2.18,2.18,0,0,1,147,93.21a6.4,6.4,0,0,1-.48-1.84l-.13-.76a2.66,2.66,0,0,1,.15-1.85,1.77,1.77,0,0,1,2.06-.59,4,4,0,0,1,1.77,1.45c.66.84,1.52,2,1.32,3.15C151.43,94.05,150.37,94.46,149.19,94.51Z"/><path class="cls-2" d="M150.6,92.51a1.16,1.16,0,0,1-.49-.09,1.18,1.18,0,0,1-.42-.41,6.49,6.49,0,0,1-.76-3.17c0-.67,0-1.47.55-1.82a1.85,1.85,0,0,1,1-.2,3.66,3.66,0,0,1,1.74.26c.64.34,1,1,1.56,1.49.23.2.49.35.72.56.68.63,1.32,2.07.47,2.8S151.75,92.57,150.6,92.51Z"/></g></g><g id="face-outline"><path class="cls-5" d="M263.39,127.41a32.22,32.22,0,0,1-15.59,19c-4.62,2.45-9.83,3.76-14.11,6.76-8.91,6.25-11.59,18-13.86,28.66-2.5,11.7-5.41,23.6-11.92,33.65s-17.3,18.06-29.27,18.18a55,55,0,0,1-8.76-.84l-16.78-2.52c-3.62-.54-7.77-1.44-9.46-4.68a11.69,11.69,0,0,1-.95-5.09l-.55-16c-.63-18-.68-37.85,10.83-51.73"/><path class="cls-5" d="M145.87,160.8c-3.91-5.94-8-12.83-6.27-19.72,1.07-4.26,4.3-8,4.26-12.36s-3.29-8-5.11-12a38.24,38.24,0,0,1-2.54-10.2L131.1,73.33c-1-6.65-2-13.4-1.26-20.09"/><path class="cls-5" d="M132.57,84.74c-3.69,2.59-5.23,7.41-5.18,11.92s1.41,8.88,2.39,13.27a79.89,79.89,0,0,1,1.56,25c-.85,8.78-3.39,17.82-9.54,24.13-1.26,1.29-3.17,2.51-4.73,1.61-1.29-.75-1.49-2.51-1.46-4,.2-8.49,3-16.76,3.23-25.25.43-18.62-11.78-37-6.57-54.91a58,58,0,0,1,3.87-9.25L125.56,48"/><path class="cls-5" d="M117.46,75.61c-.85,12.21,2.59,24.26,6,36,1.06,3.69,2.28,7.61,5.25,10"/><path class="cls-5" d="M127.58,45.63c-2.09-5.17,3.26-10.1,7.94-13.13l26.74-17.31c4.91-3.18,9.87-6.38,15.34-8.45a83.08,83.08,0,0,1,13.93-3.51c5.39-1,10.85-2.06,16.32-1.63a44.78,44.78,0,0,1,9.89,2.08c14.44,4.54,27.27,13,39.89,21.37l27.65,18.33c4.15,2.75,8.34,5.54,11.72,9.19a53.22,53.22,0,0,1,7.8,11.82,172.62,172.62,0,0,1,13.45,34.46c2.54,9.38,4,20.23-1.65,28.1-4.13,5.72-11.42,8.84-14.63,15.11s-1.49,13.64-.64,20.56c.77,6.33.65,13.16-2.82,18.51s-11.28,8.23-16.49,4.57a16.37,16.37,0,0,1-4.64-5.89,65.36,65.36,0,0,1-7.65-27.24,33,33,0,0,1,.66-9.67c.72-3,2.05-5.78,3-8.71,4.13-12.93.26-26.91-3.6-39.92"/><path class="cls-5" d="M163.21,210.73c-.09,1.35,1.43,2.31,2.78,2.25a11.29,11.29,0,0,0,3.79-1.33,13.43,13.43,0,0,1,7.3-.93"/><path class="cls-5" d="M146.49,202.57c.74,1.53,2.37,2.4,3.91,3.13s3.19,1.51,4.08,3,.47,3.81-1.18,4.25"/><path class="cls-5" d="M216.18,105c1.29-4.07,3.84-8.39,8-9.09s8.08,2.61,11.15,5.7"/><path class="cls-5" d="M157.63,98.91a13.71,13.71,0,0,1-1.11,3.66l-5.51.07"/><path class="cls-5" d="M155.68,88.6c-3.09-.74-5.45-3.89-8.62-3.77-2.72.11-4.67,2.56-6.23,4.79"/><path class="cls-5" d="M158,191.6a15,15,0,0,0,16.25,4"/><path class="cls-5" d="M239.52,116.05c-.83,4.28-3.88,7.73-6.57,11.17s-5.21,7.51-4.69,11.85"/><path class="cls-5" d="M184.09,213.58,173,223.79a6.35,6.35,0,0,1-3.25,2c-3.18.42-6.15-3.89-9-2.34-.87.48-1.59,1.49-2.56,1.32-1.26-.22-1.29-2-1.63-3.19-1-3.6-6.67-4.42-7.33-8.09"/><path class="cls-5" d="M210.41,181.29c1.35,12.46-4.28,24.51-10,35.68"/><path class="cls-5" d="M282.23,111c1,13.16-1.32,27.2-9.73,37.37"/><path class="cls-5" d="M269.78,76.08V93.31"/></g><g id="body-outline"><path class="cls-5" d="M322.24,113.11c5,20.71-4.22,42.06-4.44,63.35a76,76,0,0,0,14.78,45.64c3.55,4.8,7.71,9.24,10.23,14.65,7.44,16-1.3,34.36-9.13,50.15-13.73,27.69-25.31,57.81-23.17,88.65.88,12.67,4.06,25.19,3.69,37.89a59.15,59.15,0,0,1-1.62,12.36c-2.88,11.71-11.69,23.37-23.73,24-2.45.12-4.92-.21-7.34.19a14.19,14.19,0,0,1-4.17.51c-5.11-.68-6.25-9-11.35-9.75-1.68-.24-3.59.43-5-.55-1.16-.82-1.38-2.43-1.48-3.85-1.39-19.93,1.66-39.87,4.71-59.61.56-3.66,1.17-7.45,3.26-10.51,1.75-2.57,4.4-4.39,6.41-6.76,8.9-10.5,2.69-26.83,6.7-40,2.51-8.23,8.87-14.65,13-22.18,6.23-11.24,7.38-24.49,8.4-37.29.31-6.23-5.41-9.22-9.61-12.33a34.25,34.25,0,0,0-15-5.86c-1.24-.2-2-1.5-3.24-1.84-1.82-.5-3.74,0-5.55.53L233,250.63a16.6,16.6,0,0,1-6.56.94,16.53,16.53,0,0,1-6-2.5l-26.83-15.62"/><path class="cls-5" d="M173,233,157.51,243c-2,1.33-4.17,2.74-5.38,4.86s-1.34,4.41-1.5,6.72l-2.4,34.6c-.37,5.27-.72,10.68.77,15.75,1,3.38,2.78,6.47,4.06,9.75,2.19,5.58,2.91,11.61,3.57,17.57q4.25,38.18,6.23,76.54a56.15,56.15,0,0,1-.28,12.16c-2.09,12.36-13.26,22.59-25.76,23.58-4.3.35-9.08-.52-11.87-3.83-1.51-1.78-2.3-4.13-4-5.69-1.47-1.32-3.44-1.91-5.18-2.85-6.26-3.36-9.1-11.07-8.93-18.17s2.76-13.89,4.85-20.68c12.14-39.39,8.16-81.82,1.7-122.53-1.66-10.42-3.47-20.92-2.88-31.46.23-4,.87-8.12,3.16-11.4,1.64-2.33,4-4.05,6.2-5.87a66.78,66.78,0,0,0,20.67-30"/><path class="cls-5" d="M287.34,408a335.2,335.2,0,0,1-1.56,43"/><path class="cls-5" d="M304.65,405.93l-2,36.14"/><path class="cls-5" d="M274.34,401.83l-1.89,14.64c-1,8-2.07,16-4.5,23.74"/><path class="cls-5" d="M151.48,393.8a67.25,67.25,0,0,1,2.69,18.6c0,8.79-1.66,17.64-.3,26.33"/><path class="cls-5" d="M137.52,404.54c1.14,6.39-.69,12.89-2,19.24s-2.13,13.31.87,19.07"/><path class="cls-5" d="M125.4,392.92c.88,13.24-8.09,25.76-6.72,39"/><path class="cls-5" d="M139.85,189.94l-19.78-26.46c-3.66-4.89-7.34-9.82-10-15.33-7.66-15.93-5.84-34.59-3.85-52.16,1.16-10.3,2.49-21,8.3-29.62"/><path class="cls-5" d="M101,99.13,69.44,148.3c-5.2,8.11-10.55,18.22-6.22,26.82,2.11,4.19,6.25,7.16,8,11.51,2.29,5.62.1,12-2.09,17.63a40.76,40.76,0,0,1-4.34,9c-5.75,8.16-17.95,10.91-26.64,6-2-1.11-4.38-2.59-6.3-1.37-6.32-16.69,9.59-35.73,3.44-52.49a31,31,0,0,1-1.91-5.48c-1.1-6.8,5.42-12.07,10.45-16.78C58.61,129.25,64.68,108.82,73,90.35A208.08,208.08,0,0,1,102,43.42"/><path class="cls-5" d="M103.09,122.45a88.72,88.72,0,0,1-32.24,28.07"/><path class="cls-5" d="M49,134.11q-14.43,6.27-28.38,13.55A48.86,48.86,0,0,0,12,153c-4.09,3.41-7,8-9.85,12.48,8.81,5.94,20.79,4.21,30.53,0"/><path class="cls-5" d="M76.06,80.69c.78-9-2.44-18.34.68-26.77a37.52,37.52,0,0,1,5.2-8.75l8-11.06c3.46-4.78,7-9.62,11.55-13.36,7.37-6.05,16.85-8.75,26-11.3,10.28-2.86,20.69-5.74,31.37-6,7.8-.17,15.67,1.08,23.38-.13,4.26-.67,8.73-2.06,12.76-.52"/></g></g></g></g></svg>