<svg xmlns="http://www.w3.org/2000/svg" viewBox="0 0 344.97 561.68"><defs><style>.cls-1{fill:#8a817c;}.cls-2{fill:#463f3a;}.cls-3,.cls-7{fill:#bcb8b1;}.cls-4,.cls-5,.cls-6,.cls-9{fill:none;}.cls-4,.cls-5,.cls-6,.cls-7{stroke:#8a817c;}.cls-4,.cls-5,.cls-6,.cls-7,.cls-9{stroke-miterlimit:10;}.cls-4,.cls-6,.cls-9{stroke-width:3px;}.cls-5,.cls-6,.cls-7{stroke-linecap:round;}.cls-5,.cls-7{stroke-width:5px;}.cls-8{fill:#fffcf2;}.cls-9{stroke:#363636;}</style></defs><g id="Layer_2" data-name="Layer 2"><g id="Porta_Potty" data-name="Porta Potty"><g id="porta-potty"><g id="left-ski"><path class="cls-1" d="M124.69,560.46l-113-69s-3.53-8.69-3.25-11.72C8.69,477,13.19,470,13.19,470l110.69,66.45,20.81-2.95s2.09,18.63-1.86,22.75C139.66,559.51,124.69,560.46,124.69,560.46Z"/><path class="cls-2" d="M30.81,483.24c2,.55,3.42,2.32,4.91,3.79,5.21,5.11,12.62,7.13,19.08,10.52,4.51,2.37,8.62,5.45,12.94,8.16,4.51,2.83,9.27,5.26,14,7.83a269.22,269.22,0,0,1,29.81,19c1.14.84,2.4,2.16,1.81,3.44L88,521.84l-5.29-3-25-14c-7.55-4.23-15.09-8.47-22.48-13-2.13-1.29-5.45-1.88-7.23-3.52A3,3,0,0,1,30.81,483.24Z"/><path class="cls-2" d="M130.07,556.86a12.9,12.9,0,0,0-3,.5.86.86,0,0,1-.75,0,.72.72,0,0,1-.22-.44,3.21,3.21,0,0,1,1.81-3.41,6.14,6.14,0,0,0,2.07-.9,12.24,12.24,0,0,0,.76-1.12c.49-.61,1.28-.9,1.84-1.45a15.16,15.16,0,0,0,1.4-2.22,7.15,7.15,0,0,1,4.12-2.44c1.31-.36,2.86-.55,3.89.34a3.46,3.46,0,0,1,1,2.62c0,1-.15,1.92-.1,2.89.14,2.86.42,5.4-3.18,5.37C136.52,556.59,133.37,556.57,130.07,556.86Z"/><path class="cls-2" d="M117.66,549.91a1.51,1.51,0,0,0-.73,0,2.62,2.62,0,0,0-.39.15,2.06,2.06,0,0,0-1,.87,1.57,1.57,0,0,0,2.14,2.15C118.93,552.56,119.14,550.32,117.66,549.91Z"/><path class="cls-2" d="M54.69,514.37a1.31,1.31,0,0,1,.65-.28,2.15,2.15,0,0,1,1.71.49c1.08.92,1.27,3.29-.61,3.18C55.08,517.68,53.34,515.51,54.69,514.37Z"/><path class="cls-2" d="M12.86,490a1.61,1.61,0,0,1,.24-1,1.71,1.71,0,0,1,.4-.35l.71-.5a2.64,2.64,0,0,1,.46-.27,1.51,1.51,0,0,1,.7-.09,2.76,2.76,0,0,1,1.89,1c1.19,1.36,1.14,4.26-1,4.65S12.91,491.82,12.86,490Z"/></g><g id="right-ski"><path class="cls-1" d="M304.06,510.19c4.91,3.12,11.08,5.67,16.4,3.32,2-.9,3.71-2.43,5.74-3.31,3.27-1.43,7.48-1.25,9.78-4s1.34-7.1,0-10.53c-.77-1.95-1.76-4-3.67-4.91s-4.35-.19-6.46.51c-5.63,1.84-11.38,3.28-17.13,4.72l-8.84,2.2L292.71,500a53.83,53.83,0,0,1-8,1.31C291.65,504.06,297.54,506,304.06,510.19Z"/><path class="cls-2" d="M322.8,499.77a4.71,4.71,0,0,0-3.33-2.52,18.16,18.16,0,0,0-4.3-.27,10.73,10.73,0,0,0-2.47.14,13.13,13.13,0,0,0-2.53,1c-4.33,1.95-9.25,2-13.85,3.17-.61.15-1.36.7-1,1.21a26.78,26.78,0,0,1,5.76,1.76,126.29,126.29,0,0,1,12.41,5.38c2.75,1.44,6.08,1.79,8.4-.77a5.2,5.2,0,0,0,1.06-3.15C323.1,503.94,323.51,501.48,322.8,499.77Z"/><path class="cls-2" d="M330.31,508.35A2.33,2.33,0,0,1,329,508a2.83,2.83,0,0,1-1-1.44,9.28,9.28,0,0,1-.47-4.64,1.94,1.94,0,0,1,.31-.87,1.73,1.73,0,0,1,.69-.47,5.32,5.32,0,0,1,4.16,0c1.67.72,3.52,2.6,2.72,4.52A5.89,5.89,0,0,1,330.31,508.35Z"/></g><g id="left-wall"><polygon class="cls-3" points="120.19 536.96 10.19 471.96 10.19 85.96 120.19 59.96 120.19 536.96"/><polygon class="cls-4" points="105.69 114.46 24.69 126.46 17.69 95.46 105.69 75.46 105.69 114.46"/><polygon class="cls-1" points="43.69 117.46 29.69 119.46 22.69 100.46 36.69 97.46 43.69 117.46"/><polygon class="cls-1" points="61.69 113.46 47.69 115.46 40.69 96.46 54.69 93.46 61.69 113.46"/><polygon class="cls-1" points="82.69 109.46 68.69 111.46 61.69 92.46 75.69 89.46 82.69 109.46"/><polygon class="cls-1" points="102.69 106.46 88.69 108.46 81.69 89.46 95.69 86.46 102.69 106.46"/><polygon class="cls-1" points="117.19 503.46 114.19 501.46 114.19 65.46 117.19 65.46 117.19 503.46"/><rect class="cls-1" x="14.69" y="85.46" width="3" height="360"/><line class="cls-5" x1="22.69" y1="139.46" x2="29.69" y2="150.46"/><line class="cls-5" x1="91.69" y1="148.46" x2="29.69" y2="150.46"/><line class="cls-5" x1="28.69" y1="223.46" x2="91.69" y2="226.46"/><line class="cls-5" x1="22.69" y1="236.46" x2="28.69" y2="223.46"/><line class="cls-5" x1="29.69" y1="265.46" x2="88.69" y2="271.46"/><line class="cls-5" x1="109.69" y1="295.46" x2="88.69" y2="271.46"/><line class="cls-5" x1="91.69" y1="376.46" x2="105.69" y2="364.46"/><line class="cls-5" x1="32.69" y1="353.46" x2="91.69" y2="376.46"/><line class="cls-5" x1="14.69" y1="445.46" x2="15.69" y2="469.46"/><line class="cls-5" x1="25.69" y1="463.46" x2="25.69" y2="469.46"/><line class="cls-5" x1="45.69" y1="475.46" x2="45.69" y2="481.46"/><line class="cls-5" x1="68.69" y1="488.46" x2="68.69" y2="492.46"/><line class="cls-5" x1="90.69" y1="501.46" x2="90.69" y2="506.46"/><line class="cls-5" x1="115.69" y1="517.46" x2="115.69" y2="522.46"/></g><g id="Front"><path class="cls-3" d="M329.19,493l-204.5,46.5L120.19,61s45.38-36.5,111.5-36.5c51,0,97.5,50.5,97.5,50.5Z"/><rect class="cls-1" x="127.69" y="63.46" width="7" height="438" rx="3.5"/><line class="cls-5" x1="162.69" y1="53.46" x2="162.69" y2="91.46"/><line class="cls-5" x1="140.69" y1="136.46" x2="162.69" y2="152.46"/><line class="cls-5" x1="140.69" y1="243.46" x2="162.69" y2="228.46"/><line class="cls-5" x1="162.69" y1="152.46" x2="162.69" y2="228.46"/><line class="cls-5" x1="162.69" y1="288.46" x2="162.69" y2="376.46"/><line class="cls-5" x1="140.69" y1="426.46" x2="162.69" y2="436.46"/><line class="cls-5" x1="162.69" y1="518.46" x2="162.69" y2="436.46"/><line class="cls-5" x1="140.69" y1="518.46" x2="140.69" y2="522.46"/><line class="cls-5" x1="155.69" y1="511.46" x2="155.69" y2="518.46"/><line class="cls-5" x1="298.69" y1="481.46" x2="298.69" y2="485.46"/><line class="cls-5" x1="309.69" y1="477.46" x2="309.69" y2="483.46"/><line class="cls-6" x1="321.69" y1="75.46" x2="321.69" y2="440.46"/><line class="cls-5" x1="321.69" y1="144.46" x2="321.69" y2="236.46"/><line class="cls-5" x1="321.69" y1="288.46" x2="321.69" y2="345.46"/><line class="cls-5" x1="321.69" y1="400.46" x2="321.69" y2="440.46"/><line class="cls-5" x1="304.69" y1="99.46" x2="321.69" y2="91.46"/><line class="cls-5" x1="298.69" y1="276.46" x2="321.69" y2="288.46"/><path class="cls-7" d="M291.69,501.46l-119,27V82.91a36.82,36.82,0,0,1,29.55-36.08c11.48-2.33,23.43-4.37,29.95-4.37s18.38,2,29.83,4.34A37,37,0,0,1,291.69,83Z"/><path class="cls-5" d="M184,97.67c6.34,3.13,12.81,6.29,19.8,7.33a72,72,0,0,0,13.14.28q28.17-1.07,56.36-.29"/><line class="cls-5" x1="286.69" y1="105.46" x2="286.69" y2="210.46"/><path class="cls-5" d="M183.69,216.46s14-6.5,45-6.5,45,3.5,45,3.5"/><path class="cls-5" d="M183.69,234.46s14-6.5,45-6.5,45,3.5,45,3.5"/><path class="cls-5" d="M183.69,255.46s14-6.5,45-6.5,45,3.5,45,3.5"/><path class="cls-5" d="M183.69,273.46s14-6.5,45-6.5,45,.5,45,.5"/><line class="cls-5" x1="283.69" y1="316.46" x2="283.69" y2="362.46"/><line class="cls-5" x1="283.69" y1="420.46" x2="283.69" y2="471.46"/><line class="cls-5" x1="196.69" y1="511.46" x2="273.69" y2="493.46"/><path class="cls-5" d="M183.69,436.46s37.72,1.47,50-.89c10.5-2,40-15.11,40-15.11"/><path class="cls-5" d="M183.69,396.46s36.47,2.8,48.5,1.21c13.31-1.75,51.5-15.21,51.5-15.21"/><path class="cls-5" d="M183.69,412.46s36.49,3.25,48.5,1.54c10.8-1.55,41.5-13.54,41.5-13.54"/><rect class="cls-1" x="260.69" y="276.46" width="26" height="26"/><rect class="cls-2" x="277.69" y="276.46" width="6" height="26"/><rect class="cls-2" x="264.69" y="285.46" width="5" height="10"/></g><g id="roof"><path class="cls-1" d="M23.69,39.46h24s.88,7.38.64,9.78c-.43,4.29,1.13,8.59.7,12.89-.94,9.26-24.34,9.33-24.34,9.33s0-8-.15-11.86C24.45,57.45,23.69,39.46,23.69,39.46Z"/><path class="cls-8" d="M128.07,60.63a76.72,76.72,0,0,0,11.17-2.36c4.78-1.56,9.12-4.18,13.48-6.68,26.91-15.46,58-27.58,88.46-21.49a106.54,106.54,0,0,1,13.67,3.8,170.62,170.62,0,0,1,57.76,33.54C320.16,74.11,328.94,82,338.82,80a21.45,21.45,0,0,0-6.41-16.92,42.4,42.4,0,0,0-8.91-6L302.63,45.35c-22.3-12.52-44.74-25.09-68.83-33.67s-50.16-13-75.39-8.83C147.63,4.66,137.17,8,126.77,11.34L96.66,21C80.21,26.27,63.1,31.94,50.85,44.12,43.57,51.37,38,60.88,28.72,65.23c-5.14,2.41-11,3-16,5.8C9.22,73,4.65,78.31,6.3,82.79c1.85,5,7.4,4,11.58,3.48,12.51-1.46,24.9-4.38,37.08-7.48C79.29,72.59,103.26,64.79,128.07,60.63Z"/><path class="cls-2" d="M38.49,52.51a.34.34,0,0,0,.09.28.34.34,0,0,0,.31,0,4.57,4.57,0,0,0,2.21-1.48,7.1,7.1,0,0,1,1.2-1.41c.53-.38,1.22-.48,1.76-.85a7.29,7.29,0,0,0,1.38-1.69A9.62,9.62,0,0,0,47,45.51a2.38,2.38,0,0,0-1.08-3.07,7.18,7.18,0,0,0-4.62-.84c-.48,0-1,.06-1.45.12-.76.1-.8,0-1,.68a12.06,12.06,0,0,0-.19,3.07C38.51,47.81,38.47,50.16,38.49,52.51Z"/><path class="cls-3" d="M123.31,51c-2.62-.69-5.26-1.95-6.7-4.25s-1.16-5.8,1.14-7.23c.93-.57,2.06-.75,3-1.26a12,12,0,0,0,3.27-3c5.28-6,12.49-10,19.57-13.83,11.14-6,22.68-11.87,35.23-13.38,10.19-1.22,20.47.54,30.59,2.29,20.92,3.62,43,7.77,59,21.76-4.16-1.59-8.33-3.17-12.61-4.43-18.75-5.53-38.94-4.53-58-.23C183.67,30.6,170,35.55,156.6,40.9,145.85,45.19,135.53,54.22,123.31,51Z"/><path class="cls-3" d="M70.48,39.9c-2.8,2-5.59,3.9-8.18,6.1-6.38,5.44-11.56,12.45-19,16.37a9.12,9.12,0,0,1,.88-7.47,27.09,27.09,0,0,1,4.93-6,80.33,80.33,0,0,1,10.15-9,58.07,58.07,0,0,1,5.42-3.35c4-2.24,24.81-16,29.07-12.27C90.17,28,74.81,36.88,70.48,39.9Z"/><path class="cls-3" d="M68.07,57.53c-1.46-3.7-.59-8,1.44-11.44s5.09-6.11,8.2-8.58a129.1,129.1,0,0,1,50.23-24.37c-2.52.6-6,4-8.49,5.16-2.35,1.1-4.84,1.85-7.21,2.89a54.75,54.75,0,0,0-13.8,9.12C88.13,39.18,79.56,50.07,68.07,57.53Z"/><path class="cls-3" d="M92.28,49.72c-.92-7.27,5.76-13.1,12-16.92,20.82-12.75,45-23,69.38-23.84-1,2.45-4,6.37-6.56,6.94-10.55,2.32-21.32,3.6-31.78,6.31-8.21,2.13-20.15,5.45-25.82,12.26-2.06,2.49-2.63,5.67-4.81,8.15A24.93,24.93,0,0,1,92.28,49.72Z"/></g><g id="outline"><path class="cls-9" d="M331,80c-1.53,108,.94,219-.59,327-.37,26.66,1.25,51.54.23,81.84-.08,2.41,5.75,2.76,6.19,5.14.61,3.34,1.68,6.88.62,10.11-1.79,5.45-7,4.47-9.9,6.58-3.21,2.29-7.3,4.62-11.27,4.79-7.59.31-6.62-.92-17.07-6.11-1.9-.94-5-3.38-7.14-3.64-3.68-.47-7.38,1.36-11,2.18-43.19,9.8-86.37,16.59-129.56,26.39-10.21,2.31-18.8,6.64-29,4.52-9.31-1.92-19.46-12.32-27.36-17.61-26.23-17.58-52.47-28.17-78.71-45.75-2.92-2-5-2.06-6.52-5.22-1.37-2.77-.39-6-.38-9.07C9.79,336.66,8.06,212.26,8.33,87.86"/><path class="cls-9" d="M146,536.57l-.77,14.57c-.12,2.13-.32,4.48-1.85,6-1.36,1.32-3.39,1.6-5.27,1.81l-8.69,1a18,18,0,0,1-7.29-.19c-2.81-.87-5-3-7.37-4.75-6.5-4.64-15.06-6.08-20.87-11.55-1.64-1.54-3.06-3.4-5.08-4.38-1.69-.82-3.65-.95-5.37-1.7a18.36,18.36,0,0,1-4.68-3.53A58.91,58.91,0,0,0,61.87,523c-2.71-1.13-5.5-2.06-8.15-3.34a69.09,69.09,0,0,1-10.36-6.61l-13.63-9.88c-3.26-2.36-6.53-4.73-9.91-6.92A116.38,116.38,0,0,0,9.6,490.38a5.08,5.08,0,0,1-2.42-1.94,4.62,4.62,0,0,1-.34-2.25,36.14,36.14,0,0,1,3.05-13.7"/><path class="cls-9" d="M330.8,491.13c-14.3,1.95-25.74,16-40.13,14.81"/><path class="cls-9" d="M121.56,537.06l-.16-296.12,0-45.94,0-39.81q0-46,0-92"/><path class="cls-9" d="M153.27,50.08C163.64,43,175.93,39.46,188,36c16.61-4.76,34-9.56,50.94-6.26,8,1.55,15.49,4.84,22.91,8.16,12.86,5.75,25.82,11.79,36.58,20.88,8.85,7.48,16.29,17.06,26.87,21.8,3.47,1.56,7.39,2.54,11.09,1.65s7-4.08,7.1-7.89c.08-4.4-3.83-7.72-7.41-10.29a450.08,450.08,0,0,0-79.37-45.47A232.74,232.74,0,0,0,229.61,8.22a156.9,156.9,0,0,0-44.15-6.71c-35.41-.29-69.71,11.32-103.2,22.8-8.4,2.88-17,5.84-24,11.21-5.1,3.87-9.23,8.85-13.55,13.57-8.53,9.34-18.29,18-30.16,22.37-3.35,1.22-6.93,2.13-9.7,4.39S.43,82.28,2.3,85.31C4.55,89,9.88,88.66,14.11,87.89l33.43-6.07C68.84,78,89.89,70.62,111.17,67.5,128.73,64.94,138.4,60.22,153.27,50.08Z"/><path class="cls-9" d="M173.64,528.58c-11.76-58.45-2.67-118.81-3-178.43-.2-38.72-4.38-77.39-3.19-116.09,1-32.61,5.82-65.21,3.23-97.73-1.25-15.67-4.22-31.33-3-47s7.33-32,20.37-40.77c7.39-5,16.31-7.13,25.11-8.53,15.13-2.41,30.91-2.86,45.5,1.84S286.52,57,291.85,71.37c3.43,9.25,3.41,19.37,3.35,29.24q-1.15,201.92-.26,403.83"/><path class="cls-9" d="M285.79,304.68c-10.63.63-15.93.1-22.65,0a3.69,3.69,0,0,1-3.61-4.06c.59-5.76.05-16.25-.12-22.14a3.29,3.29,0,0,1,3.69-3.35c8.3,1,21.65,1.07,21.65,1.07S286,296.46,285.79,304.68Z"/><path class="cls-9" d="M26.93,111.68A28.21,28.21,0,0,0,25.2,107c-1.16-2.25-3-4.41-2.8-6.94l11.06-3.3c.9-.27,2-.51,2.7.11a2.9,2.9,0,0,1,.7,1.29l3.9,11.7,2.29,6.87c.15.45.28,1,0,1.33a1.33,1.33,0,0,1-1,.28c-3.29,0-8.2,2-11.24,1.46C28.19,119.36,27.74,114.34,26.93,111.68Z"/><path class="cls-9" d="M44.45,105.13c-1-2.8-2-5.61-2.76-8.5q6.14-1.25,12.15-3a132.39,132.39,0,0,0,6.55,15.64c.81,1.56,1.72,3.24,1.48,5-3.2.06-9.94,2.35-12.74,1.18S45.39,107.72,44.45,105.13Z"/><path class="cls-9" d="M64.87,101.35C64.25,99,62.51,97,61.74,94.68a1,1,0,0,1,.44-1.47A22.29,22.29,0,0,1,69.87,91l6-.93a88.56,88.56,0,0,0,7.06,19.51c-3.53.95-9.45,3.06-13.07,1.6C65.5,109.49,65.83,105,64.87,101.35Z"/><path class="cls-9" d="M82.16,89.77a13.59,13.59,0,0,0,6.13-.68c1.92-.68,3.8-1.82,5.83-1.6a1.6,1.6,0,0,1,.77.25,1.85,1.85,0,0,1,.49.74l6.18,13.68A10.06,10.06,0,0,1,102.7,106a1.22,1.22,0,0,1-.33,1,1.35,1.35,0,0,1-.79.2c-3.82.18-10.66,2.12-13.2-1.52C87.05,103.77,84.11,90,82.16,89.77Z"/><path class="cls-9" d="M24.38,65.46l-1.12-26.7a77.25,77.25,0,0,0,15.25-1.44c3-.59,6.54-1.16,8.55,1.09,1.44,1.61,1.41,4,1.29,6.17"/></g></g></g></g></svg>