<svg xmlns="http://www.w3.org/2000/svg" viewBox="0 0 388.47 244.75"><defs><style>.cls-1{fill:#bcb8b1;}.cls-2{fill:#8a817c;}.cls-3{fill:#fffcf2;}.cls-4{fill:#f5ebe0;}.cls-5{fill:#e3d5ca;}.cls-6{fill:#d5bdaf;}.cls-7{fill:#463f3a;}.cls-10,.cls-8,.cls-9{fill:none;stroke-linecap:round;stroke-miterlimit:10;}.cls-8{stroke:#363636;stroke-width:2px;}.cls-9{stroke:#d5bdaf;}.cls-10,.cls-9{stroke-width:3px;}.cls-10{stroke:#fffcf2;}</style></defs><g id="Layer_2" data-name="Layer 2"><g id="Layer_3" data-name="Layer 3"><g id="sink"><g id="sink-2" data-name="sink"><g id="drain"><path class="cls-1" d="M185.34,204.19h18a0,0,0,0,1,0,0v30a9,9,0,0,1-9,9h0a9,9,0,0,1-9-9v-30A0,0,0,0,1,185.34,204.19Z"/><rect class="cls-2" x="190.84" y="209.69" width="10" height="20" rx="3"/><rect class="cls-3" x="193.84" y="207.69" width="5" height="27" rx="2"/></g><path id="drain-top" class="cls-4" d="M175.34,199.19h35a0,0,0,0,1,0,0v6.23a4.77,4.77,0,0,1-4.77,4.77H180.11a4.77,4.77,0,0,1-4.77-4.77v-6.23A0,0,0,0,1,175.34,199.19Z"/><g id="basin"><path class="cls-5" d="M248.36,202.69H140.25a1.91,1.91,0,0,1-.78-.16l-82-34.5a2,2,0,0,1,.77-3.84H315.12A2,2,0,0,1,316,168l-66.76,34.5A2.11,2.11,0,0,1,248.36,202.69Z"/><path class="cls-4" d="M243.49,201.69H142a2,2,0,0,1-1.76-1.06l-5.87-11a2,2,0,0,1,1.77-2.94H247.89a2,2,0,0,1,1.86,2.74l-4.4,11A2,2,0,0,1,243.49,201.69Z"/></g><g id="rim"><path class="cls-4" d="M370.18,165.19H17.4a7,7,0,0,1-7-6L8.63,147.28,1.84,137.19l.5-16h384l-.77,11.87-6.23,10.13L378.71,157A8.53,8.53,0,0,1,370.18,165.19Z"/><path class="cls-6" d="M13.12,124.56a4.59,4.59,0,0,1,2.36.24c1.46.7,1.78,2.58,2,4.18,1.43,11,6.16,21.73,4.71,32.7a5.24,5.24,0,0,1-.91,2.68c-1.63,2-5.11,1-6.73-1.08-2.85-3.6-2.69-8.79-3.91-13-1.28-4.43-3.59-8-5.78-11.94-1.62-2.94-3-5.4-2.09-8.89C4.18,123.93,8.11,124.89,13.12,124.56Z"/></g><polygon id="top" class="cls-4" points="386.34 121.19 2.84 121.69 34.34 87.19 359.84 87.69 386.34 121.19"/><g id="basin-top"><path class="cls-4" d="M313.4,117.19H82.27a3,3,0,0,1-2.19-5l9.37-10a3,3,0,0,1,2.19-1H296.52a2.94,2.94,0,0,1,1.53.42l16.88,10A3,3,0,0,1,313.4,117.19Z"/><circle class="cls-7" cx="183.84" cy="111.69" r="3"/><circle class="cls-7" cx="195.84" cy="111.69" r="3"/><circle class="cls-7" cx="207.84" cy="111.69" r="3"/></g><path class="cls-8" d="M275.09,87.9l-95-.88-51.17-.47"/><g id="faucet"><path class="cls-1" d="M194.34,8.19h0a5,5,0,0,1,5,5v75a0,0,0,0,1,0,0h-10a0,0,0,0,1,0,0v-75a5,5,0,0,1,5-5Z"/><rect class="cls-2" x="192.84" y="34.69" width="2" height="52"/><rect class="cls-3" x="195.84" y="34.69" width="2" height="52"/><circle class="cls-1" cx="193.84" cy="26.69" r="8"/><path class="cls-2" d="M197.16,13.86a1.44,1.44,0,0,1-1.62-.31,2.94,2.94,0,0,1-.76-1.57c-.13-.67-.05-1.53.57-1.82s1.48.35,1.89,1a3.31,3.31,0,0,1,.53,1.45,1.55,1.55,0,0,1-.6,1.37"/><path class="cls-1" d="M200.44,29a8.18,8.18,0,0,1-3.59,2.69,3.41,3.41,0,0,1-4-1.35c-.81-1.53.09-3.37,1-4.88a189.85,189.85,0,0,0,9.88-19.71c.85-2,1.88-4.15,3.9-4.86A4.76,4.76,0,0,1,210,.76a6.49,6.49,0,0,1,5.21,6.41c-.17,4.58-4.54,7.65-7.27,10.82C205,21.38,203.4,25.62,200.44,29Z"/><path class="cls-3" d="M192.33,28.16A4.22,4.22,0,0,0,190,27c-.87,0-1.81.79-1.56,1.62a1.94,1.94,0,0,0,.32.56c.88,1.18,4.65,4.44,6.37,3.36C197.11,31.34,193,28.67,192.33,28.16Z"/><path class="cls-3" d="M195,23.45a5,5,0,0,1-3.9-.72.83.83,0,0,1-.42-.52.75.75,0,0,1,.09-.41,2.9,2.9,0,0,1,1.76-1.41,8.47,8.47,0,0,1,2.3-.27,5,5,0,0,1,1.77.16,1.67,1.67,0,0,1,1.18,1.23,1.7,1.7,0,0,1-.89,1.64,4.92,4.92,0,0,1-1.89.55"/><path class="cls-1" d="M216.84,34.69h-10V4.81A4.12,4.12,0,0,1,211,.69h0a4.12,4.12,0,0,1,4.11,3.88Z"/><path class="cls-2" d="M214.24,30.89a1.79,1.79,0,0,1-.34,1.27,1.69,1.69,0,0,1-1,.41c-1.11.22-2.4.39-3.28-.34a3.87,3.87,0,0,1-1-2.76,93.4,93.4,0,0,1-.19-10.58,6.33,6.33,0,0,1,.52-2.67c.61-1.19,2.86-2.86,4.3-2.38s1.13,2.32,1.13,3.43C214.38,21.81,214.28,26.35,214.24,30.89Z"/><path class="cls-3" d="M212,14.21a2.54,2.54,0,0,1-.16,1.19,1.58,1.58,0,0,1-1.72.77A2.52,2.52,0,0,1,208.5,15a3.72,3.72,0,0,1-.55-1.51,7.6,7.6,0,0,1,0-1.58l.57-6.56c.23-2.75,3.05-.77,3.23,1C212,8.9,211.86,11.62,212,14.21Z"/><path class="cls-3" d="M213.64,17.29A1.38,1.38,0,0,1,214,18c.28,1.34-.21,2.7-.37,4.06a17.32,17.32,0,0,0-.06,2.16l.06,4a4.59,4.59,0,0,1-.67,3,2.31,2.31,0,0,1-2.77.56,1.07,1.07,0,0,1-.28-.19c-.52-.49-.3-1.35-.07-2a29.19,29.19,0,0,0,1.44-8.14c0-1-.11-2.05,0-3S212.59,16.19,213.64,17.29Z"/><rect class="cls-1" x="204.84" y="32.69" width="16" height="5" rx="2.5"/><rect class="cls-1" x="182.34" y="92.69" width="24" height="5.5" rx="2.75"/><rect class="cls-1" x="186.84" y="78.69" width="15" height="17" rx="3"/><rect class="cls-3" x="195.84" y="78.69" width="2" height="7" rx="1"/><rect class="cls-3" x="192.84" y="89.69" width="3" height="6" rx="1"/><rect class="cls-3" x="187.84" y="85.69" width="13" height="4" rx="1"/><rect class="cls-2" x="196.84" y="90.69" width="4" height="4" rx="1"/><rect class="cls-2" x="192.84" y="79.69" width="3" height="6" rx="1"/></g><g id="right_handle" data-name="right handle"><path class="cls-1" d="M248.08,95.19H237.74a3,3,0,0,1-3-3.35c.51-4.34,1.33-11.71,1.31-14.83,0-.75-.14-2.14-.3-3.48a3,3,0,0,1,3-3.34h5.84a3,3,0,0,1,3,3.14,13.51,13.51,0,0,0,0,2.24c.25,1.86,2,5.29,2.36,7.12s.84,6.21,1.11,9.23A3,3,0,0,1,248.08,95.19Z"/><path class="cls-2" d="M246.13,74.19a3.93,3.93,0,0,0-.33-1.44,1.17,1.17,0,0,0-1.21-.68c-.43.1-.71.52-1,.83-1.19,1.15-3.25,1-4.39,2.16a4.89,4.89,0,0,0-1,3.32c-.07,2.35-.06,4.71,0,7.06a4.41,4.41,0,0,0,.44,2.1,3.94,3.94,0,0,0,2.59,1.54,16.14,16.14,0,0,0,4.43.43c1.18-.05,2.95-.37,3.28-1.7a11.78,11.78,0,0,0-.35-4C248.05,80.57,246.52,77.52,246.13,74.19Z"/><path class="cls-3" d="M246,82.06a4.18,4.18,0,0,0-.36-2,1.45,1.45,0,0,0-1.72-.76c-.7.3-.86,1.21-.9,2C243,82.49,243,83.73,243,85s.5,3.86,2.17,2.59C246.63,86.43,246.05,83.62,246,82.06Z"/><path class="cls-3" d="M242.75,73.08a.84.84,0,0,0-.26-.5.79.79,0,0,0-.43-.11,1.16,1.16,0,0,0-1,.27c-.2.24-.16.6-.32.87a2.84,2.84,0,0,1-.52.52,2.58,2.58,0,0,0-.5,1.85,2.22,2.22,0,0,0,.49,1.64,2,2,0,0,0,2.73-.55C243.5,76.05,243,74.13,242.75,73.08Z"/><rect class="cls-1" x="229.84" y="91.69" width="24" height="7" rx="3.5"/><path class="cls-1" d="M284.49,67.92a2.58,2.58,0,0,0,1.26-.85,2.73,2.73,0,0,0,.38-1.27,4.08,4.08,0,0,0-.48-3.06,4.23,4.23,0,0,0-2.12-1.14l-4-1.24a7.3,7.3,0,0,0-2.69-.47,4.76,4.76,0,0,0-3.92,3.9c-.45,2.18-.16,6.15,2.71,6A29.42,29.42,0,0,0,284.49,67.92Z"/><path class="cls-2" d="M275.14,63.1c-.06-3,4.65-.2,3.88,2.51-.26.9-1.57,2.55-2.63,2.08S275.16,64.12,275.14,63.1Z"/><path class="cls-3" d="M271.56,70.31a4.35,4.35,0,0,0,2.55-.87,4,4,0,0,0,1-2.51,16.79,16.79,0,0,0-.16-5.1,1.66,1.66,0,0,0-.39-.93,1.73,1.73,0,0,0-1.28-.33q-11.49.07-22.94,1.18c-1.91.18-4.56,2-3.25,4.27,1,1.66,4.73,2.27,6.35,2.73A48.26,48.26,0,0,0,271.56,70.31Z"/><path class="cls-2" d="M239.33,94.52a1.17,1.17,0,0,1-.49-.23.89.89,0,0,1,.09-1.26,2.57,2.57,0,0,1,1.3-.54,30,30,0,0,1,3.41-.58c1.16-.11,4.12-.6,5.11.08s.61,2.28-.21,2.83c-1.11.74-3.06.45-4.3.41A19.35,19.35,0,0,1,239.33,94.52Z"/><path class="cls-3" d="M240.53,97.63a3,3,0,0,0-1-.3c-.31,0-.61.07-.92,0a1,1,0,0,1-.81-.64,1,1,0,0,1,.21-1,1.94,1.94,0,0,1,1.25-.39,17.31,17.31,0,0,1,3.74.16c.7.12,3,.49,3.33,1.26C247.09,98.55,241.41,98,240.53,97.63Z"/><circle class="cls-1" cx="241.84" cy="64.69" r="7"/><path class="cls-2" d="M241.62,65.53a4.22,4.22,0,0,1-1.66-.1,3.26,3.26,0,0,1-1.61-1.54,2.39,2.39,0,0,1-.37-1,1.88,1.88,0,0,1,.25-1,4.11,4.11,0,0,1,2.3-1.95,6.18,6.18,0,0,1,3.05-.2,2.74,2.74,0,0,1,.94.31,3.1,3.1,0,0,1,.63.57l.75.82a2.3,2.3,0,0,1,0,3.44C244.86,65.66,242.81,65.43,241.62,65.53Z"/><path class="cls-3" d="M243.76,61.89a1.38,1.38,0,0,0-.36-.4,1.65,1.65,0,0,0-.45-.19c-.41-.12-.82-.21-1.24-.29a.29.29,0,0,0-.16,0c-.06,0-.1.09-.13.15a2.07,2.07,0,0,0-.27,1,2.13,2.13,0,0,0,.73,1.26l.52.53a2.17,2.17,0,0,0,.52.44c.51.28,1.45.41,1.64-.3S244.13,62.44,243.76,61.89Z"/></g><g id="left-handle"><path class="cls-1" d="M158.56,93.19h-14a3,3,0,0,1-3-3.21c.28-3.92.86-10.36,1.77-13,.69-2,3.62-6.37,5.12-8.55a3,3,0,0,1,2.47-1.29h5.25a3,3,0,0,1,2.86,2.1,85,85,0,0,1,2.77,10.4,83.26,83.26,0,0,1-.24,10.7A3,3,0,0,1,158.56,93.19Z"/><path class="cls-2" d="M158.79,82.84a3.49,3.49,0,0,1-.3,1.47,3.78,3.78,0,0,1-2.1,1.57,9.26,9.26,0,0,1-5.18.86c-2.8-.55-4.77-3.33-5.17-6.16s.43-5.69,1.47-8.35A3.7,3.7,0,0,1,149,70.16a3.2,3.2,0,0,1,3.21.6,18.92,18.92,0,0,1,4.58,4.78A12.76,12.76,0,0,1,158.79,82.84Z"/><path class="cls-3" d="M155.48,77a1.32,1.32,0,0,1-.08.56,1.15,1.15,0,0,1-.64.52,3.83,3.83,0,0,1-5.27-4.3,7.73,7.73,0,0,1,2.42-3.63c1-1,3-2.61,3.54-.28C155.94,72,155.47,74.84,155.48,77Z"/><rect class="cls-1" x="139.84" y="90.69" width="25" height="7" rx="3.5"/><path class="cls-2" d="M155.33,96.29a.59.59,0,0,1-.18-.35c0-.23.19-.41.37-.54.8-.57,4.53-2.25,4.19-.05C159.46,97,156.27,97.22,155.33,96.29Z"/><path class="cls-3" d="M150.2,94.86c-1.13,0-2.46-.12-3.08-1.08a.93.93,0,0,1-.15-.37,1.06,1.06,0,0,1,.11-.63,2.27,2.27,0,0,1,1.42-1.11,6.6,6.6,0,0,1,1.83-.21c1.25,0,3.92-.4,3.61,1.69C153.69,94.8,151.46,94.87,150.2,94.86Z"/><path class="cls-1" d="M111.68,63.24a3.45,3.45,0,0,1-.32-1.25,3,3,0,0,1,2.14-2.62,15.5,15.5,0,0,1,3.54-.59c2.4-.32,4.68-.77,5.95,1.76a4.64,4.64,0,0,1-.47,5.18C119.44,69.08,113.34,67,111.68,63.24Z"/><path class="cls-2" d="M121.14,64.75a1.41,1.41,0,0,1-.74.47,5,5,0,0,1-.78.23.91.91,0,0,1-.4,0,.8.8,0,0,1-.36-.2,2.57,2.57,0,0,1-.92-1.5,4.73,4.73,0,0,1,.13-2c.36-1.54,1.86-1.86,2.76-.47C121.27,62,121.59,64.09,121.14,64.75Z"/><path class="cls-3" d="M129.69,68.93a21.6,21.6,0,0,1-2.55.27,10,10,0,0,1-4.08-.75,4.34,4.34,0,0,1-1.47-.92,4.69,4.69,0,0,1-1-3.47,16,16,0,0,1,.43-3.23,3.21,3.21,0,0,1,1.13-2,3.09,3.09,0,0,1,.92-.38,21,21,0,0,1,8.62-.28c2.86.42,5.67,1.16,8.51,1.7,1.6.3,3.2.53,4.81.7a4.75,4.75,0,0,1,2.44.7,3.27,3.27,0,0,1,.74,3.79c-.42,1-1.46,1.22-2.43,1.53a49,49,0,0,1-10.21,1.74C133.62,68.51,131.65,68.67,129.69,68.93Z"/><ellipse class="cls-1" cx="153.34" cy="63.69" rx="6.5" ry="6"/><path class="cls-2" d="M152.54,65.26a2.61,2.61,0,0,1-1.77-.39c-1-.68-1.08-2.05-1.1-3.23a2.23,2.23,0,0,1,.07-.78,2.27,2.27,0,0,1,.7-.87,1.42,1.42,0,0,1,.78-.43c.55,0,.93.54,1.06,1.07a3.51,3.51,0,0,1,.08,1.25c-.05.44-.15,1,.2,1.25a.78.78,0,0,0,1-.16,2.66,2.66,0,0,0,.52-.95,3.61,3.61,0,0,1,1.09-1.49,1.81,1.81,0,0,1,1.76-.25c1.69.78.11,2.17-.6,2.89A6.4,6.4,0,0,1,152.54,65.26Z"/><path class="cls-3" d="M155.46,64.44a5.14,5.14,0,0,1-.16.78,2.39,2.39,0,0,1-2.7,1.49,1.32,1.32,0,0,1-1-.91,1.48,1.48,0,0,1,.47-1.17,4.38,4.38,0,0,0,.82-1c.39-.83-.1-3.61,1.56-3.29C155.85,60.61,155.57,63.43,155.46,64.44Z"/></g></g><g id="dark"><path class="cls-9" d="M24.43,138.2a225.54,225.54,0,0,0,52.13.53c6-.63,11.91-1.51,17.9-1.42s12,1.15,18,1.77c9.93,1,19.94.89,29.92.74l91.85-1.38"/><path class="cls-9" d="M272.11,138.43q31.53-2,63.14-1.3"/><path class="cls-9" d="M23.15,146.44q106.75.78,213.51-.23"/><path class="cls-9" d="M274.14,144.9l26.89-.59"/><path class="cls-9" d="M347.07,143.22l31-1.09"/><path class="cls-9" d="M124.11,171.72q84.11-3.22,168.3-1.36"/><path class="cls-9" d="M371.23,135.1a37.58,37.58,0,0,0,9.11-.49"/><path class="cls-9" d="M45.42,95a217.68,217.68,0,0,0,26.91-.16"/><path class="cls-9" d="M92,96q19.86,0,39.69-1.19"/><path class="cls-9" d="M257.62,95.76q26.91-1,53.82-2.06"/></g><g id="light"><path class="cls-10" d="M98.81,102.29q101.07-1.38,202.15-1"/><path class="cls-10" d="M255.33,91.53q42.87-1.23,85.78-.09"/><path class="cls-10" d="M206,89.9c5.93.28,11.88,2.14,17.8,1.57"/><path class="cls-10" d="M28.5,97.69a25.17,25.17,0,0,1-4.61,7.11c-5.29,6.41-10.65,12.88-17.38,17.73l.12-1.1"/><path class="cls-10" d="M24.88,123.83q52.26-.8,104.5.65"/><path class="cls-10" d="M303.74,106.32a90.44,90.44,0,0,0,9.53,7.82"/><path class="cls-10" d="M85.84,114.54a12.86,12.86,0,0,1,8-8.89"/><path class="cls-10" d="M210.54,123.75c42.75-3,85.71-5.74,128.4-2"/><path class="cls-10" d="M183.22,206.86q11.63.7,23.28.31"/></g><g id="outline"><path class="cls-8" d="M56.11,168.38l67.44,27.78c7.11,2.93,14.3,5.88,21.89,7.1,8.06,1.31,16.29.62,24.45.17A402.37,402.37,0,0,1,229,204.54c6.16.57,12.45,1.27,18.5-.06,4.58-1,8.83-3.16,13-5.28l61.91-31.41"/><path class="cls-8" d="M175.5,203.4c1.54,2.74,3.29,5.67,6.2,6.87a14.18,14.18,0,0,0,5.19.75l12,.23c3.28.06,6.63.11,9.76-.86s6.08-3.15,7.1-6.27"/><path class="cls-8" d="M186,212.39v18.72c0,4.28.43,9.36,4.13,11.52,1.89,1.11,4.2,1.13,6.39,1.12,1.73,0,3.59-.05,5-1.06,2.26-1.62,2.37-4.88,2.25-7.66q-.47-10.64-.91-21.28"/><path class="cls-8" d="M128.9,86.55l-30.44-.29-50.63-.47c-4.61,0-9.4,0-13.57,1.92-3.88,1.83-6.8,5.18-9.6,8.43L7,116.65c-2.09,2.42-4.22,4.92-5.25,7.94-2.93,8.56,3.45,16.55,6.62,24,2.46,5.77,2.39,13.44,8.1,16.88,7.22,4.34,22.8,2.86,31,3.27,11.45.57,22.91.69,34.37.77,88.29.64,176.59-.86,264.88-2.35,10.37-.18,21.34-.53,30.08-6.11a10.91,10.91,0,0,0,4.44-4.64c1.26-3,.2-6.43.27-9.7.16-6.77,5.25-12.59,5.86-19.34.58-6.45-3-12.57-7.39-17.36s-9.58-8.81-13.4-14c-1.66-2.28-3.16-4.87-5.66-6.19-2-1.07-4.44-1.11-6.74-1.13l-79.13-.74"/><path class="cls-8" d="M279.44,98.51c7.2-.31,15-.49,20.91,3.57,3.3,2.26,5.64,5.57,7.72,9a2.33,2.33,0,0,1-1.37,3.44c-7.8,2.18-16,2.61-24.15,3l-105.9,5.35c-9.21.47-18.43.93-27.65.84-11.26-.11-22.49-1-33.71-2l-35.72-3A3.29,3.29,0,0,1,76.84,117c-.73-1.54.37-2.76,1.38-3.75,10-9.83,12.62-11.79,27-11.67q21.06.19,42.11.1,42.53-.17,85-1.41Q255.89,99.54,279.44,98.51Z"/><path class="cls-8" d="M4.29,122.15c25.94,2.78,52,4.63,78.05,5.39,41.12,1.19,82.27-.36,123.38-1.93q81.11-3.09,162.19-6.26c4.65-.18,10.4-1.17,11.73-5.62"/><path class="cls-8" d="M229.56,92.31c-1.52,1.65-1.15,5.84,1.09,5.86,1.69,0,4.15.62,6.38.82s18.31,2.2,17-4a12.2,12.2,0,0,0-1.54-3,17.39,17.39,0,0,1-1.2-3.23l-2.79-9.46a20.52,20.52,0,0,1-1-4.63c-.2-3.74,1.68-7.49.82-11.13a7.92,7.92,0,0,0-9.05-5.69,4,4,0,0,0-2.66,1.66,5.33,5.33,0,0,0-.58,2c-.49,3.35-.93,7,.69,9.94-2.17,2.73-2.26,6.54-2,10,.19,2.2,0,9.29,0,9.29S230.66,91.11,229.56,92.31Z"/><path class="cls-8" d="M235.58,91h16.21"/><path class="cls-8" d="M237.24,71.41a58.78,58.78,0,0,0,10.42-1.11"/><path class="cls-8" d="M249.36,61.75a108.36,108.36,0,0,1,23.15-2,2.22,2.22,0,0,1,1.42.37,2,2,0,0,1,.53,1,21.34,21.34,0,0,1,1.1,7.77,2.5,2.5,0,0,1-.21,1c-.39.78-1.42,1-2.29,1a92.56,92.56,0,0,1-23.79-1.31"/><path class="cls-8" d="M274.66,58.9a16.62,16.62,0,0,1,8.57,2.22c1.92,1.1,3.8,3.16,3.15,5.28s-3.09,2.72-5.17,3.09l-5.25,1"/><path class="cls-8" d="M201.3,99.22c2.68-.1,5.9-.56,7-3a1.49,1.49,0,0,0,.13-.47c.4-3.33-1.73-4.69-3.73-4.5a2,2,0,0,1-2.14-2.14c.6-11-1.43-22-1.54-33.1-.15-15.3-2-25,3.95-35.69,2.17,4.16,1.25,11.58,1.25,11.58s-2.35-.19-2.42,4.21c0,1.94,3,2,4.38,2.06l8.4.11c1.58,0,5.29.43,5-3.41-.11-1.67-3.66-2.26-3.66-2.26L214.65,6.38a6,6,0,0,0-3.06-4.86C208.2-.22,205.43,2.71,204,5.57c-1.19,2.4-2.1,5.17-4.34,6.62.19-2.55-2.72-4.56-5.23-4.08s-4.34,2.8-5,5.26a21,21,0,0,0-.22,7.62c-4.81,1.17-6.68,8.39-3,11.75a7.71,7.71,0,0,1,2,2,5,5,0,0,1,.37,2.11q.31,12.33.08,24.67c-.11,6-1.2,22.36-1.59,28.11a2.28,2.28,0,0,1-2,2.13c-1.9.22-4.51,1-3.85,3.47C182.63,100.83,197.25,99.39,201.3,99.22Z"/><path class="cls-8" d="M205.31,20.28a85.54,85.54,0,0,0,.52-8.91"/><path class="cls-8" d="M195.88,20.71c.49-3.27,3.43-5.66,4.37-8.83"/><path class="cls-8" d="M200.6,33.72l-6.74,1.05a16.86,16.86,0,0,1-5.2.27"/><path class="cls-8" d="M189.74,21.37l6.17-.31"/><path class="cls-8" d="M195.43,21.14a12.8,12.8,0,0,0-1.21,5.24,5.1,5.1,0,0,0,.34,2.13,6.31,6.31,0,0,0,1.86,2.16q1.67,1.41,3.4,2.73"/><path class="cls-8" d="M188.32,78.5q4.13-.27,8.25-.47a15.51,15.51,0,0,1,2.55,0,11.36,11.36,0,0,1,3,.85"/><path class="cls-8" d="M186.47,89.66a119.43,119.43,0,0,0,16.26,1.14"/><path class="cls-8" d="M162.23,97.32a12.6,12.6,0,0,1-4.77.81c-4,.13-8,.11-11.93-.06-2.21-.09-4.77-.42-5.94-2.29a3.6,3.6,0,0,1,.46-4.29c.56-.59,1.35-1,1.72-1.71a4,4,0,0,0,.23-2.1,26.38,26.38,0,0,1,7.11-19.3,6.4,6.4,0,0,1-1.18-8.19,6.65,6.65,0,0,1,8-2.27,6.94,6.94,0,0,1,3.8,7.49c-.31,1.53-1.15,3-1.23,4.52a11.23,11.23,0,0,0,1.17,4.53c1.82,4.68,1,10,2.64,14.45C163.47,92,167.38,95,162.23,97.32Z"/><path class="cls-8" d="M147.27,60.34,128.3,58c-1.65-.21-3.45-.38-4.85.52a6.72,6.72,0,0,0-2.25,3.25c-.94,2.32-1.53,5.36.34,7,1.38,1.23,3.45,1.09,5.3,1.11s3.63.28,5.44.13a24.09,24.09,0,0,0,3.57-.65l12-2.76"/><path class="cls-8" d="M122.64,58.69a12.88,12.88,0,0,0-10.26,1.39A2.52,2.52,0,0,0,111,61.76a2.44,2.44,0,0,0,.33,1.25,9.61,9.61,0,0,0,4.48,4.49,8.58,8.58,0,0,0,4.92.69"/><path class="cls-8" d="M149,68.6a21.81,21.81,0,0,0,5.11,1,7.42,7.42,0,0,0,4.9-1.43"/><path class="cls-8" d="M142.15,89.87a25.59,25.59,0,0,1,5.31.35,79.41,79.41,0,0,0,15.26.42"/></g></g></g></g></svg>