<svg xmlns="http://www.w3.org/2000/svg" viewBox="0 0 556.59 476.63"><defs><style>.cls-1{fill:#8a817c;}.cls-2{fill:#bcb8b1;}.cls-3{fill:#463f3a;}.cls-4,.cls-6,.cls-7{fill:none;stroke-miterlimit:10;}.cls-4{stroke:#000;}.cls-5{fill:#fffcf2;}.cls-6,.cls-7{stroke:#363636;}.cls-6{stroke-width:3px;}</style></defs><g id="Layer_2" data-name="Layer 2"><g id="Layer_6" data-name="Layer 6"><g id="tape-measure-grey"><g id="background"><g id="top"><path class="cls-1" d="M212.14,64.38a1,1,0,0,1-.66.07C208.7,63.76,189,56.93,167.54,52c-19.42-4.44-40.29-6.94-51.35-8.46-12.9-1.78-39-5.3-61.74-6.36-15.86-.74-30.09.73-37.08.49A1,1,0,0,1,17,35.77L93.67,3.6A.84.84,0,0,1,94,3.52,266,266,0,0,1,124.39,1,466.27,466.27,0,0,1,175.67,3.1c49.51,4.79,96.57,22.46,107,26.57a1,1,0,0,1,.05,1.84Z"/><path class="cls-2" d="M225.82,57.53a91.71,91.71,0,0,0-8.66-4.72c-18.72-7.05-58.39-13.89-78.07-17.46C124.78,32.75,95.9,29,81.46,27.27c-8.89-1.09-35.64-3.74-35.64-3.74l21-9s30.81,1.24,41,2.28C119.28,18,142,21.38,153.32,23.55c21.24,4.08,64,12.27,84.17,20,2.47,1,9.33,5,9.33,5Z"/><path class="cls-2" d="M253.82,44.53a50.27,50.27,0,0,0-5-3.29C240.94,37.65,223.89,34,215.47,32c-12.06-2.88-36.44-7.58-48.66-9.69-14.72-2.54-44.25-7.11-59.1-8.66-8.2-.86-32.89-2.07-32.89-2.07l17-7s25.64,0,34.16.51c12.14.78,36.34,3.58,48.34,5.55,13.59,2.22,40.46,8.32,53.86,11.5C238,24.41,257.73,28.46,267,32.24c1.54.63,5.79,3.29,5.79,3.29Z"/></g><g id="side"><path class="cls-1" d="M299.32,267l-75.5,46.5s13.35-18.94,17.31-25.57c3.82-6.39,12.11-19.14,13.8-26.39,3.64-15.57.91-48.12-1.45-63.93-2.78-18.61-14.75-54.49-20.32-72.46-4.1-13.22-16.48-48.69-19.94-58.56a3,3,0,0,1,1.59-3.72l70.45-32.19A3,3,0,0,1,289.15,32c4.56,8.56,19.63,37,24.68,48,7.63,16.72,18.9,52.23,20.82,70.5,1.74,16.51-.11,50.37-5.16,66.17C325,230.68,299.32,267,299.32,267Z"/><path class="cls-2" d="M276.11,114.31l-18.36,8.35a2,2,0,0,1-2.69-1.1c-3-7.83-14.33-36.9-18.83-47.43-1.27-2.94-3.66-8.93-5.36-11.65-.85-1.36-4.05-4.95-4.05-4.95l20-9a50,50,0,0,1,5.61,4.63c1.49,1.83,3.47,6.18,4.47,8.32,5.2,11.09,17.28,42.52,20.25,50.3A2,2,0,0,1,276.11,114.31Z"/><path class="cls-1" d="M320.82,174.53l-44,24s-6.08-28.17-8.62-37.43c-1.9-6.93-7.94-25.21-9.82-30.87a2,2,0,0,1,1.07-2.44l42.35-19.34a2,2,0,0,1,2.73,1.18c2,5.84,7.45,22.29,9.1,28.67C315.93,147.24,320.82,174.53,320.82,174.53Z"/><path class="cls-3" d="M319.82,171.53l-8,4s-1.45-12.33-2.24-16.39c-.84-4.3-3.23-12.73-4.36-17-1-3.91-3-11.77-4.29-15.6s-6.11-15-6.11-15l6.28-2.35a2,2,0,0,1,2.51,1c1.15,2.41,3.22,6.83,3.93,8.71,1.57,4.18,3.94,12.81,5.13,17.11,1.37,5,4,14.88,5,19.92C318.43,159.8,319.82,171.53,319.82,171.53Z"/><path class="cls-4" d="M298.82,186.53l-13,6s-1.64-18.79-2.84-24.95c-1.1-5.62-6.16-22.05-6.16-22.05l13-6s6.11,15.55,7.21,21C298.32,166.9,298.82,186.53,298.82,186.53Z"/><path class="cls-3" d="M298.82,186.53h-3s-.68-18.7-2-24.78c-1.1-5.24-7-20.22-7-20.22l3-2s6.05,16.13,7.16,21.74C298.21,167.48,298.82,186.53,298.82,186.53Z"/><path class="cls-5" d="M301.82,251.53c-7.05,6.11-31.42,20.14-31.42,20.14l-5.58-1.14s10-24.61,11.55-33.29c1.66-9.54.45-38.71.45-38.71l44-24s4.82,28.12,4.83,37.59c0,3.5-.33,10.69-1.75,13.88C320.47,233.71,308.2,246,301.82,251.53Z"/></g><g id="bottom"><polygon class="cls-1" points="299.82 266.53 223.82 313.53 230.82 326.53 305.82 277.53 299.82 266.53"/><polygon class="cls-1" points="302.82 321.53 232.82 371.53 230.82 326.53 305.82 277.53 302.82 321.53"/><polygon class="cls-3" points="296.82 301.53 241.82 338.53 241.82 365.53 296.82 325.53 296.82 301.53"/></g><g id="tape"><path class="cls-5" d="M503.39,431.34,243.82,338.53l48-34,248.69,80.61a3,3,0,0,1,1.34,4.82l-35.19,40.52A3,3,0,0,1,503.39,431.34Z"/><path class="cls-2" d="M548.38,388.35c-2.69-1-8.61.32-11.45.76-8.14,1.28-32,7.95-32,7.95l-74.09-21.23a2,2,0,0,0-1.83.38l-14.53,12.1a2,2,0,0,0,.59,3.42L464,409.68l31.65,10.68a60,60,0,0,0,4.76,5.37c1.15,1,3.92,2.21,5.14,3.08s4.45,3.74,4.45,3.74l1.72,41.71a1,1,0,0,0,1.7.66l16.41-16.4,1.51-3.52,3.49-3.48,1.79.2,14.94-14.93a1,1,0,0,0,.28-.61l4-40.65S550.81,389.24,548.38,388.35Zm-8.56,45.77a1.05,1.05,0,0,1-.29.71l-11,11a1,1,0,0,1-1.71-.71v-3.19a1,1,0,0,1,.27-.68l11-11.85a1,1,0,0,1,1.73.68Z"/><ellipse class="cls-3" cx="434.32" cy="389.53" rx="9.5" ry="6"/><ellipse class="cls-1" cx="434.32" cy="386.53" rx="9.5" ry="6"/><ellipse class="cls-3" cx="471.32" cy="401.03" rx="9.5" ry="6.5"/><ellipse class="cls-1" cx="471.32" cy="399.03" rx="9.5" ry="6.5"/><ellipse class="cls-3" cx="508.32" cy="413.53" rx="8.5" ry="6"/><ellipse class="cls-1" cx="508.32" cy="410.53" rx="8.5" ry="6"/></g><g id="front"><path class="cls-2" d="M232.32,371l-126.21-42.5L35.3,299.38c-13.21-5.44-23.34-16.75-24.7-31,0,0-8.67-78.94-9-105.38-.21-15.34-1.32-46.8.51-73.14A301.42,301.42,0,0,1,8.33,46.75c.54-5.84,4.84-11,10.65-10.26,0,0,49.78,1.61,89.67,5.55,25.17,2.49,71.38,13.58,94.46,18.81,7.22,1.64,12,7.08,14,14.19,0,0,19.25,60.22,24.07,80.62,1.89,8,7.66,22.33,10.35,36.87,4.22,22.87,5.63,34.61,5.23,46.24-.24,7-.72,21.21-3.13,27.76-4.89,13.3-31.61,47-31.61,47l9.32,13Z"/><path class="cls-5" d="M212.82,207.53c0,70-30,100-75,94-68-9.06-109-91-109-130,0-58,19-96,67-96C153.81,75.53,212.82,149.54,212.82,207.53Z"/><path class="cls-3" d="M212.07,195.91a94,94,0,0,1,.75,11.62c0,70-30,100-75,94-68-9.06-109-91-109-130a215.54,215.54,0,0,1,1.36-25Z"/></g></g><g id="outline"><path class="cls-6" d="M173.14,354.06c-14.89-4.88-29.78-9.75-44.5-15.1C99.58,328.4,71.21,316,42.87,303.65c-5.35-2.34-10.76-4.71-15.36-8.3C14.35,285.07,10.36,267.13,8,250.6-.57,190.69.74,129.81,4,69.38c.57-10.64,1.92-22.7,10.48-29.06C19,37,24.8,35.86,30.43,35.39c10-.85,20.13,0,30.17.74C72,37,83.52,38,94.58,40.92c8,2.12,15.63,5.29,23.74,6.67,9.28,1.59,18.79.77,28.2,1.3,13.65.76,27,4.34,40.17,7.89,11.89,3.2,25,7.29,31.14,18,4.72,8.18,4.55,18.58,7.42,27.58,3.57,11.22,5.84,19,9.16,28.22,8.26,23,12.55,46.3,18.84,69.9,3.53,13.23,6.77,26.8,5.88,40.46-1.35,20.71-12,39.51-22.34,57.49-4.72,8.21-12,7.15-17.81,21.73,2.84,1.42,7.17,1,10.16,8.08,5.29,12.56,10.12,37.16,3.78,42.64-5.9,5.09-21-4.08-27.25-6.12Z"/><path class="cls-6" d="M101.08,292.33c-16.8-8.71-30.81-22.19-41.95-37.48A165.12,165.12,0,0,1,28.3,172.76a83,83,0,0,1,.51-22c1.35-7.48,4.23-14.6,7.36-21.53a134.5,134.5,0,0,1,12.08-22.07c8.25-11.76,19.62-21.5,33-26.74s28.75-5.75,42-.3c9.85,4,18.16,11,25.93,18.32,27.14,25.4,50.57,56.53,58.84,92.77,10.33,45.28-7.62,105.27-59.94,110.73C132,303.59,115.43,299.77,101.08,292.33Z"/><path class="cls-6" d="M29.3,145.31c34.18,12.81,69.85,21.16,105.4,29.48l35,8.18c8.92,2.09,17.89,4.19,26.36,7.69,4.66,1.92,9.14,4.25,13.69,6.43"/><path class="cls-6" d="M9.49,41.33C40.89,17.64,78.88.44,118.2,1.55c12.25.35,24.43,2.46,36.69,2.34,8.24-.08,16.48-1.17,24.71-.72,7.68.42,15.23,2.16,22.72,3.9L274.8,23.89c3.26.76,6.63,1.56,9.34,3.54s4.34,4.71,6,7.46a341.51,341.51,0,0,1,44.81,127c1.26,9,2.17,18,1.38,27.06A100.32,100.32,0,0,1,331,212.58a162.48,162.48,0,0,1-31.24,54.14A56.84,56.84,0,0,1,303,307.63"/><path class="cls-6" d="M294.35,305.49l136.48,44.83c40,13.13,80,26.26,119.52,40.61a7.52,7.52,0,0,1,3.7,2.26,7.35,7.35,0,0,1,1,4.12,146.14,146.14,0,0,1-3.74,37.4c-.82,3.51-1.94,7.25-4.8,9.44-2.07,1.59-4.75,2.11-7.11,3.24-5.62,2.67-9,11.43-12.92,16.23-3.25,3.94-6.49,8-10.51,11.05A2.21,2.21,0,0,1,512.4,473c-.15-7.47-.79-16.86-.71-23.43.05-4.68-.07-9.82-3.17-13.33-2.09-2.37-5.2-3.54-8.17-4.62l-60.8-22.13L244.11,338.32"/><path class="cls-6" d="M267.24,347.54c-3.53,1.23-6.55,3.56-9.51,5.85L244.31,363.8c-1.91,1.48-3.83,3-5.59,4.63a19.34,19.34,0,0,1-4.25,3.48c-3.57,1.81-7.86.59-11.67-.66"/><path class="cls-6" d="M221.46,317.08c13.13-13.64,32.14-19.86,47-31.61,9.52-7.55,18.21-17.8,30.27-19.26"/><path class="cls-6" d="M242.43,365.55l-.5-21.12c-.07-2.67-.09-5.51,1.29-7.8a14,14,0,0,1,4-3.83,410.71,410.71,0,0,1,51.46-32l-.65,4.93"/><path class="cls-6" d="M245.29,298.93c-.29-4,3.39-7,6.24-9.84a51.21,51.21,0,0,0,7.88-10.81,125.93,125.93,0,0,0,14.12-87.87c-1.07-5.12-2.46-10.17-3.85-15.22l-5-18.16-8.17-29.65a181.71,181.71,0,0,1,39.86-19.21c2.22-.75,4.88-1.39,6.73,0a7.29,7.29,0,0,1,2.13,3.9l8.67,28.75c3.37,11.17,6.77,22.56,6.49,34.22"/><path class="cls-6" d="M287.71,269.49a42.55,42.55,0,0,0,13.78-18.19"/><path class="cls-6" d="M277.05,199.81l42.11-23.24a4,4,0,0,1,1.35-.53c1.38-.17,2.53,1.24,2.69,2.63a11.73,11.73,0,0,1-.71,4.1c-1.93,7.59,1.52,15.37,2.81,23.09a42.73,42.73,0,0,1-15,39.46,84.84,84.84,0,0,1-8.74,5.92l-26.29,16.24c-3.18,2-7,4-10.48,2.74"/><path class="cls-6" d="M282.38,220.31a36.29,36.29,0,0,1,1.85,24.59,18.63,18.63,0,0,1-1.38,3.62c-.9,1.72-2.18,3.2-3.15,4.87a30.72,30.72,0,0,0-1.86,4.09l-2.55,6.4"/><path class="cls-6" d="M285.23,193.9c1.84-9.16-.36-18.59-2.55-27.67L278.52,149a4.14,4.14,0,0,1-.14-2,3.69,3.69,0,0,1,1.1-1.61,25.4,25.4,0,0,1,12-6.71c.67,16.21,11.17,31.34,9.28,47.45"/><path class="cls-6" d="M294.4,109a88.65,88.65,0,0,1,5.49,11.15,82.74,82.74,0,0,1,3,10.83l6.84,29.83c1.14,5,2.29,10,2,15.11"/><path class="cls-6" d="M320,175.47a19.34,19.34,0,0,0-8.18,1.24"/><path class="cls-6" d="M212.15,68.13q36.67-19,72.78-39.14"/><path class="cls-6" d="M35.67,25.3l45.51,1.54a97.49,97.49,0,0,1,13,1c4.87.82,9.58,2.37,14.37,3.59,19.33,4.91,39.8,4.34,58.9,10.06,7.93,2.38,15.58,5.83,23.76,7.11C199.87,50,209.16,49,217,52.91c8,4.07,12.74,12.5,16.68,20.59a382.15,382.15,0,0,1,19.89,49.19l17-8c2.45-1.15,5.09-2.49,6.16-5,1.29-3-.19-6.38-1.65-9.29L258.42,67.3C253.26,57,247.29,46,236.7,41.5c-7.93-3.34-17-2.3-25.35-4.37-7.88-2-42.21-6.84-51.12-10.05-3.62-1.3-78.45-16.58-105.4-10.22"/><path class="cls-6" d="M62.9,12l46.58,1.11c5.6.13,11.21.26,16.78.83,5.16.52,10.27,1.41,15.37,2.3,7.53,1.32,15.05,2.63,22.56,4.06a930.48,930.48,0,0,1,91.43,22.6"/><path class="cls-6" d="M84.28,5.13q37.11,1.18,74.11,4.45a151.14,151.14,0,0,1,16.84,2.17c5.1,1,10.1,2.58,15.25,3.35,5,.74,10.07.76,15.07,1.45A111.83,111.83,0,0,1,220,19.87c17.21,4.76,34.43,9.52,51.5,14.76"/><path class="cls-6" d="M229.41,328a354.54,354.54,0,0,1,75.08-47.48"/><path class="cls-6" d="M282.55,274.22l9.83,13.52"/><path class="cls-6" d="M240.34,304.3a28.09,28.09,0,0,0,6.42,10.58"/><path class="cls-6" d="M510.69,439.5c.6-4.2-3.24-7.6-6.8-9.91-28.18-18.3-63-23.22-93.06-38.17,4.61-7.45,10.36-15.65,19-16.73,4-.48,7.92.65,11.75,1.77,9.51,2.78,19,5.56,28.44,8.63,10.71,3.49,21.3,7.34,32,10.9a12.86,12.86,0,0,0,4,.87,13,13,0,0,0,4.19-.91l30.66-10.3"/><path class="cls-6" d="M437.3,392.65a8.37,8.37,0,0,1-7.29-1.13c-.62-.45-1.19-1-1.82-1.41a9.94,9.94,0,0,1-2.24-1.58,3.56,3.56,0,0,1-.24-4,5.77,5.77,0,0,1,3.32-2.49,15.59,15.59,0,0,1,4.2-.57c3.3-.13,7.55.23,9.06,3.77C443.67,388.5,440.15,391.73,437.3,392.65Z"/><path class="cls-6" d="M465.12,404.36a7.39,7.39,0,0,1-1-1.67,8.82,8.82,0,0,0-1.09-1.2,6.78,6.78,0,0,1-1.73-5.55,3.14,3.14,0,0,1,.53-1.43,3.57,3.57,0,0,1,1.05-.88c4.56-2.8,12-2.71,15.67,1.67,3.42,4.11.56,8.18-3.88,9.39C472.3,405.33,467.13,406.14,465.12,404.36Z"/><path class="cls-6" d="M502.59,415.89a5.68,5.68,0,0,1-3-5.16,5.17,5.17,0,0,1,3.62-4.63c.66-.18,1.35-.23,2-.37,1.07-.23,2.07-.7,3.15-.88,2.44-.4,4.87.8,6.86,2.27,1.73,1.29,3.37,3,3.67,5.12a2.61,2.61,0,0,1-.31,1.82c-1.44,2.15-4.53,2.34-6.79,2.38C508.82,416.48,505.4,417.39,502.59,415.89Z"/><path class="cls-6" d="M511.11,436.19l7-3.31c5.85-2.76,11.87-5.65,16.15-10.5a41.43,41.43,0,0,0,5.19-7.92c3.94-7.3,7.42-15,13.25-21"/><path class="cls-6" d="M532.71,444.93c-1,1.25-2,2.5-3.05,3.67a3.88,3.88,0,0,1-1.32,1c-1.61.63-3.28-1-3.75-2.66a9,9,0,0,1,1.38-7.09,27,27,0,0,1,5-5.42l7.08-6.29c1.89-1.68,4.26-2.64,4.32.67a11.83,11.83,0,0,1-1.09,5.62C539.3,438.26,535.38,441.55,532.71,444.93Z"/></g><g id="tape-2" data-name="tape"><g id="numbers"><path class="cls-7" d="M256.06,342.79a33.2,33.2,0,0,0,16.83-8.58c7.66-7.29,11.4-17.79,18.12-26"/><path class="cls-7" d="M294.91,322a32.77,32.77,0,0,1,7-10.58"/><path class="cls-7" d="M303.35,329.06a14.46,14.46,0,0,1,2.45-5.74l5.76-9.38"/><path class="cls-7" d="M316.19,328.66c.22-4.77,5.75-7.75,6.69-12.43"/><path class="cls-7" d="M318.39,343c-.62-2.32,1.08-4.55,2.59-6.41a88.18,88.18,0,0,0,10.79-16.93"/><path class="cls-7" d="M335.34,336.06c-.83-4.82,6.06-7.87,6.33-12.75"/><path class="cls-7" d="M343.61,343.89c-.57-2.95,1.19-5.8,2.87-8.3l5.51-8.18"/><path class="cls-7" d="M356.33,341.51q3-5.68,5.79-11.48"/><path class="cls-7" d="M341,371.75c4.67-.77,8.48-4.07,11.84-7.4,5.73-5.68,11-12,14.18-19.42,1.78-4.23,2.89-8.86,5.72-12.48"/><path class="cls-7" d="M377.44,348.14l7.12-11.24"/><path class="cls-7" d="M386.91,354.17l9.17-15"/><path class="cls-7" d="M400,354.16a26.63,26.63,0,0,0,5-9.85"/><path class="cls-7" d="M403.68,372.21c-.39-3.57,2-6.82,4.41-9.45s5.24-5.22,6.11-8.7c.66-2.69.26-6,2.4-7.74"/><path class="cls-7" d="M420.92,362.88l6.89-10.66"/><path class="cls-7" d="M431.05,369.53a58.18,58.18,0,0,1,8.56-14.65"/><path class="cls-7" d="M444,368.5a30,30,0,0,0,6.21-10.58"/><path class="cls-7" d="M449.74,380.44c5.38-4.81,5.84-13.34,10.78-18.62"/><path class="cls-7" d="M428.58,402.16a14.42,14.42,0,0,0,5.26-1.12"/><path class="cls-7" d="M465.87,376.43a104.65,104.65,0,0,0,7.05-12.13"/><path class="cls-7" d="M475.41,385.11a110.06,110.06,0,0,0,9.49-16.79"/><path class="cls-7" d="M489.51,383.05l5.5-9.87"/><path class="cls-7" d="M496.8,395.24a42.87,42.87,0,0,1,2.94-4.66c2.76-4.57,2.88-10.51,6.21-14.7"/><path class="cls-7" d="M473.47,417.1a6.68,6.68,0,0,0,4.79-1.76"/><path class="cls-7" d="M511.6,392.55,519.18,380"/><path class="cls-7" d="M526,391.29a24.06,24.06,0,0,1,4-7.11"/><path class="cls-7" d="M292.57,316a33.07,33.07,0,0,1,2.81-8"/><path class="cls-7" d="M301.54,320.2l5-8.14"/><path class="cls-7" d="M312,322.9a14.2,14.2,0,0,1,4.56-6.91"/><path class="cls-7" d="M321.77,326.17c.54-2.9,4.38-4.28,4.85-7.19"/><path class="cls-7" d="M332.47,329.22c.53-2.79,3.6-4.42,4.62-7.07"/><path class="cls-7" d="M342.68,332.68a2,2,0,0,1,.59-1.47l4-5.06"/><path class="cls-7" d="M353.31,336.68c.92-2.92,3.89-4.93,4.5-7.94"/><path class="cls-7" d="M364,338.83a5.68,5.68,0,0,1,1.4-2.69l2.53-3.26"/><path class="cls-7" d="M374.55,343.35a12.75,12.75,0,0,1,1.33-2.79l3.17-5.47"/><path class="cls-7" d="M385.65,346.42l1.35-3.51c.54-1.38,1.25-2.93,2.67-3.31"/><path class="cls-7" d="M395.68,349.63l4.23-6.93"/><path class="cls-7" d="M407.26,353.45a58.22,58.22,0,0,1,3.68-7.68"/><path class="cls-7" d="M418.36,355.85a9.47,9.47,0,0,1,4-6.54"/><path class="cls-7" d="M429,360.05c-.22-1.09.79-2,1.57-2.76a10.13,10.13,0,0,0,2.44-4"/><path class="cls-7" d="M440.42,363.86a5.34,5.34,0,0,1,1.42-3.84,8.08,8.08,0,0,0,2-3.66"/><path class="cls-7" d="M465,365.64a5.56,5.56,0,0,1,1.72-2.68"/><path class="cls-7" d="M474,374a39.36,39.36,0,0,1,3.91-8.11"/><path class="cls-7" d="M484.72,378.65a22.76,22.76,0,0,1,4.43-7.69"/><path class="cls-7" d="M497.1,382a46.25,46.25,0,0,1,4.22-7.6"/><path class="cls-7" d="M508.52,385.06a17.69,17.69,0,0,0,5.13-7"/><path class="cls-7" d="M520.47,389.13a17.94,17.94,0,0,1,3.59-6.74"/><path class="cls-7" d="M534.47,389.17l.8-3.67"/></g><g id="lines"><path class="cls-3" d="M281.11,347.63l-4.19-1a46.6,46.6,0,0,1-4.91-1.41,7.22,7.22,0,0,1-2.31-1.26,3,3,0,0,1-1.11-2.31,3,3,0,0,1,1.5-2.35,6.1,6.1,0,0,1,2.78-.77,1.73,1.73,0,0,0,.81-.19,1.6,1.6,0,0,0,.5-.62,10.07,10.07,0,0,1,4.07-3.91,6.73,6.73,0,0,1,5.55-.25c1.6.7,2.81,2.11,4.43,2.77s3.64.55,4.88,1.8a4.72,4.72,0,0,1,1,1.81,2.45,2.45,0,0,1,.19,1.16,2.08,2.08,0,0,1-1.66,1.56,4,4,0,0,1-4.26-1.7c-.28-.46-.47-1-.77-1.43a6,6,0,0,0-2.26-1.79,7.26,7.26,0,0,0-2.37-.86,3,3,0,0,0-2.37.64,1.26,1.26,0,0,0-.46,1.22,1.65,1.65,0,0,0,.56.72,14,14,0,0,0,3.15,2,2.13,2.13,0,0,1,1.05.75c.37.68-.27,1.58-1,1.73a3.18,3.18,0,0,1-2.2-.64,14.4,14.4,0,0,0-2.66-1.59,2.79,2.79,0,0,0-2.92.4,1.16,1.16,0,0,0-.36.71c0,.59.53,1,1.06,1.28a16.41,16.41,0,0,0,6.6,1.35c1.75.08,2.76.74,2.46,2.69C284.39,348.54,282.58,348,281.11,347.63Z"/><path class="cls-3" d="M365.22,375.62c-.72-.13-1.42-.31-2.13-.49l-2.7-.7a31,31,0,0,1-5.16-1.65c-1.56-.72-3.14-1.91-3.33-3.62-.22-1.89,1.49-3.58,3.34-4a12,12,0,0,1,5.65.43l9.48,2.23a1.24,1.24,0,0,0-.26-1.57,3.72,3.72,0,0,0-1.57-.73c-2.48-.73-4.91-1.6-7.35-2.47-.7-.26-1.52-.63-1.65-1.37a1.73,1.73,0,0,1,.94-1.63,5.32,5.32,0,0,1,4.12-.49,15.34,15.34,0,0,1,3.87,1.76c2.43,1.39,5,2.82,7.74,3a3.89,3.89,0,0,1,2.33.56,3.22,3.22,0,0,1,.86,1.63,2.37,2.37,0,0,1,.1,1.48,2.15,2.15,0,0,1-.55.75,8.41,8.41,0,0,1-3.41,2.32,10.27,10.27,0,0,1-5-.29c-3.29-.72-6.62-1.28-10-1.68-.59-.07-1.29-.1-1.66.37-.53.68.15,1.65.88,2.1,2.36,1.45,5.36,1.11,8.09.67,1.1-.18,2.45-.41,3.42.31a1.62,1.62,0,0,1,.55,2.27C370.67,376.4,366.87,375.91,365.22,375.62Z"/><path class="cls-3" d="M462,376.78a5.35,5.35,0,0,1-.25,1.55,2.87,2.87,0,0,1-.8,1,4.92,4.92,0,0,1-1.39.87,3.22,3.22,0,0,1-4.18-4.08c.5-1.42,1.89-2.31,2.71-3.57s1-2.84,2-4c1.21-1.44,5.92-2.23,5.46.61S462.33,373.88,462,376.78Z"/><path class="cls-3" d="M400.39,365.22a4.8,4.8,0,0,1-.82,1.38,1.34,1.34,0,0,1-1.45.38,1.27,1.27,0,0,1-.66-1.25,3.31,3.31,0,0,1,.49-1.41,19.64,19.64,0,0,1,2-3,4,4,0,0,1,1-1,1.46,1.46,0,0,1,1.39-.09C404,361.18,400.88,364.2,400.39,365.22Z"/><path class="cls-3" d="M394.69,365.43c-.32.71-.81,1.58-1.59,1.49a.89.89,0,0,1-.27-1.69,8.59,8.59,0,0,1-2.48-.21,2.82,2.82,0,0,1-1.89-1.51c-.56-1.31.29-2.76,1.16-3.88s1.85-2.42,1.57-3.81a1.87,1.87,0,0,1,2.57,1.84,3.68,3.68,0,0,1-1.09,2,4.21,4.21,0,0,0-1.17,2c-.12.76.41,1.68,1.18,1.65a1.41,1.41,0,0,0,1.08-.75,6.64,6.64,0,0,0,.47-1.29,8,8,0,0,1,1.33-2.55c.51-.65,1.33-1.27,2.1-1,1.74.68.66,2.3-.07,3.16A19.35,19.35,0,0,0,394.69,365.43Z"/><path class="cls-3" d="M397.83,369.05a1.38,1.38,0,0,1-.44.86,1.74,1.74,0,0,1-.67.28,5.37,5.37,0,0,1-.7.11.87.87,0,0,1-.36,0,1,1,0,0,1-.36-.3,1.63,1.63,0,0,1-.55-1.38,1.38,1.38,0,0,1,.21-.42,2.48,2.48,0,0,1,.48-.54,1.67,1.67,0,0,1,1.24-.31,1.63,1.63,0,0,1,1,.56A1.6,1.6,0,0,1,397.83,369.05Z"/></g></g><g id="tread"><path class="cls-7" d="M286.61,207.88a311.35,311.35,0,0,1,31.61-18"/><path class="cls-7" d="M286.83,221.67a21.87,21.87,0,0,1,6.53-4.43c2.13-.94,4.41-1.54,6.45-2.66a33.78,33.78,0,0,0,3.27-2.18,132.77,132.77,0,0,1,15.75-9.06"/><path class="cls-7" d="M287.21,234.4c3.36-.11,6.28-2.19,9-4.12a213.09,213.09,0,0,1,25.09-15.17"/><path class="cls-7" d="M285.5,215.93c3.59-.62,6.25-3.52,9.26-5.57a41.09,41.09,0,0,1,4.8-2.71l17.63-9"/><path class="cls-7" d="M286.55,229.76c6.09-1.16,11-5.48,15.92-9.24a106.88,106.88,0,0,1,17.63-10.9"/><path class="cls-7" d="M287.88,240.73l32-18.34"/></g><path class="cls-7" d="M245,302.92a46,46,0,0,1,16-9.9"/><path class="cls-7" d="M247.94,308.92a59.8,59.8,0,0,1,16.6-9.71"/><path class="cls-7" d="M271.05,294.61c.75-2.26,3.12-3.54,5.35-4.4s4.66-1.63,6.11-3.53"/><path class="cls-7" d="M266,289.54l13.08-7.91"/><path class="cls-7" d="M246.62,305.79l11.81-6.72a14.06,14.06,0,0,0,3.82-2.77"/><path class="cls-7" d="M268.49,292.42q6.74-4.25,13.18-9"/></g></g></g></svg>