<svg xmlns="http://www.w3.org/2000/svg" viewBox="0 0 312.98 572.12"><defs><style>.cls-1{fill:#d5bdaf;}.cls-2{fill:#f5ebe0;}.cls-3{fill:#e3d5ca;}.cls-4{fill:#fffcf2;}.cls-10,.cls-5,.cls-8,.cls-9{fill:none;stroke-miterlimit:10;}.cls-10,.cls-5{stroke:#463f3a;}.cls-6{fill:#bcb8b1;}.cls-7{fill:#463f3a;}.cls-8{stroke:#d5bdaf;}.cls-10,.cls-8,.cls-9{stroke-linecap:round;stroke-width:3px;}.cls-9{stroke:#fffcf2;}</style></defs><g id="Layer_2" data-name="Layer 2"><g id="Layer_3" data-name="Layer 3"><g id="toilet"><g id="toilet-2" data-name="toilet"><g id="bottom"><path class="cls-1" d="M131.51,565l-33.37-4.43a26.67,26.67,0,0,1-22.9-30.21L94.43,396h37.08Z"/><path class="cls-2" d="M172.13,396h42.3l21.31,137.27a23.41,23.41,0,0,1-20.13,26.82l-43.47,5.62Z"/><polygon class="cls-3" points="172.14 565.71 154.43 568 131.51 564.97 131.51 396 172.13 396 172.14 565.71"/></g><g id="bowl"><path class="cls-2" d="M177,425l-8,13c-8.84,5.7-18.53,6.23-27,0l-12-15c-17-20-31-21-49-28-32-12.43-59-41-59.5-63.5h263C285,367,227,394,214,399,198.24,405.05,185,411,177,425Z"/><path class="cls-1" d="M211,400h0a62.57,62.57,0,0,0-32.39,22.81L177,425l7.83-14.46a29.24,29.24,0,0,1,15.3-13.4L209,396a2.39,2.39,0,0,1,2,4.05Z"/><path class="cls-1" d="M225.82,387.13l-62.95,6.78a3,3,0,0,1-1.72-.33L99.4,361a3,3,0,0,1,1.49-5.66L154.16,357a3,3,0,0,1,2.6,1.66l5.37,10.74a3,3,0,0,0,2.68,1.65h17.82a2.73,2.73,0,0,0,.64-.07L246.79,357a3,3,0,0,1,2.86,4.95l-21.93,24.2A3,3,0,0,1,225.82,387.13Z"/></g><g id="bowl-top"><path class="cls-2" d="M279.33,336S236,356,154,356c-68,0-121-13.62-121-13.62C20,337,21,338,22,316l4.19-21.94a8.25,8.25,0,0,1,8-6.65L277,285l3,4,5.5,39.19A8,8,0,0,1,279.33,336Z"/><path class="cls-3" d="M259,337.53a3,3,0,0,1-2.43,3c-10.45,2-51.79,9.9-65.57,10.52-22,1-68,1-68,1V315s53.3-1.63,71-3c34.75-2.67,74.27-14.87,82.46-17.5a.36.36,0,0,1,.36.6L259,311.72Z"/><path class="cls-3" d="M283.12,332l-3.38,1.88a3,3,0,0,1-4.43-2.17l-5-33.23a3,3,0,0,1,2-3.29l3.25-1.09a3,3,0,0,1,3.91,2.38l5.12,32.43A3,3,0,0,1,283.12,332Z"/><path class="cls-1" d="M119,348a3,3,0,0,1-3,3c-6.86-.07-23.48-.32-30-1-5.08-.5-17.88-3.09-23.85-4.33a3,3,0,0,1-2.27-3.76l8.43-29.5a3,3,0,0,1,3.18-2.16l44.8,4.48a3,3,0,0,1,2.71,3Z"/><path class="cls-4" d="M213,320a81.27,81.27,0,0,0-5.58,8.71,3,3,0,0,1-3.77,1.25c-4-1.71-11.75-5.11-14.65-7-1.08-.68-2.72-1.76-4.45-2.92a3,3,0,0,1,1.53-5.49l26.13-1.19a3,3,0,0,1,2.18,5.19A17.73,17.73,0,0,0,213,320Z"/></g><g id="lid-bottom"><path class="cls-2" d="M275.67,285.65a3,3,0,0,1-.69,2.62C270.34,293.48,246.82,313,155,313c-86,0-118.12-16.95-124.67-21.09a3,3,0,0,1-1.38-2.43l-.35-10.84a3,3,0,0,1,3-3.1L153,277l117.49-3.91a3,3,0,0,1,3,2.37Z"/><path class="cls-3" d="M181,309s-22.5,1-30,1-30-1-30-1a3,3,0,0,1-3-3v-8a3,3,0,0,1,3-3h60a3,3,0,0,1,3,3v8A3,3,0,0,1,181,309Z"/></g><g id="lid-rim"><path class="cls-2" d="M274.8,272.13a3,3,0,0,1-1.53,2.88c-7.53,4.17-41.2,20-119.31,20-95.17,0-119.22-12.63-124.3-16.43a3,3,0,0,1-1.2-2.4v-8.7a3,3,0,0,1,3-3L271.17,262a3,3,0,0,1,3,2.75Z"/><rect class="cls-3" x="117.96" y="286" width="47" height="7" rx="3"/></g><g id="tank"><path class="cls-2" d="M263,251h-210a17,17,0,0,1-16.85-14.83S17.43,150.11,14,121c-2.78-23.23-4.5-93.5-4.5-93.5h290S291,126.4,285,159C280.64,182.26,263,251,263,251Z"/><path class="cls-4" d="M109.93,251H51.28a3,3,0,0,1-2.91-2.24C45.06,235.92,28.51,171.6,24,148,18.84,121.53,12.58,46.92,11.22,30.31a3,3,0,0,1,3-3.24L86,28a3,3,0,0,1,2.94,3c-.24,17.21-1.21,104.28,3,135,2.56,18.52,16.71,67.13,20.85,81.16A3,3,0,0,1,109.93,251Z"/><path class="cls-4" d="M253,245l-22-3,21-68L266,28h12s-5.25,106.73-10,142C265.4,189,253,245,253,245Z"/></g><g id="lid-top"><path class="cls-2" d="M273.46,263.5c-.1.7-5.48,19-119.5,23.5-51,2-120-12-124-20-2.4-4.78,6-12,13-17,9.82-7,32.8-16.29,32.8-16.29l72.93-1.21S196,232,230,232c15,0,24,10,31,16C270.22,256,274,260,273.46,263.5Z"/><path class="cls-4" d="M51.8,276c-12.29-3.13-20.54-6.38-21.84-9-2.4-4.78,6-12,13-17,0,0-.11,9.75,1,13S51.8,276,51.8,276Z"/><path class="cls-4" d="M264.13,250.77c6.95,6.17,9.76,9.66,9.33,12.73,0,.34-1.34,4.84-15.71,9.89,0,0,5.34-8.32,6.21-11.39C264.69,259.42,264.13,250.77,264.13,250.77Z"/></g><g id="tank-lid"><path class="cls-2" d="M309.46,32a4,4,0,0,1-3.88,4c-23.86.63-111.93,1.52-143.52,1.3C125.24,37.05,20.79,32.78,4.19,32.1a2.11,2.11,0,0,1-2-2.33l2-18.63A3.14,3.14,0,0,1,7.1,8.33L107.78,1.82l137.47.42L303,7.38A6.6,6.6,0,0,1,309.46,14Z"/><path class="cls-4" d="M76.84,32.88l-45-1.76a3,3,0,0,1-2.88-3V14.06a3,3,0,0,1,3.06-3L77,12A3,3,0,0,1,80,15V29.88A3,3,0,0,1,76.84,32.88Z"/><rect class="cls-4" x="262.96" y="11" width="16" height="22" rx="3"/></g><g id="handle"><path class="cls-4" d="M45.46,61.5h-17l-.61-4.23a2.17,2.17,0,0,1,2.38-2.46L45.46,56.5Z"/><path class="cls-5" d="M56.58,61.29,31.3,61.5c-1.18,0-2.56-.09-3.19-1.09C27.73,59.8,28,55,30,55"/><path class="cls-6" d="M59,57H29.76a1.3,1.3,0,0,1-1.23-1.71l.72-2.16a2.69,2.69,0,0,1,2.92-1.82L59,55Z"/><circle class="cls-7" cx="65.46" cy="60.5" r="9"/><path class="cls-6" d="M60.22,63.57c.32.3.62.62,1,.9a8.39,8.39,0,0,0,1.63.91A5.91,5.91,0,0,0,65,66a5.19,5.19,0,0,0,3.42-1.54,6.41,6.41,0,0,1,1.78-1.24,1.83,1.83,0,0,1,2,.33,1.76,1.76,0,0,1,.11,1.91,4,4,0,0,1-1.41,1.42,13.85,13.85,0,0,1-3.44,1.72,7.46,7.46,0,0,1-2.64.47,8.39,8.39,0,0,1-5.27-2.66c-.76-.71-2.36-2.2-2-3.39C57.93,61.54,59.6,63,60.22,63.57Z"/><circle class="cls-4" cx="62.96" cy="61" r="5"/><ellipse class="cls-4" cx="71.57" cy="56.72" rx="1.56" ry="2.5" transform="matrix(0.87, -0.5, 0.5, 0.87, -18.77, 43.39)"/><rect class="cls-7" x="43.96" y="57" width="14" height="4"/></g></g><g id="dark"><path class="cls-8" d="M34,294.53c29.22,14.86,63.16,16.64,95.94,17.14,37.1.57,74.56-.15,110.66-8.69a144.67,144.67,0,0,0,30.05-10.14"/><path class="cls-8" d="M172,356.09c32-2.07,45.86-5.92,77.42-11.52"/><path class="cls-8" d="M27.71,298.4c-2.21,11.33-2.77,22.91-3.33,34.44"/><path class="cls-8" d="M43.52,286.21,77,292.72c8.54,1.66,17.09,3.32,25.75,4.14,7.88.74,15.8.77,23.72.81l32.54.14a387.73,387.73,0,0,0,50.16-4.21,446.34,446.34,0,0,0,45.25-9.7c6.37-1.72,12.63-4.72,16.82-9.82"/><path class="cls-8" d="M109.19,294.55c9.21-.17,40.3.87,42.32.87,16.45,0,30.85-1.95,41-3"/><path class="cls-8" d="M95.72,404.68l-.12,20.06a120.71,120.71,0,0,1-.63,14c-.6,4.87-8.38,89.86-16.33,106.45"/><path class="cls-8" d="M213.78,401.75c2.69,16.55,5.18,62.25,5.95,73.3"/><path class="cls-8" d="M10.68,34.75C9.32,85.11,17.9,135.62,28.23,184.93c4.19,20,5.32,39.78,11.39,59.29"/><path class="cls-8" d="M44.36,252.37a43.18,43.18,0,0,0,8.46,22.36"/><path class="cls-8" d="M81.73,34.32c34,1.69,159.77,3.31,173.46,2.59"/><path class="cls-8" d="M5.16,29.74a79.64,79.64,0,0,1,.47-18.06"/></g><g id="light"><path class="cls-9" d="M11.91,10.05c7.81-2.79,16.29-2.8,24.58-2.77,35.39.1,70.77.2,106.16.86q31.44.58,62.88,1.74"/><path class="cls-9" d="M248.69,12.4c11.57-1.1,23.21-2.2,34.8-1.31"/><path class="cls-9" d="M180.93,285.37l16.81-1.24a69.86,69.86,0,0,0,11.9-1.56"/><path class="cls-9" d="M62.14,278.23c3.82.38,7.44,1.9,11.22,2.59a50.81,50.81,0,0,0,5.36.61l12.91,1"/><path class="cls-9" d="M272.8,266.18v6.5"/><path class="cls-9" d="M274.8,285a57,57,0,0,0-1.14-7.37"/><path class="cls-9" d="M280.14,292.86q2.34,17.24,5.37,34.36"/><path class="cls-9" d="M185.24,315.09a99.92,99.92,0,0,0,24.61-2.65"/><path class="cls-9" d="M27,291.6c-1.93,2.92-2.63,6.46-3.2,9.91A184.21,184.21,0,0,0,21.42,332"/><path class="cls-9" d="M30,267.76l-.29,7.68"/><path class="cls-9" d="M29.15,288a36.17,36.17,0,0,1,.85-9.26"/><path class="cls-9" d="M28,290.63a5.92,5.92,0,0,0,1.48,4.66c.75.7,1.83,1.12,2.26,2.06"/><path class="cls-9" d="M224.22,548.71q-3.25-42.39-2.3-85"/><path class="cls-9" d="M176.16,419.92c.64-5.17,4.08-9.51,7.39-13.54a16.7,16.7,0,0,1,4.68-4.39c1.61-.86,3.47-1.17,5.12-2a47.46,47.46,0,0,0,4.94-3.33c4.81-3.14,10.85-3.54,16.58-3.85"/><path class="cls-9" d="M98.05,395.15a202,202,0,0,1-21.53-5.47c-6.86-2.16-13.81-4.8-19-9.72"/><path class="cls-9" d="M151.59,356.26A513,513,0,0,1,41.6,343c-6-1.39-12.13-3-16.76-7"/><path class="cls-9" d="M73.82,235.89q40.94-2.31,81.94-2.27"/><path class="cls-9" d="M210,232.29l14.41-.64a19.09,19.09,0,0,1,5,.21c3.71.82,6.71,3.76,10.45,4.41"/></g><g id="outline"><path class="cls-10" d="M215.59,401.92c11.95,45,6.54,95.79,18.16,140.93a6.67,6.67,0,0,1-2.56,7.1c-14.83,10.52-32.57,16.67-50.61,19.2-19.58,2.75-39.55,1.39-59.05-1.87-9.58-1.59-19.14-3.66-28.13-7.34-6.14-2.52-12.24-6-15.69-11.68-4.6-7.57-3.52-17.14-2.29-25.91q8.44-59.87,16.88-119.74"/><path class="cls-10" d="M20,328.16a30.36,30.36,0,0,0,.28,10.07c.91,3.65,3.09,6.84,5.23,9.95,10.37,15.07,21.16,30.56,36.62,40.35,18.12,11.46,41.27,14.15,57.56,28.1,10.94,9.37,18.9,23.77,32.94,27a24.71,24.71,0,0,0,25.16-9.71c2.57-3.68,4.05-8,6.11-12a46,46,0,0,1,30-23.36,75.76,75.76,0,0,0,9.1-2.17,36.8,36.8,0,0,0,7.27-3.88,180.32,180.32,0,0,0,54.59-54.95c1.82-2.87,3.59-5.88,4.23-9.22.91-4.72-.52-9.54-1.93-14.14l-6.69-21.7c-.52-1.68-1.33-3.64-3.06-3.94a5,5,0,0,0-2.83.67c-43.36,20-92.66,21.47-140.41,22.58-14.94.35-29.93.7-44.82-.59-17.2-1.48-34.47-5.23-50-12.89-7.23-3.56-13-9-15.64,1.17C21.31,308.64,20.79,318.8,20,328.16Z"/><path class="cls-10" d="M29.39,278.23C28.19,283.08,27.3,289,31,292.36a13.61,13.61,0,0,0,4,2.18,216.86,216.86,0,0,0,25.54,9c15.31,4.19,31.19,5.9,47,6.81,21.9,1.26,43.85,1,65.79.8,9.34-.1,18.73-.2,28-1.65,5.8-.91,11.5-2.35,17.19-3.78l40.16-10.13c5.39-1.36,11.11-2.92,14.81-7.07s4-11.77-.88-14.49"/><path class="cls-10" d="M35.09,258.27c-3.35,3.28-6.46,7.38-6.43,12.06.06,7.84,8.45,12.72,15.89,15.22,19.09,6.41,39.38,8.14,59.46,9.81,1.9.16,3.8.32,5.71.29,1.74,0,3.47-.22,5.21-.31,2.81-.14,5.63,0,8.44.08a620.68,620.68,0,0,0,62.51-.84,16.47,16.47,0,0,1,4.86.17c1,.24,1.87.65,2.84.86a12.75,12.75,0,0,0,3.49.14c19.73-1,38.93-6.51,57.77-12.43,8.2-2.58,17.79-6.88,18.81-15.42.87-7.36-5.28-13.47-10.89-18.31-6.77-5.82-13.67-11.73-21.88-15.22-9.78-4.16-20.69-4.59-31.31-5-8.71-.31-17.43-.61-26.14-.3-18,.65-36,3.92-53.93,2.54-6.7-.51-13.38-1.67-20.09-1.44C83.58,231.13,53.91,239.82,35.09,258.27Z"/><path class="cls-10" d="M43.24,250c-8.43-3.07-11.06-13.47-12.48-22.32Q28,210.52,25.25,193.31C16.69,139.85,8.1,86.19,6.82,32.05"/><path class="cls-10" d="M263.65,250.44A1597.65,1597.65,0,0,0,296.19,58.18a150.48,150.48,0,0,0,1.22-21.93"/><path class="cls-10" d="M2,28c.16,1.38.39,2.92,1.47,3.79a5.23,5.23,0,0,0,3.21.82C21.82,33,37,30.07,52.06,31.24c6.77.53,13.44,1.88,20.16,2.83,14.92,2.1,30,2.24,45.1,2.35q85,.64,170,.48c4.61,0,9.32,0,13.71-1.47s8.49-4.51,9.95-8.9c2.47-7.46-3.76-15.41-11.11-18.21s-15.47-2-23.32-2.26c-9.19-.27-18.26-2-27.39-2.92-9.75-1-19.55-1.23-29.35-1.38Q122.47.3,25.27,6.91c-5,.34-15-1-19.44,2C.38,12.64,1.38,22.4,2,28Z"/><path class="cls-10" d="M23.19,10.38l220.57,3.15"/><path class="cls-10" d="M31.65,267.93c5.75,5.76,14.1,7.92,22.07,9.6a424.94,424.94,0,0,0,218.9-11.81"/><path class="cls-10" d="M23.34,333.21C47.81,345,75.48,348,102.58,349.9c31.56,2.22,63.31,3.23,94.81.24,5.1-.49,10.18-1.07,15.26-1.66l33.15-3.83c14.63-1.69,30.79-4.18,40.14-15.56"/><path class="cls-10" d="M61.29,52.66a10.87,10.87,0,0,1,4.91-2.15,6.71,6.71,0,0,1,5.5,2.57,12,12,0,0,1,2.35,5.77,12.31,12.31,0,0,1-.21,5.47,8.9,8.9,0,0,1-17,.23,2.13,2.13,0,0,0-.76-1.28,2,2,0,0,0-.8-.19l-12.63-1a58.07,58.07,0,0,0-11.86-.14,3.72,3.72,0,0,1-2.76-.32,3.08,3.08,0,0,1-.94-2.51A12.79,12.79,0,0,1,28.54,53a3.3,3.3,0,0,1,1.32-1.53,3.85,3.85,0,0,1,2.26-.13C35,51.77,61.29,57.45,61.29,52.66Z"/></g></g></g></g></svg>